<svg width="246" height="156" viewBox="0 0 246 156" fill="none" xmlns="http://www.w3.org/2000/svg">
<g clip-path="url(#clip0)">
<path d="M6.04631 133.874C9.98654 139.642 13.9792 145.47 19.5422 150.365C22.4809 152.987 25.9307 155.235 29.7659 157.026H217.826C226.878 152.68 234.722 146.964 239.819 139.761C247.754 128.546 247.61 113.393 236.658 103.834C225.067 93.7172 203.948 91.1188 195.972 79.0752C190.597 70.9591 193.117 61.1016 196.885 52.4563C200.652 43.8111 205.622 35.089 204.791 25.9846C204.425 21.9743 202.931 18.0753 200.414 14.5628C197.896 11.0502 194.417 8.0096 190.222 5.6556C186.027 3.3016 181.218 1.69154 176.135 0.939045C171.051 0.186548 165.817 0.309948 160.802 1.30054C150.304 3.37382 141.654 9.02918 133.794 14.8194C125.935 20.6096 118.25 26.822 108.502 30.4902C98.7541 34.1583 86.1967 34.7381 77.7379 29.4825C72.0841 25.9698 68.3546 20.0585 61.2821 18.8575C53.4521 17.5278 46.4233 22.8148 42.1345 28.075C36.0422 35.6439 32.0137 44.1034 30.298 52.9303C28.5824 61.7571 29.2162 70.7636 32.1602 79.3925C33.919 84.4293 36.4814 89.3651 36.8967 94.5741C37.3121 99.7831 35.0358 105.548 29.2647 108.219C21.7876 111.68 10.884 109.027 4.52046 113.64C1.0873 116.129 0.106532 120.154 0.858916 123.755C1.6113 127.355 3.84511 130.651 6.04631 133.874Z" fill="#1D7FC1" fill-opacity="0.1"/>
<path d="M86.4746 76.3431H71.1388L76.6525 70.8303H91.9883L86.4746 76.3431ZM73.9695 75.1713H85.9895L89.158 72.002H77.1378L73.9695 75.1713Z" fill="white"/>
<path d="M89.4802 45.479H74.1444L68.4485 39.7826H83.783L89.4802 45.479ZM74.6298 44.3072H86.6495L83.2977 40.9545H71.2782L74.6298 44.3072Z" fill="white"/>
<path d="M32.8912 76.3431H17.5554L12.0416 70.8303H27.3775L32.8912 76.3431ZM18.0408 75.1713H30.0605L26.892 72.002H14.8723L18.0408 75.1713Z" fill="white"/>
<path d="M96.4093 66.4085H81.0735L88.074 59.4087L78.5662 49.9012H93.9013L103.409 59.4087L96.4093 66.4085ZM83.9041 65.2366H95.9241L101.752 59.4087L93.4157 51.0727H81.3968L89.7313 59.4087L83.9041 65.2366Z" fill="white"/>
<path d="M22.9558 66.4085H7.62067L0.62085 59.4086L30.3642 29.6646H45.7L15.9554 59.4086L22.9558 66.4085ZM8.10611 65.2366H20.1251L14.2978 59.4086L42.8693 30.8364H30.8496L2.2782 59.4086L8.10611 65.2366Z" fill="white"/>
<path d="M52.015 110.803L24.8824 83.6715H40.2175L52.015 95.4685L63.812 83.6715H79.1478L52.015 110.803ZM27.7135 84.8428L52.0154 109.146L76.3173 84.8428H64.2972L52.015 97.125L39.732 84.8428H27.7135Z" fill="white"/>
<path d="M69.244 25.2428H34.786L52.015 8.01449L69.244 25.2428ZM37.6171 24.0709H66.4137L52.015 9.67184L37.6171 24.0709Z" fill="white"/>
<path d="M79.3622 35.3609H64.0263L58.3308 29.6646H73.6654L79.3622 35.3609ZM64.5119 34.1891H76.5316L73.1795 30.8364H61.1599L64.5119 34.1891Z" fill="white"/>
<path d="M245.061 41.5021C245.05 41.4743 245.038 41.4467 245.027 41.4192C245.019 41.3992 245.01 41.3802 245.002 41.36C244.994 41.3399 244.985 41.3193 244.976 41.2992C244.707 40.5943 244.218 39.9946 243.582 39.5885L243.413 39.4907L222.833 27.6039L202.253 15.7179L202.083 15.6201C201.832 15.4579 201.542 15.3652 201.243 15.3516C200.944 15.338 200.646 15.4039 200.381 15.5427C200.367 15.5492 200.354 15.5569 200.34 15.5638C200.326 15.5708 200.313 15.5783 200.3 15.5864L197.582 17.1533L199.149 17.8178L193.714 46.6328C193.588 47.4124 193.69 48.2119 194.009 48.9342C194.017 48.9552 194.026 48.9755 194.035 48.9965C194.043 49.0159 194.051 49.0355 194.06 49.0546C194.329 49.7598 194.818 50.3598 195.455 50.7659L236.501 74.4732L236.123 76.2809L238.697 74.7902C238.71 74.7824 238.724 74.7759 238.737 74.7678C239.013 74.6049 239.248 74.3814 239.425 74.1144C239.601 73.8473 239.715 73.5436 239.758 73.2261L245.323 43.721C245.445 42.9714 245.354 42.2026 245.061 41.5021Z" fill="white"/>
<g opacity="0.5">
<path opacity="0.5" d="M234.283 76.2783L192.785 52.3099C192.117 51.8229 191.603 51.1556 191.301 50.3862C191 49.6169 190.925 48.7776 191.084 47.9668L196.57 18.8824C196.885 17.2086 198.159 16.4392 199.414 17.164L240.912 41.1321C241.58 41.619 242.095 42.2864 242.396 43.0558C242.697 43.8251 242.772 44.6645 242.613 45.4752L237.128 74.5596C236.812 76.2338 235.538 77.0032 234.283 76.2783Z" fill="url(#paint0_linear)"/>
<path d="M240.743 41.0345L220.163 29.1482L213.714 63.3384L234.113 76.1805C234.387 76.3736 234.707 76.4905 235.041 76.5192C235.374 76.5479 235.71 76.4874 236.012 76.3439C236.315 76.2004 236.574 75.979 236.763 75.7025C236.952 75.426 237.063 75.1042 237.087 74.7701L242.652 45.265C242.773 44.451 242.657 43.6194 242.319 42.8694C241.98 42.1194 241.433 41.4824 240.743 41.0345Z" fill="url(#paint1_linear)"/>
<path d="M199.583 17.262L220.163 29.1484L213.755 63.1243L192.954 52.408C192.264 51.9601 191.716 51.3231 191.378 50.5729C191.039 49.8228 190.924 48.9911 191.044 48.177L196.609 18.6719C196.633 18.3379 196.745 18.0162 196.934 17.7397C197.123 17.4633 197.382 17.242 197.684 17.0985C197.987 16.9551 198.322 16.8946 198.656 16.9233C198.989 16.9521 199.309 17.069 199.583 17.262Z" fill="url(#paint2_linear)"/>
<path d="M191.305 50.396C191.619 51.2294 192.198 51.9363 192.954 52.4079L234.113 76.1805C234.408 76.3776 234.75 76.491 235.104 76.5087C235.458 76.5264 235.81 76.4476 236.122 76.2808L217.681 42.3046L191.305 50.396Z" fill="url(#paint3_linear)"/>
<g filter="url(#filter0_d)">
<path d="M242.391 43.0463C242.077 42.213 241.498 41.506 240.743 41.0345L199.583 17.2618C199.289 17.0648 198.946 16.9513 198.593 16.9336C198.239 16.916 197.887 16.9947 197.574 17.1615L216.015 51.1377L242.391 43.0463Z" fill="url(#paint4_linear)"/>
</g>
</g>
<path d="M52.8202 66.5214L52.8207 66.5205C52.8487 66.4504 52.8774 66.3806 52.9068 66.311C52.9264 66.2606 52.948 66.2117 52.9682 66.1616C52.9907 66.1105 53.0114 66.0587 53.0345 66.0079C53.7149 64.2272 54.9494 62.7122 56.5561 61.6863L56.9839 61.4392L108.973 31.4122L160.961 1.3853L161.389 1.13814C162.025 0.728234 162.757 0.494178 163.513 0.459835C164.268 0.425491 165.019 0.592087 165.689 0.942637C165.725 0.959 165.758 0.978635 165.793 0.996011C165.827 1.01557 165.861 1.03263 165.895 1.05328L172.759 5.01112L168.802 6.68998L182.531 79.483C182.85 81.4523 182.591 83.4718 181.785 85.2966C181.764 85.3495 181.742 85.4008 181.72 85.4533C181.699 85.5021 181.679 85.5514 181.657 85.5999C180.977 87.3812 179.742 88.8969 178.135 89.9232L74.4442 149.812L75.3992 154.379L68.8975 150.614C68.8639 150.594 68.8293 150.577 68.7962 150.557C68.0997 150.145 67.5057 149.581 67.0591 148.906C66.6124 148.232 66.3249 147.464 66.218 146.662L52.1598 72.1266C51.8504 70.2332 52.0792 68.291 52.8202 66.5214Z" fill="white"/>
<path d="M80.0463 154.373L184.88 93.8244C188.05 91.9933 189.973 87.0813 189.175 82.8529L175.318 9.38017C174.52 5.15172 171.304 3.20825 168.133 5.0392L63.3002 65.5876C60.13 67.4187 58.2067 72.3308 59.0043 76.5592L72.8622 150.032C73.6597 154.26 76.8761 156.204 80.0463 154.373Z" fill="url(#paint5_linear)"/>
<path d="M63.7278 65.3404L115.716 35.3134L132.007 121.684L80.4739 154.125C77.0673 156.093 73.704 154.498 72.9618 150.563L58.9036 76.0276C58.1614 72.0927 60.3213 67.3079 63.7278 65.3404Z" fill="url(#paint6_linear)"/>
<path d="M167.705 5.28643L115.716 35.3134L131.905 121.142L184.451 94.0715C187.857 92.1039 190.017 87.319 189.275 83.384L175.217 8.84875C174.475 4.91382 171.111 3.31896 167.705 5.28643Z" fill="url(#paint7_linear)"/>
<path d="M188.615 88.9891C187.822 91.0944 186.359 92.8803 184.451 94.0715L80.4738 154.125C79.7302 154.623 78.8653 154.91 77.9716 154.954C77.0778 154.999 76.1887 154.8 75.3992 154.379L121.985 68.5487L188.615 88.9891Z" fill="url(#paint8_linear)"/>
<g filter="url(#filter1_d)">
<path d="M59.564 70.4228C60.3564 68.3175 61.8196 66.5316 63.7278 65.3404L167.705 5.28645C168.449 4.78867 169.313 4.50215 170.207 4.4575C171.101 4.41284 171.99 4.61172 172.78 5.0329L126.194 90.8635L59.564 70.4228Z" fill="url(#paint9_linear)"/>
</g>
<path d="M237.949 88.7039L236.964 87.7184L235.978 88.7039L236.964 89.6893L237.949 88.7039Z" fill="white"/>
<path d="M241.51 88.6916L240.524 87.7061L239.539 88.6916L240.524 89.6771L241.51 88.6916Z" fill="white"/>
<path d="M239.736 86.9176L238.75 85.9321L237.765 86.9176L238.75 87.9031L239.736 86.9176Z" fill="white"/>
<path d="M239.723 90.4778L238.738 89.4923L237.752 90.4778L238.738 91.4634L239.723 90.4778Z" fill="white"/>
<path d="M218.459 119.106H203.654V121.506H218.459V119.106Z" fill="white"/>
<path d="M236.672 119.106H221.867V121.506H236.672V119.106Z" fill="white"/>
<path d="M216.59 127.543H203.606V124.4H216.59V127.543ZM204.351 126.799H215.846V125.144H204.351L204.351 126.799Z" fill="white"/>
<path d="M207.663 130.303H203.654V132.703H207.663V130.303Z" fill="white"/>
</g>
<defs>
<filter id="filter0_d" x="187.574" y="10.9312" width="64.817" height="54.2065" filterUnits="userSpaceOnUse" color-interpolation-filters="sRGB">
<feFlood flood-opacity="0" result="BackgroundImageFix"/>
<feColorMatrix in="SourceAlpha" type="matrix" values="0 0 0 0 0 0 0 0 0 0 0 0 0 0 0 0 0 0 127 0"/>
<feOffset dy="4"/>
<feGaussianBlur stdDeviation="5"/>
<feColorMatrix type="matrix" values="0 0 0 0 0 0 0 0 0 0 0 0 0 0 0 0 0 0 0.69 0"/>
<feBlend mode="normal" in2="BackgroundImageFix" result="effect1_dropShadow"/>
<feBlend mode="normal" in="SourceGraphic" in2="effect1_dropShadow" result="shape"/>
</filter>
<filter id="filter1_d" x="40.564" y="-10.5487" width="151.216" height="124.412" filterUnits="userSpaceOnUse" color-interpolation-filters="sRGB">
<feFlood flood-opacity="0" result="BackgroundImageFix"/>
<feColorMatrix in="SourceAlpha" type="matrix" values="0 0 0 0 0 0 0 0 0 0 0 0 0 0 0 0 0 0 127 0"/>
<feOffset dy="4"/>
<feGaussianBlur stdDeviation="9.5"/>
<feColorMatrix type="matrix" values="0 0 0 0 0 0 0 0 0 0 0 0 0 0 0 0 0 0 0.25 0"/>
<feBlend mode="normal" in2="BackgroundImageFix" result="effect1_dropShadow"/>
<feBlend mode="normal" in="SourceGraphic" in2="effect1_dropShadow" result="shape"/>
</filter>
<linearGradient id="paint0_linear" x1="193.827" y1="33.4239" x2="243.133" y2="42.7246" gradientUnits="userSpaceOnUse">
<stop stop-color="#7BDAFF"/>
<stop offset="1" stop-color="#59BDEF"/>
</linearGradient>
<linearGradient id="paint1_linear" x1="244.454" y1="98.8371" x2="219.481" y2="51.6765" gradientUnits="userSpaceOnUse">
<stop offset="0.7677" stop-color="#59BDEF"/>
<stop offset="0.8452" stop-color="#55B8EB"/>
<stop offset="0.9318" stop-color="#49ABE1"/>
<stop offset="1" stop-color="#3A9BD5"/>
</linearGradient>
<linearGradient id="paint2_linear" x1="-45032.5" y1="83667.9" x2="-43389.2" y2="83256.5" gradientUnits="userSpaceOnUse">
<stop offset="0.7677" stop-color="#59BDEF"/>
<stop offset="0.8452" stop-color="#55B8EB"/>
<stop offset="0.9318" stop-color="#49ABE1"/>
<stop offset="1" stop-color="#3A9BD5"/>
</linearGradient>
<linearGradient id="paint3_linear" x1="206.952" y1="99.1872" x2="231.816" y2="56.1395" gradientUnits="userSpaceOnUse">
<stop offset="0.7677" stop-color="#3A9BD5"/>
<stop offset="0.8386" stop-color="#3896D2"/>
<stop offset="0.9179" stop-color="#3189C9"/>
<stop offset="1" stop-color="#2573BA"/>
</linearGradient>
<linearGradient id="paint4_linear" x1="-359330" y1="69092.6" x2="-356810" y2="70842.7" gradientUnits="userSpaceOnUse">
<stop stop-color="#7BDAFF"/>
<stop offset="1" stop-color="#59BDEF"/>
</linearGradient>
<linearGradient id="paint5_linear" x1="178733" y1="-203132" x2="157867" y2="-199196" gradientUnits="userSpaceOnUse">
<stop stop-color="#7BDAFF"/>
<stop offset="1" stop-color="#59BDEF"/>
</linearGradient>
<linearGradient id="paint6_linear" x1="84808.1" y1="-114090" x2="95264.7" y2="-124162" gradientUnits="userSpaceOnUse">
<stop offset="0.7677" stop-color="#59BDEF"/>
<stop offset="0.8452" stop-color="#55B8EB"/>
<stop offset="0.9318" stop-color="#49ABE1"/>
<stop offset="1" stop-color="#3A9BD5"/>
</linearGradient>
<linearGradient id="paint7_linear" x1="-288848" y1="103319" x2="-299336" y2="100691" gradientUnits="userSpaceOnUse">
<stop offset="0.7677" stop-color="#59BDEF"/>
<stop offset="0.8452" stop-color="#55B8EB"/>
<stop offset="0.9318" stop-color="#49ABE1"/>
<stop offset="1" stop-color="#3A9BD5"/>
</linearGradient>
<linearGradient id="paint8_linear" x1="154248" y1="-129707" x2="147282" y2="-141767" gradientUnits="userSpaceOnUse">
<stop offset="0.7677" stop-color="#3A9BD5"/>
<stop offset="0.8386" stop-color="#3896D2"/>
<stop offset="0.9179" stop-color="#3189C9"/>
<stop offset="1" stop-color="#2573BA"/>
</linearGradient>
<linearGradient id="paint9_linear" x1="155801" y1="-154735" x2="141248" y2="-139974" gradientUnits="userSpaceOnUse">
<stop stop-color="#7BDAFF"/>
<stop offset="1" stop-color="#59BDEF"/>
</linearGradient>
<clipPath id="clip0">
<rect width="244.759" height="154.608" fill="white" transform="translate(0.62085 0.453491)"/>
</clipPath>
</defs>
</svg>
