<svg width="5" height="7" viewBox="0 0 5 7" fill="none" xmlns="http://www.w3.org/2000/svg">
<path d="M0.801708 0.27406L0.603384 0.471015C0.541448 0.533 0.507327 0.615468 0.507327 0.703606C0.507327 0.791696 0.541448 0.874261 0.603385 0.936247L2.8502 3.18297L0.600892 5.43228C0.538955 5.49417 0.504883 5.57674 0.504883 5.66483C0.504883 5.75291 0.538955 5.83553 0.600892 5.89747L0.797993 6.09447C0.926168 6.22274 1.13495 6.22274 1.26313 6.09447L3.95083 3.41639C4.01272 3.3545 4.05633 3.27204 4.05633 3.18316L4.05633 3.18214C4.05633 3.094 4.01267 3.01153 3.95083 2.94964L1.27041 0.27406C1.20852 0.212075 1.12356 0.178051 1.03547 0.177954C0.947334 0.177954 0.863547 0.212075 0.801708 0.27406Z" fill="#004763"/>
</svg>
