<svg width="18" height="16" viewBox="0 0 18 16" fill="none" xmlns="http://www.w3.org/2000/svg">
<path d="M15.5917 1.36375H14.5077V0.504697C14.5077 0.257326 14.3053 0.0549316 14.058 0.0549316C13.8106 0.0549316 13.6082 0.257326 13.6082 0.504697V1.36375H9.2005V0.504697C9.2005 0.257326 8.9981 0.0549316 8.75073 0.0549316C8.50336 0.0549316 8.30096 0.257326 8.30096 0.504697V1.36375H3.84829V0.504697C3.84829 0.257326 3.64589 0.0549316 3.39852 0.0549316C3.15115 0.0549316 2.94876 0.257326 2.94876 0.504697V1.36375H1.9098C0.920314 1.36375 0.115234 2.19581 0.115234 3.1853V13.6423C0.115234 14.6363 0.915817 15.4414 1.9098 15.4414H15.5872C16.5811 15.4414 17.3817 14.6363 17.3817 13.6468V3.1853C17.3862 2.19581 16.5811 1.36375 15.5917 1.36375ZM16.4867 13.6423C16.4867 14.1371 16.0909 14.5374 15.5962 14.5419H15.5917H1.9098C1.41506 14.5419 1.01477 14.1416 1.01477 13.6468V13.6423V3.1853C1.01477 2.68606 1.41506 2.26328 1.9098 2.26328H2.94876V2.91544C2.94876 3.16281 3.15115 3.3652 3.39852 3.3652C3.64589 3.3652 3.84829 3.16281 3.84829 2.91544V2.26328H8.30096V2.91544C8.30096 3.16281 8.50336 3.3652 8.75073 3.3652C8.9981 3.3652 9.2005 3.16281 9.2005 2.91544V2.26328H13.6082V2.91544C13.6082 3.16281 13.8106 3.3652 14.058 3.3652C14.3053 3.3652 14.5077 3.16281 14.5077 2.91544V2.26328H15.5917C16.0909 2.26328 16.4867 2.69056 16.4867 3.1853V13.6423Z" fill="#004763"/>
<path d="M7.56742 5.18677H6.78033C6.53296 5.18677 6.33057 5.38916 6.33057 5.63653C6.33057 5.8839 6.53296 6.0863 6.78033 6.0863H7.56742C7.81479 6.0863 8.01719 5.8839 8.01719 5.63653C8.01719 5.38916 7.81479 5.18677 7.56742 5.18677Z" fill="#004763"/>
<path d="M10.6978 5.18677H9.9107C9.66333 5.18677 9.46094 5.38916 9.46094 5.63653C9.46094 5.8839 9.66333 6.0863 9.9107 6.0863H10.6978C10.9452 6.0863 11.1476 5.8839 11.1476 5.63653C11.1476 5.38916 10.9497 5.18677 10.6978 5.18677Z" fill="#004763"/>
<path d="M13.855 5.18677H13.0679C12.8206 5.18677 12.6182 5.38916 12.6182 5.63653C12.6182 5.8839 12.8206 6.0863 13.0679 6.0863H13.855C14.1024 6.0863 14.3048 5.8839 14.3048 5.63653C14.3048 5.38916 14.1024 5.18677 13.855 5.18677Z" fill="#004763"/>
<path d="M7.56742 8.29016H6.78033C6.53296 8.29016 6.33057 8.49256 6.33057 8.73993C6.33057 8.9873 6.53296 9.18969 6.78033 9.18969H7.56742C7.81479 9.18969 8.01719 8.9873 8.01719 8.73993C8.01719 8.49256 7.81479 8.29016 7.56742 8.29016Z" fill="#004763"/>
<path d="M4.41469 8.29016H3.62311C3.37573 8.29016 3.17334 8.49256 3.17334 8.73993C3.17334 8.9873 3.37573 9.18969 3.62311 9.18969H4.41019C4.65757 9.18969 4.85996 8.9873 4.85996 8.73993C4.85996 8.49256 4.66206 8.29016 4.41469 8.29016Z" fill="#004763"/>
<path d="M10.6978 8.29016H9.9107C9.66333 8.29016 9.46094 8.49256 9.46094 8.73993C9.46094 8.9873 9.66333 9.18969 9.9107 9.18969H10.6978C10.9452 9.18969 11.1476 8.9873 11.1476 8.73993C11.1476 8.49256 10.9497 8.29016 10.6978 8.29016Z" fill="#004763"/>
<path d="M13.855 8.29016H13.0679C12.8206 8.29016 12.6182 8.49256 12.6182 8.73993C12.6182 8.9873 12.8206 9.18969 13.0679 9.18969H13.855C14.1024 9.18969 14.3048 8.9873 14.3048 8.73993C14.3048 8.49256 14.1024 8.29016 13.855 8.29016Z" fill="#004763"/>
<path d="M7.56742 11.3485H6.78033C6.53296 11.3485 6.33057 11.5509 6.33057 11.7983C6.33057 12.0456 6.53296 12.248 6.78033 12.248H7.56742C7.81479 12.248 8.01719 12.0456 8.01719 11.7983C8.01719 11.5509 7.81479 11.3485 7.56742 11.3485Z" fill="#004763"/>
<path d="M4.41469 11.3485H3.62311C3.37573 11.3485 3.17334 11.5509 3.17334 11.7983C3.17334 12.0456 3.37573 12.248 3.62311 12.248H4.41019C4.65757 12.248 4.85996 12.0456 4.85996 11.7983C4.85996 11.5509 4.66206 11.3485 4.41469 11.3485Z" fill="#004763"/>
<path d="M10.6978 11.3485H9.9107C9.66333 11.3485 9.46094 11.5509 9.46094 11.7983C9.46094 12.0456 9.66333 12.248 9.9107 12.248H10.6978C10.9452 12.248 11.1476 12.0456 11.1476 11.7983C11.1476 11.5509 10.9497 11.3485 10.6978 11.3485Z" fill="#004763"/>
</svg>
