<svg width="22" height="22" viewBox="0 0 22 22" fill="none" xmlns="http://www.w3.org/2000/svg">
<path d="M21.4805 11C21.4805 16.7991 16.7795 21.5 10.9805 21.5C5.1814 21.5 0.480469 16.7991 0.480469 11C0.480469 5.20094 5.1814 0.5 10.9805 0.5C16.7795 0.5 21.4805 5.20094 21.4805 11Z" fill="#4A7AFF"/>
<path d="M14.1903 3.58893V5.96655C14.1903 5.96655 11.4606 5.57033 11.4606 7.33144V9.09255H13.9261L13.618 11.7783H11.4606V18.7788H8.73078V11.7783L6.39722 11.7342V9.09255H8.68672V7.06724C8.68672 7.06724 8.53564 4.05436 11.5046 3.50097C12.7375 3.27105 14.1903 3.58893 14.1903 3.58893Z" fill="white"/>
</svg>
