<svg width="18" height="21" viewBox="0 0 18 21" fill="none" xmlns="http://www.w3.org/2000/svg">
<path d="M15.9256 2.86584H15.3509V16.9869C15.3509 17.925 14.5872 18.6886 13.6491 18.6886H7.8254H3.19434V19.2121C3.19434 19.8115 3.68084 20.298 4.28025 20.298H10.1019H15.9236C16.523 20.298 17.0095 19.8115 17.0095 19.2121V3.95176C17.0095 3.35235 16.5251 2.86584 15.9256 2.86584Z" fill="#004763"/>
<path d="M7.82546 18.0728H13.6471C14.2465 18.0728 14.733 17.5863 14.733 16.9869V2.86583V1.72654C14.733 1.12713 14.2465 0.640625 13.6471 0.640625H7.82546H5.88969V0.99986C5.89378 1.03681 5.89585 1.07581 5.89585 1.11482V3.48166V4.08928C5.89585 4.93297 5.21022 5.6186 4.36653 5.6186H3.75891H1.39206C1.36127 5.6186 1.32842 5.61655 1.29763 5.61449H0.919922V16.9869C0.919922 17.5863 1.40643 18.0728 2.00584 18.0728H3.19645H7.82546ZM8.04511 14.3819H4.24952C3.96624 14.3819 3.73633 14.152 3.73633 13.8687C3.73633 13.5854 3.96624 13.3555 4.24952 13.3555H8.04716C8.33044 13.3555 8.56035 13.5854 8.56035 13.8687C8.56035 14.152 8.32839 14.3819 8.04511 14.3819ZM11.8427 11.7626H4.24952C3.96624 11.7626 3.73633 11.5326 3.73633 11.2494C3.73633 10.9661 3.96624 10.7362 4.24952 10.7362H11.8427C12.126 10.7362 12.3559 10.9661 12.3559 11.2494C12.3559 11.5326 12.126 11.7626 11.8427 11.7626ZM4.24952 7.95466H11.8427C12.126 7.95466 12.3559 8.18457 12.3559 8.46785C12.3559 8.75113 12.126 8.98104 11.8427 8.98104H4.24952C3.96624 8.98104 3.73633 8.75113 3.73633 8.46785C3.73633 8.18457 3.96624 7.95466 4.24952 7.95466Z" fill="#004763"/>
<path d="M1.39247 5.00307H4.36694C4.36899 5.00307 4.3731 5.00307 4.37515 5.00307C4.87192 4.99896 5.27427 4.59662 5.27837 4.09985C5.27837 4.0978 5.27837 4.09369 5.27837 4.09164V1.11512C5.27837 0.840045 5.05257 0.657349 4.81857 0.657349C4.70567 0.657349 4.59277 0.698404 4.49834 0.792832L1.06813 4.22301C0.780745 4.5104 0.983969 5.00307 1.39247 5.00307Z" fill="#004763"/>
</svg>
