<svg width="22" height="22" viewBox="0 0 22 22" fill="none" xmlns="http://www.w3.org/2000/svg">
<path d="M20.8423 9.17436L12.2766 9.17395C11.8984 9.17395 11.5918 9.4805 11.5918 9.85875V12.5951C11.5918 12.9733 11.8984 13.2799 12.2766 13.2799H17.1003C16.5721 14.6507 15.5862 15.7987 14.3284 16.5281L16.3853 20.0886C19.6846 18.1804 21.6352 14.8324 21.6352 11.0845C21.6352 10.5508 21.5959 10.1693 21.5172 9.73976C21.4574 9.4134 21.1741 9.17436 20.8423 9.17436Z" fill="#167EE6"/>
<path d="M11.1352 17.3914C8.77463 17.3914 6.71384 16.1016 5.60703 14.193L2.04663 16.2452C3.8585 19.3854 7.2527 21.5001 11.1352 21.5001C13.0399 21.5001 14.8371 20.9872 16.3852 20.0935V20.0887L14.3284 16.5281C13.3876 17.0738 12.2989 17.3914 11.1352 17.3914Z" fill="#12B347"/>
<path d="M16.3853 20.0935V20.0886L14.3284 16.5281C13.3876 17.0737 12.299 17.3913 11.1353 17.3913V21.5C13.0399 21.5 14.8372 20.9872 16.3853 20.0935Z" fill="#0F993E"/>
<path d="M4.74395 11C4.74395 9.83643 5.0615 8.74783 5.60705 7.80706L2.04664 5.75488C1.14803 7.29818 0.635254 9.09048 0.635254 11C0.635254 12.9095 1.14803 14.7018 2.04664 16.2451L5.60705 14.1929C5.0615 13.2522 4.74395 12.1636 4.74395 11Z" fill="#FFD500"/>
<path d="M11.1352 4.6087C12.6746 4.6087 14.0886 5.15568 15.193 6.06553C15.4655 6.28997 15.8615 6.27377 16.1111 6.02419L18.0499 4.08538C18.333 3.80221 18.3129 3.33869 18.0104 3.07627C16.1599 1.47096 13.7523 0.5 11.1352 0.5C7.2527 0.5 3.8585 2.61464 2.04663 5.75488L5.60703 7.80706C6.71384 5.89848 8.77463 4.6087 11.1352 4.6087Z" fill="#FF4B26"/>
<path d="M15.193 6.06553C15.4655 6.28997 15.8615 6.27377 16.1111 6.02419L18.0499 4.08538C18.333 3.80221 18.3128 3.33869 18.0104 3.07627C16.16 1.47092 13.7523 0.5 11.1353 0.5V4.6087C12.6746 4.6087 14.0886 5.15568 15.193 6.06553Z" fill="#D93F21"/>
</svg>
