<svg width="70" height="49" viewBox="0 0 70 49" fill="none" xmlns="http://www.w3.org/2000/svg">
<g opacity="0.1">
<path d="M65.2039 21.279C62.3121 18.3343 58.4785 16.6295 54.3721 16.4528C54.3527 16.1962 54.3383 15.8426 54.3383 15.3586C54.3383 13.376 55.846 7.31785 56.7965 3.96502L57.7691 0.534424H45.9658L45.1751 1.80836C44.8615 2.31373 37.4926 14.3953 37.4926 32.6086C37.4926 41.5258 44.7473 48.7805 53.6644 48.7805C62.5816 48.7805 69.8363 41.5258 69.8363 32.6086C69.8363 28.3445 68.1911 24.321 65.2039 21.279ZM53.6644 43.3899C47.7196 43.3899 42.8832 38.5534 42.8832 32.6086C42.8832 19.2237 47.3083 9.31656 49.0571 5.92505H50.6916C49.9171 8.9686 48.9476 13.2079 48.9476 15.3586C48.9476 17.0653 49.0743 18.4364 49.693 19.5809C50.2441 20.6002 51.3966 21.8143 53.7607 21.8273L53.8783 21.8302C59.7052 21.9432 64.4457 26.7783 64.4457 32.6086C64.4457 38.5534 59.6092 43.3899 53.6644 43.3899Z" fill="#004763"/>
<path d="M28.5476 21.279C25.6558 18.3343 21.8223 16.6295 17.7158 16.4528C17.6964 16.1962 17.682 15.8426 17.682 15.3586C17.682 13.376 19.1898 7.31785 20.1403 3.96502L21.1129 0.534424H9.30956L8.51889 1.80836C8.20529 2.31373 0.836304 14.3953 0.836304 32.6086C0.836304 41.5258 8.09101 48.7805 17.0082 48.7805C25.9254 48.7805 33.1801 41.5258 33.1801 32.6086C33.1801 28.3445 31.5348 24.321 28.5476 21.279ZM17.0082 43.3899C11.0634 43.3899 6.22693 38.5534 6.22693 32.6086C6.22693 19.2237 10.6521 9.31656 12.4008 5.92505H14.0354C13.2609 8.9686 12.2914 13.2079 12.2914 15.3586C12.2914 17.0653 12.4181 18.4364 13.0368 19.5809C13.5878 20.6002 14.7403 21.8143 17.1044 21.8273L17.2221 21.8302C23.0489 21.9432 27.7894 26.7783 27.7894 32.6086C27.7894 38.5534 22.953 43.3899 17.0082 43.3899Z" fill="#004763"/>
</g>
</svg>
