<svg width="31" height="28" viewBox="0 0 31 28" fill="none" xmlns="http://www.w3.org/2000/svg">
<path d="M27.8361 2.48543H25.9293V0.974282C25.9293 0.539135 25.5733 0.183105 25.1382 0.183105C24.703 0.183105 24.347 0.539135 24.347 0.974282V2.48543H16.5935V0.974282C16.5935 0.539135 16.2374 0.183105 15.8023 0.183105C15.3671 0.183105 15.0111 0.539135 15.0111 0.974282V2.48543H7.17846V0.974282C7.17846 0.539135 6.82243 0.183105 6.38728 0.183105C5.95213 0.183105 5.5961 0.539135 5.5961 0.974282V2.48543H3.76849C2.0279 2.48543 0.611694 3.9491 0.611694 5.68969V24.0845C0.611694 25.833 2.01999 27.2492 3.76849 27.2492H27.8282C29.5767 27.2492 30.985 25.833 30.985 24.0925V5.68969C30.9929 3.9491 29.5767 2.48543 27.8361 2.48543ZM29.4105 24.0845C29.4105 24.9548 28.7143 25.659 27.844 25.6669H27.8361H3.76849C2.89819 25.6669 2.19405 24.9627 2.19405 24.0925V24.0845V5.68969C2.19405 4.81149 2.89819 4.06778 3.76849 4.06778H5.5961V5.21499C5.5961 5.65013 5.95213 6.00616 6.38728 6.00616C6.82243 6.00616 7.17846 5.65013 7.17846 5.21499V4.06778H15.0111V5.21499C15.0111 5.65013 15.3671 6.00616 15.8023 6.00616C16.2374 6.00616 16.5935 5.65013 16.5935 5.21499V4.06778H24.347V5.21499C24.347 5.65013 24.703 6.00616 25.1382 6.00616C25.5733 6.00616 25.9293 5.65013 25.9293 5.21499V4.06778H27.8361C28.7143 4.06778 29.4105 4.8194 29.4105 5.68969V24.0845Z" fill="#004763"/>
<path d="M13.7215 9.21045H12.337C11.9018 9.21045 11.5458 9.56648 11.5458 10.0016C11.5458 10.4368 11.9018 10.7928 12.337 10.7928H13.7215C14.1567 10.7928 14.5127 10.4368 14.5127 10.0016C14.5127 9.56648 14.1567 9.21045 13.7215 9.21045Z" fill="#004763"/>
<path d="M19.2281 9.21045H17.8435C17.4084 9.21045 17.0524 9.56648 17.0524 10.0016C17.0524 10.4368 17.4084 10.7928 17.8435 10.7928H19.2281C19.6632 10.7928 20.0193 10.4368 20.0193 10.0016C20.0193 9.56648 19.6712 9.21045 19.2281 9.21045Z" fill="#004763"/>
<path d="M24.7822 9.21045H23.3976C22.9625 9.21045 22.6064 9.56648 22.6064 10.0016C22.6064 10.4368 22.9625 10.7928 23.3976 10.7928H24.7822C25.2173 10.7928 25.5734 10.4368 25.5734 10.0016C25.5734 9.56648 25.2173 9.21045 24.7822 9.21045Z" fill="#004763"/>
<path d="M13.7215 14.6696H12.337C11.9018 14.6696 11.5458 15.0256 11.5458 15.4607C11.5458 15.8959 11.9018 16.2519 12.337 16.2519H13.7215C14.1567 16.2519 14.5127 15.8959 14.5127 15.4607C14.5127 15.0256 14.1567 14.6696 13.7215 14.6696Z" fill="#004763"/>
<path d="M8.17547 14.6696H6.783C6.34785 14.6696 5.99182 15.0256 5.99182 15.4607C5.99182 15.8959 6.34785 16.2519 6.783 16.2519H8.16756C8.6027 16.2519 8.95873 15.8959 8.95873 15.4607C8.95873 15.0256 8.61061 14.6696 8.17547 14.6696Z" fill="#004763"/>
<path d="M19.2281 14.6696H17.8435C17.4084 14.6696 17.0524 15.0256 17.0524 15.4607C17.0524 15.8959 17.4084 16.2519 17.8435 16.2519H19.2281C19.6632 16.2519 20.0193 15.8959 20.0193 15.4607C20.0193 15.0256 19.6712 14.6696 19.2281 14.6696Z" fill="#004763"/>
<path d="M24.7822 14.6696H23.3976C22.9625 14.6696 22.6064 15.0256 22.6064 15.4607C22.6064 15.8959 22.9625 16.2519 23.3976 16.2519H24.7822C25.2173 16.2519 25.5734 15.8959 25.5734 15.4607C25.5734 15.0256 25.2173 14.6696 24.7822 14.6696Z" fill="#004763"/>
<path d="M13.7215 20.0496H12.337C11.9018 20.0496 11.5458 20.4056 11.5458 20.8407C11.5458 21.2759 11.9018 21.6319 12.337 21.6319H13.7215C14.1567 21.6319 14.5127 21.2759 14.5127 20.8407C14.5127 20.4056 14.1567 20.0496 13.7215 20.0496Z" fill="#004763"/>
<path d="M8.17547 20.0496H6.783C6.34785 20.0496 5.99182 20.4056 5.99182 20.8407C5.99182 21.2759 6.34785 21.6319 6.783 21.6319H8.16756C8.6027 21.6319 8.95873 21.2759 8.95873 20.8407C8.95873 20.4056 8.61061 20.0496 8.17547 20.0496Z" fill="#004763"/>
<path d="M19.2281 20.0496H17.8435C17.4084 20.0496 17.0524 20.4056 17.0524 20.8407C17.0524 21.2759 17.4084 21.6319 17.8435 21.6319H19.2281C19.6632 21.6319 20.0193 21.2759 20.0193 20.8407C20.0193 20.4056 19.6712 20.0496 19.2281 20.0496Z" fill="#004763"/>
</svg>
