<svg width="32" height="29" viewBox="0 0 32 29" fill="none" xmlns="http://www.w3.org/2000/svg">
<path d="M28.2511 0.249512H3.82567C2.01893 0.249512 0.549072 1.71943 0.549072 3.52611V16.9303V19.0154C0.549072 20.8221 2.01893 22.292 3.82567 22.292H11.7373L10.7841 27.058H7.698C7.36898 27.058 7.10227 27.3247 7.10227 27.6537C7.10227 27.9827 7.36898 28.2494 7.698 28.2494H24.3788C24.7078 28.2494 24.9745 27.9827 24.9745 27.6537C24.9745 27.3247 24.7078 27.058 24.3788 27.058H21.2927L20.3395 22.292H28.2511C30.0578 22.292 31.5277 20.8222 31.5277 19.0154V16.9303V3.52611C31.5277 1.71943 30.0579 0.249512 28.2511 0.249512ZM11.9991 27.058L12.9523 22.292H19.1245L20.0777 27.058H11.9991ZM30.3363 19.0154C30.3363 20.1652 29.4009 21.1006 28.2511 21.1006H3.82567C2.67595 21.1006 1.74054 20.1652 1.74054 19.0154V17.5261H30.3362V19.0154H30.3363ZM30.3363 16.3346H1.74054V15.1432H5.31501C5.64403 15.1432 5.91074 14.8765 5.91074 14.5474C5.91074 14.2184 5.64403 13.9517 5.31501 13.9517H1.74054V3.52611C1.74054 2.37639 2.67589 1.44098 3.82567 1.44098H28.2511C29.4009 1.44098 30.3363 2.37633 30.3363 3.52611V16.3346Z" fill="#004763"/>
<path d="M16.0384 18.1218C15.3814 18.1218 14.8469 18.6563 14.8469 19.3133C14.8469 19.9703 15.3814 20.5048 16.0384 20.5048C16.6954 20.5048 17.2299 19.9703 17.2299 19.3133C17.2299 18.6563 16.6954 18.1218 16.0384 18.1218Z" fill="#004763"/>
<path d="M20.9157 11.6589L19.6519 10.3951L20.7051 9.34205C20.8582 9.18891 20.9162 8.96474 20.8565 8.75654C20.7968 8.5484 20.6288 8.38903 20.4178 8.34026L14.9414 7.07649C14.7413 7.03045 14.5315 7.09047 14.3862 7.23574C14.241 7.38101 14.1808 7.59078 14.2269 7.791L15.4908 13.2673C15.5395 13.4782 15.6989 13.6463 15.9071 13.706C16.1154 13.7656 16.3394 13.7077 16.4926 13.5546L17.5457 12.5014L18.8095 13.7652C18.9258 13.8816 19.0783 13.9397 19.2307 13.9397C19.3831 13.9397 19.5357 13.8816 19.6519 13.7652L20.9157 12.5014C21.1483 12.2688 21.1483 11.8916 20.9157 11.6589ZM19.2307 12.5014L17.9669 11.2377C17.8506 11.1213 17.6981 11.0632 17.5457 11.0632C17.3933 11.0632 17.2407 11.1213 17.1245 11.2377L16.4101 11.9521L15.6024 8.45189L19.1026 9.25958L18.3882 9.9739C18.1555 10.2065 18.1555 10.5838 18.3882 10.8164L19.6519 12.0802L19.2307 12.5014Z" fill="#004763"/>
<path d="M13.5861 5.59309L12.9904 4.99736C12.7578 4.76472 12.3805 4.76472 12.1479 4.99736C11.9152 5.23 11.9152 5.60719 12.1479 5.83989L12.7437 6.43562C12.86 6.55198 13.0125 6.61012 13.1649 6.61012C13.3173 6.61012 13.4698 6.55198 13.5861 6.43562C13.8188 6.20304 13.8188 5.82579 13.5861 5.59309Z" fill="#004763"/>
<path d="M12.4245 7.20581H11.5821C11.253 7.20581 10.9863 7.47252 10.9863 7.80154C10.9863 8.13057 11.253 8.39728 11.5821 8.39728H12.4245C12.7536 8.39728 13.0203 8.13057 13.0203 7.80154C13.0203 7.47252 12.7536 7.20581 12.4245 7.20581Z" fill="#004763"/>
<path d="M14.9522 3.83582C14.6232 3.83582 14.3564 4.10252 14.3564 4.43155V5.27402C14.3564 5.60305 14.6232 5.86976 14.9522 5.86976C15.2812 5.86976 15.5479 5.60305 15.5479 5.27402V4.43155C15.5479 4.10252 15.2812 3.83582 14.9522 3.83582Z" fill="#004763"/>
<path d="M7.6859 14.4312C7.67876 14.3931 7.66684 14.3556 7.65195 14.3192C7.63707 14.2835 7.61861 14.2489 7.59713 14.2167C7.57572 14.1839 7.55067 14.1536 7.52326 14.1262C7.49585 14.0988 7.46548 14.0738 7.43268 14.0523C7.40049 14.0309 7.36594 14.0123 7.32964 13.9975C7.29388 13.9826 7.25637 13.9707 7.21825 13.9635C7.14141 13.948 7.06275 13.948 6.98591 13.9635C6.94779 13.9707 6.91028 13.9826 6.87452 13.9975C6.83816 14.0123 6.80361 14.0308 6.77148 14.0523C6.73869 14.0737 6.70831 14.0988 6.68091 14.1262C6.6535 14.1536 6.62851 14.1839 6.60703 14.2167C6.58561 14.2489 6.5671 14.2835 6.55221 14.3192C6.53733 14.3556 6.52541 14.3931 6.51827 14.4312C6.51052 14.4693 6.50635 14.5087 6.50635 14.5474C6.50635 14.5861 6.51052 14.6254 6.51827 14.6636C6.52541 14.7017 6.53733 14.7392 6.55221 14.775C6.5671 14.8113 6.58555 14.8459 6.60703 14.878C6.62845 14.9108 6.6535 14.9412 6.68091 14.9686C6.70831 14.996 6.73869 15.021 6.77148 15.0425C6.80367 15.0639 6.83822 15.0824 6.87452 15.0973C6.91028 15.1122 6.94779 15.1241 6.98591 15.1318C7.02403 15.1396 7.06336 15.1431 7.10208 15.1431C7.1408 15.1431 7.18013 15.1396 7.21825 15.1318C7.25637 15.1241 7.29388 15.1122 7.32964 15.0973C7.36601 15.0824 7.40055 15.0639 7.43268 15.0425C7.46548 15.021 7.49585 14.996 7.52326 14.9686C7.55067 14.9412 7.57566 14.9108 7.59713 14.878C7.61855 14.8458 7.63707 14.8113 7.65195 14.775C7.66684 14.7392 7.67876 14.7017 7.6859 14.6636C7.69364 14.6254 7.69782 14.5861 7.69782 14.5474C7.69782 14.5087 7.69364 14.4693 7.6859 14.4312Z" fill="#004763"/>
</svg>
