<svg width="251" height="166" viewBox="0 0 251 166" fill="none" xmlns="http://www.w3.org/2000/svg">
<g clip-path="url(#clip0)">
<path d="M11.0463 143.874C14.9865 149.642 18.9792 155.47 24.5422 160.365C27.4809 162.987 30.9307 165.235 34.7659 167.026H222.826C231.878 162.68 239.722 156.964 244.819 149.761C252.754 138.546 252.61 123.393 241.658 113.834C230.067 103.717 208.948 101.119 200.972 89.0752C195.597 80.9591 198.117 71.1016 201.885 62.4563C205.652 53.8111 210.622 45.089 209.791 35.9846C209.425 31.9743 207.931 28.0753 205.414 24.5628C202.896 21.0502 199.417 18.0096 195.222 15.6556C191.027 13.3016 186.218 11.6915 181.135 10.939C176.051 10.1865 170.817 10.3099 165.802 11.3005C155.304 13.3738 146.654 19.0292 138.794 24.8194C130.935 30.6096 123.25 36.822 113.502 40.4902C103.754 44.1583 91.1967 44.7381 82.7379 39.4825C77.0841 35.9698 73.3546 30.0585 66.2821 28.8575C58.4521 27.5278 51.4233 32.8148 47.1345 38.075C41.0422 45.6439 37.0137 54.1034 35.298 62.9303C33.5824 71.7571 34.2162 80.7636 37.1602 89.3925C38.919 94.4293 41.4814 99.3651 41.8967 104.574C42.3121 109.783 40.0358 115.548 34.2647 118.219C26.7876 121.68 15.884 119.027 9.52046 123.64C6.0873 126.129 5.10653 130.154 5.85892 133.755C6.6113 137.355 8.84511 140.651 11.0463 143.874Z" fill="#1D7FC1" fill-opacity="0.1"/>
<path d="M91.4746 86.3431H76.1388L81.6525 80.8303H96.9883L91.4746 86.3431ZM78.9695 85.1713H90.9895L94.158 82.002H82.1378L78.9695 85.1713Z" fill="white"/>
<path d="M94.4802 55.479H79.1444L73.4485 49.7826H88.783L94.4802 55.479ZM79.6298 54.3072H91.6495L88.2977 50.9545H76.2782L79.6298 54.3072Z" fill="white"/>
<path d="M37.8912 86.3431H22.5554L17.0416 80.8303H32.3775L37.8912 86.3431ZM23.0408 85.1713H35.0605L31.892 82.002H19.8723L23.0408 85.1713Z" fill="white"/>
<path d="M101.409 76.4085H86.0735L93.074 69.4087L83.5662 59.9012H98.9013L108.409 69.4087L101.409 76.4085ZM88.9041 75.2366H100.924L106.752 69.4087L98.4157 61.0727H86.3968L94.7313 69.4087L88.9041 75.2366Z" fill="white"/>
<path d="M27.9558 76.4085H12.6207L5.62085 69.4086L35.3642 39.6646H50.7L20.9554 69.4086L27.9558 76.4085ZM13.1061 75.2366H25.1251L19.2978 69.4086L47.8693 40.8364H35.8496L7.2782 69.4086L13.1061 75.2366Z" fill="white"/>
<path d="M57.015 120.803L29.8824 93.6715H45.2175L57.015 105.469L68.812 93.6715H84.1478L57.015 120.803ZM32.7135 94.8428L57.0154 119.146L81.3173 94.8428H69.2972L57.015 107.125L44.732 94.8428H32.7135Z" fill="white"/>
<path d="M74.244 35.2428H39.786L57.015 18.0145L74.244 35.2428ZM42.6171 34.0709H71.4137L57.015 19.6718L42.6171 34.0709Z" fill="white"/>
<path d="M84.3622 45.3609H69.0263L63.3308 39.6646H78.6654L84.3622 45.3609ZM69.5119 44.1891H81.5316L78.1795 40.8364H66.1599L69.5119 44.1891Z" fill="white"/>
<path d="M250.061 51.5021C250.05 51.4743 250.038 51.4467 250.027 51.4192C250.019 51.3992 250.01 51.3802 250.002 51.36C249.994 51.3399 249.985 51.3193 249.976 51.2992C249.707 50.5943 249.218 49.9946 248.582 49.5885L248.413 49.4907L227.833 37.6039L207.253 25.7179L207.083 25.6201C206.832 25.4579 206.542 25.3652 206.243 25.3516C205.944 25.338 205.646 25.4039 205.381 25.5427C205.367 25.5492 205.354 25.5569 205.34 25.5638C205.326 25.5708 205.313 25.5783 205.3 25.5864L202.582 27.1533L204.149 27.8178L198.714 56.6328C198.588 57.4124 198.69 58.2119 199.009 58.9342C199.017 58.9552 199.026 58.9755 199.035 58.9965C199.043 59.0159 199.051 59.0355 199.06 59.0546C199.329 59.7598 199.818 60.3598 200.455 60.7659L241.501 84.4732L241.123 86.2809L243.697 84.7902C243.71 84.7824 243.724 84.7759 243.737 84.7678C244.013 84.6049 244.248 84.3814 244.425 84.1144C244.601 83.8473 244.715 83.5436 244.758 83.2261L250.323 53.721C250.445 52.9714 250.354 52.2026 250.061 51.5021Z" fill="white"/>
<g opacity="0.5">
<path opacity="0.5" d="M239.283 86.2783L197.785 62.3099C197.117 61.8229 196.603 61.1556 196.301 60.3862C196 59.6169 195.925 58.7776 196.084 57.9668L201.57 28.8824C201.885 27.2086 203.159 26.4392 204.414 27.164L245.912 51.1321C246.58 51.619 247.095 52.2864 247.396 53.0558C247.697 53.8251 247.772 54.6645 247.613 55.4752L242.128 84.5596C241.812 86.2338 240.538 87.0032 239.283 86.2783Z" fill="url(#paint0_linear)"/>
<path d="M245.743 51.0345L225.163 39.1482L218.714 73.3384L239.113 86.1805C239.387 86.3736 239.707 86.4905 240.041 86.5192C240.374 86.5479 240.71 86.4874 241.012 86.3439C241.315 86.2004 241.574 85.979 241.763 85.7025C241.952 85.426 242.063 85.1042 242.087 84.7701L247.652 55.265C247.773 54.451 247.657 53.6194 247.319 52.8694C246.98 52.1194 246.433 51.4824 245.743 51.0345Z" fill="url(#paint1_linear)"/>
<path d="M204.583 27.262L225.163 39.1484L218.755 73.1243L197.954 62.408C197.264 61.9601 196.716 61.3231 196.378 60.5729C196.039 59.8228 195.924 58.9911 196.044 58.177L201.609 28.6719C201.633 28.3379 201.745 28.0162 201.934 27.7397C202.123 27.4633 202.382 27.242 202.684 27.0985C202.987 26.9551 203.322 26.8946 203.656 26.9233C203.989 26.9521 204.309 27.069 204.583 27.262Z" fill="url(#paint2_linear)"/>
<path d="M196.305 60.396C196.619 61.2294 197.198 61.9363 197.954 62.4079L239.113 86.1805C239.408 86.3776 239.75 86.491 240.104 86.5087C240.458 86.5264 240.81 86.4476 241.122 86.2808L222.681 52.3046L196.305 60.396Z" fill="url(#paint3_linear)"/>
<g filter="url(#filter0_d)">
<path d="M247.391 53.0463C247.077 52.213 246.498 51.506 245.743 51.0345L204.583 27.2618C204.289 27.0648 203.946 26.9513 203.593 26.9336C203.239 26.916 202.887 26.9947 202.574 27.1615L221.015 61.1377L247.391 53.0463Z" fill="url(#paint4_linear)"/>
</g>
</g>
<path d="M57.8202 76.5214L57.8207 76.5205C57.8487 76.4504 57.8774 76.3806 57.9068 76.311C57.9264 76.2606 57.948 76.2117 57.9682 76.1616C57.9907 76.1105 58.0114 76.0587 58.0345 76.0079C58.7149 74.2272 59.9494 72.7122 61.5561 71.6863L61.9839 71.4392L113.973 41.4122L165.961 11.3853L166.389 11.1381C167.025 10.7282 167.757 10.4942 168.513 10.4598C169.268 10.4255 170.019 10.5921 170.689 10.9426C170.725 10.959 170.758 10.9786 170.793 10.996C170.827 11.0156 170.861 11.0326 170.895 11.0533L177.759 15.0111L173.802 16.69L187.531 89.483C187.85 91.4523 187.591 93.4718 186.785 95.2966C186.764 95.3495 186.742 95.4008 186.72 95.4533C186.699 95.5021 186.679 95.5514 186.657 95.5999C185.977 97.3812 184.742 98.8969 183.135 99.9232L79.4442 159.812L80.3992 164.379L73.8975 160.614C73.8639 160.594 73.8293 160.577 73.7962 160.557C73.0997 160.145 72.5057 159.581 72.0591 158.906C71.6124 158.232 71.3249 157.464 71.218 156.662L57.1598 82.1266C56.8504 80.2332 57.0792 78.291 57.8202 76.5214Z" fill="white"/>
<path d="M85.0463 164.373L189.88 103.824C193.05 101.993 194.973 97.0813 194.175 92.8529L180.318 19.3802C179.52 15.1517 176.304 13.2083 173.133 15.0392L68.3002 75.5876C65.13 77.4187 63.2067 82.3308 64.0043 86.5592L77.8622 160.032C78.6597 164.26 81.8761 166.204 85.0463 164.373Z" fill="url(#paint5_linear)"/>
<path d="M68.7278 75.3404L120.716 45.3134L137.007 131.684L85.4739 164.125C82.0673 166.093 78.704 164.498 77.9618 160.563L63.9036 86.0276C63.1614 82.0927 65.3213 77.3079 68.7278 75.3404Z" fill="url(#paint6_linear)"/>
<path d="M172.705 15.2864L120.716 45.3134L136.905 131.142L189.451 104.071C192.857 102.104 195.017 97.319 194.275 93.384L180.217 18.8488C179.475 14.9138 176.111 13.319 172.705 15.2864Z" fill="url(#paint7_linear)"/>
<path d="M193.615 98.9891C192.822 101.094 191.359 102.88 189.451 104.071L85.4738 164.125C84.7302 164.623 83.8653 164.91 82.9716 164.954C82.0778 164.999 81.1887 164.8 80.3992 164.379L126.985 78.5487L193.615 98.9891Z" fill="url(#paint8_linear)"/>
<g filter="url(#filter1_d)">
<path d="M64.564 80.4228C65.3564 78.3175 66.8196 76.5316 68.7278 75.3404L172.705 15.2865C173.449 14.7887 174.313 14.5022 175.207 14.4575C176.101 14.4128 176.99 14.6117 177.78 15.0329L131.194 100.863L64.564 80.4228Z" fill="url(#paint9_linear)"/>
</g>
<path d="M242.949 98.7039L241.964 97.7184L240.978 98.7039L241.964 99.6893L242.949 98.7039Z" fill="white"/>
<path d="M246.51 98.6916L245.524 97.7061L244.539 98.6916L245.524 99.6771L246.51 98.6916Z" fill="white"/>
<path d="M244.736 96.9176L243.75 95.9321L242.765 96.9176L243.75 97.9031L244.736 96.9176Z" fill="white"/>
<path d="M244.723 100.478L243.738 99.4923L242.752 100.478L243.738 101.463L244.723 100.478Z" fill="white"/>
<path d="M223.459 129.106H208.654V131.506H223.459V129.106Z" fill="white"/>
<path d="M241.672 129.106H226.867V131.506H241.672V129.106Z" fill="white"/>
<path d="M221.59 137.543H208.606V134.4H221.59V137.543ZM209.351 136.799H220.846V135.144H209.351L209.351 136.799Z" fill="white"/>
<path d="M212.663 140.303H208.654V142.703H212.663V140.303Z" fill="white"/>
</g>
<path opacity="0.31" d="M58.3799 30.8225C58.3799 32.0969 58.002 33.3427 57.294 34.4023C56.586 35.4619 55.5797 36.2877 54.4023 36.7754C53.2249 37.2631 51.9294 37.3907 50.6795 37.1421C49.4296 36.8935 48.2815 36.2798 47.3804 35.3787C46.4793 34.4776 45.8656 33.3295 45.617 32.0796C45.3684 30.8297 45.496 29.5341 45.9836 28.3568C46.4713 27.1794 47.2972 26.1731 48.3568 25.4651C49.4164 24.757 50.6622 24.3792 51.9365 24.3792C53.6454 24.3792 55.2843 25.058 56.4927 26.2664C57.7011 27.4747 58.3799 29.1136 58.3799 30.8225Z" fill="#00B4FF"/>
<path opacity="0.31" d="M191.198 11.9234C194.323 11.9234 196.856 9.39008 196.856 6.26501C196.856 3.13994 194.323 0.606567 191.198 0.606567C188.073 0.606567 185.539 3.13994 185.539 6.26501C185.539 9.39008 188.073 11.9234 191.198 11.9234Z" fill="#00B4FF"/>
<path opacity="0.31" d="M8.14372 110.722C8.14372 111.484 7.91788 112.228 7.49477 112.862C7.07165 113.495 6.47026 113.988 5.76664 114.28C5.06302 114.571 4.28878 114.648 3.54183 114.499C2.79487 114.35 2.10875 113.984 1.57022 113.445C1.03169 112.907 0.664953 112.22 0.516374 111.473C0.367795 110.727 0.444051 109.952 0.735499 109.249C1.02695 108.545 1.5205 107.944 2.15374 107.521C2.78698 107.097 3.53146 106.872 4.29305 106.872C5.31431 106.872 6.29375 107.277 7.01589 107.999C7.73803 108.722 8.14372 109.701 8.14372 110.722Z" fill="#00B4FF"/>
<defs>
<filter id="filter0_d" x="192.574" y="20.9312" width="64.817" height="54.2065" filterUnits="userSpaceOnUse" color-interpolation-filters="sRGB">
<feFlood flood-opacity="0" result="BackgroundImageFix"/>
<feColorMatrix in="SourceAlpha" type="matrix" values="0 0 0 0 0 0 0 0 0 0 0 0 0 0 0 0 0 0 127 0"/>
<feOffset dy="4"/>
<feGaussianBlur stdDeviation="5"/>
<feColorMatrix type="matrix" values="0 0 0 0 0 0 0 0 0 0 0 0 0 0 0 0 0 0 0.69 0"/>
<feBlend mode="normal" in2="BackgroundImageFix" result="effect1_dropShadow"/>
<feBlend mode="normal" in="SourceGraphic" in2="effect1_dropShadow" result="shape"/>
</filter>
<filter id="filter1_d" x="45.564" y="-0.54866" width="151.216" height="124.412" filterUnits="userSpaceOnUse" color-interpolation-filters="sRGB">
<feFlood flood-opacity="0" result="BackgroundImageFix"/>
<feColorMatrix in="SourceAlpha" type="matrix" values="0 0 0 0 0 0 0 0 0 0 0 0 0 0 0 0 0 0 127 0"/>
<feOffset dy="4"/>
<feGaussianBlur stdDeviation="9.5"/>
<feColorMatrix type="matrix" values="0 0 0 0 0 0 0 0 0 0 0 0 0 0 0 0 0 0 0.25 0"/>
<feBlend mode="normal" in2="BackgroundImageFix" result="effect1_dropShadow"/>
<feBlend mode="normal" in="SourceGraphic" in2="effect1_dropShadow" result="shape"/>
</filter>
<linearGradient id="paint0_linear" x1="198.827" y1="43.4239" x2="248.133" y2="52.7246" gradientUnits="userSpaceOnUse">
<stop stop-color="#7BDAFF"/>
<stop offset="1" stop-color="#59BDEF"/>
</linearGradient>
<linearGradient id="paint1_linear" x1="249.454" y1="108.837" x2="224.481" y2="61.6765" gradientUnits="userSpaceOnUse">
<stop offset="0.7677" stop-color="#59BDEF"/>
<stop offset="0.8452" stop-color="#55B8EB"/>
<stop offset="0.9318" stop-color="#49ABE1"/>
<stop offset="1" stop-color="#3A9BD5"/>
</linearGradient>
<linearGradient id="paint2_linear" x1="-45027.5" y1="83677.9" x2="-43384.2" y2="83266.5" gradientUnits="userSpaceOnUse">
<stop offset="0.7677" stop-color="#59BDEF"/>
<stop offset="0.8452" stop-color="#55B8EB"/>
<stop offset="0.9318" stop-color="#49ABE1"/>
<stop offset="1" stop-color="#3A9BD5"/>
</linearGradient>
<linearGradient id="paint3_linear" x1="211.952" y1="109.187" x2="236.816" y2="66.1395" gradientUnits="userSpaceOnUse">
<stop offset="0.7677" stop-color="#3A9BD5"/>
<stop offset="0.8386" stop-color="#3896D2"/>
<stop offset="0.9179" stop-color="#3189C9"/>
<stop offset="1" stop-color="#2573BA"/>
</linearGradient>
<linearGradient id="paint4_linear" x1="-359325" y1="69102.6" x2="-356805" y2="70852.7" gradientUnits="userSpaceOnUse">
<stop stop-color="#7BDAFF"/>
<stop offset="1" stop-color="#59BDEF"/>
</linearGradient>
<linearGradient id="paint5_linear" x1="178738" y1="-203122" x2="157872" y2="-199186" gradientUnits="userSpaceOnUse">
<stop stop-color="#7BDAFF"/>
<stop offset="1" stop-color="#59BDEF"/>
</linearGradient>
<linearGradient id="paint6_linear" x1="84813.1" y1="-114080" x2="95269.7" y2="-124152" gradientUnits="userSpaceOnUse">
<stop offset="0.7677" stop-color="#59BDEF"/>
<stop offset="0.8452" stop-color="#55B8EB"/>
<stop offset="0.9318" stop-color="#49ABE1"/>
<stop offset="1" stop-color="#3A9BD5"/>
</linearGradient>
<linearGradient id="paint7_linear" x1="-288843" y1="103329" x2="-299331" y2="100701" gradientUnits="userSpaceOnUse">
<stop offset="0.7677" stop-color="#59BDEF"/>
<stop offset="0.8452" stop-color="#55B8EB"/>
<stop offset="0.9318" stop-color="#49ABE1"/>
<stop offset="1" stop-color="#3A9BD5"/>
</linearGradient>
<linearGradient id="paint8_linear" x1="154253" y1="-129697" x2="147287" y2="-141757" gradientUnits="userSpaceOnUse">
<stop offset="0.7677" stop-color="#3A9BD5"/>
<stop offset="0.8386" stop-color="#3896D2"/>
<stop offset="0.9179" stop-color="#3189C9"/>
<stop offset="1" stop-color="#2573BA"/>
</linearGradient>
<linearGradient id="paint9_linear" x1="155806" y1="-154725" x2="141253" y2="-139964" gradientUnits="userSpaceOnUse">
<stop stop-color="#7BDAFF"/>
<stop offset="1" stop-color="#59BDEF"/>
</linearGradient>
<clipPath id="clip0">
<rect width="244.759" height="154.608" fill="white" transform="translate(5.62085 10.4535)"/>
</clipPath>
</defs>
</svg>
