<svg width="37" height="36" viewBox="0 0 37 36" fill="none" xmlns="http://www.w3.org/2000/svg">
<rect opacity="0.1" x="0.511719" y="0.42041" width="35.4965" height="35.4965" rx="4" fill="#004763"/>
<path d="M18 28C15.3289 28 12.8177 26.9598 10.9289 25.0711C9.0402 23.1823 8 20.6711 8 18C8 15.3289 9.0402 12.8177 10.9289 10.9289C12.8177 9.0402 15.3289 8 18 8C20.6711 8 23.1823 9.0402 25.0711 10.9289C26.9598 12.8177 28 15.3289 28 18C28 20.6711 26.9598 23.1823 25.0711 25.0711C23.1823 26.9598 20.6711 28 18 28ZM18 9.17188C15.6419 9.17188 13.425 10.0902 11.7576 11.7576C10.0902 13.425 9.17188 15.6419 9.17188 18C9.17188 20.3581 10.0902 22.575 11.7576 24.2424C13.425 25.9098 15.6419 26.8281 18 26.8281C20.3581 26.8281 22.575 25.9098 24.2424 24.2424C25.9098 22.575 26.8281 20.3581 26.8281 18C26.8281 15.6419 25.9098 13.425 24.2424 11.7576C22.575 10.0902 20.3581 9.17188 18 9.17188Z" fill="#004763"/>
<path d="M17.4141 10.3451H18.5859V11.9088H17.4141V10.3451Z" fill="#004763"/>
<path d="M21.8906 13.2797L22.9962 12.1741L23.8247 13.0026L22.7191 14.1082L21.8906 13.2797Z" fill="#004763"/>
<path d="M24.0908 17.4141H25.6546V18.5859H24.0908V17.4141Z" fill="#004763"/>
<path d="M21.8896 22.7213L22.7182 21.8928L23.8237 22.9984L22.9952 23.8269L21.8896 22.7213Z" fill="#004763"/>
<path d="M17.4141 24.0911H18.5859V25.6548H17.4141V24.0911Z" fill="#004763"/>
<path d="M12.1709 22.9974L13.2765 21.8919L14.105 22.7204L12.9994 23.826L12.1709 22.9974Z" fill="#004763"/>
<path d="M10.3447 17.4141H11.9085V18.5859H10.3447V17.4141Z" fill="#004763"/>
<path d="M12.1719 13.0015L13.0004 12.1729L14.106 13.2785L13.2774 14.107L12.1719 13.0015Z" fill="#004763"/>
<path d="M22.1364 18.5859H17.4141V13.8635H18.5859V17.414H22.1364V18.5859Z" fill="#004763"/>
</svg>
