<svg width="32" height="32" viewBox="0 0 32 32" fill="none" xmlns="http://www.w3.org/2000/svg">
<path d="M30.3552 4.8893L30.3553 4.88939C30.9132 5.44871 30.9123 6.35475 30.3525 6.91275C30.3525 6.91277 30.3524 6.9128 30.3524 6.91283L15.9555 21.272L15.9554 21.2721C15.6873 21.5392 15.3236 21.6894 14.9454 21.6894H14.9442L30.3552 4.8893ZM30.3552 4.8893C29.7969 4.33012 28.8909 4.32883 28.3321 4.88716L14.9893 18.1947L10.3069 13.1092L10.3069 13.1091C9.77178 12.5283 8.86718 12.4907 8.28553 13.0256L8.28543 13.0257C7.70401 13.5608 7.66689 14.466 8.20189 15.0472L8.20193 15.0473L13.8928 21.2277C14.156 21.5137 14.524 21.6801 14.9122 21.6889L30.3552 4.8893Z" fill="#CAF55F" stroke="#CAF55F" stroke-width="0.6"/>
<path d="M29.8693 14.5693C29.0791 14.5693 28.4387 15.2098 28.4387 16C28.4387 22.8587 22.8587 28.4387 16 28.4387C9.1417 28.4387 3.56131 22.8587 3.56131 16C3.56131 9.1417 9.1417 3.56131 16 3.56131C16.7902 3.56131 17.4307 2.92088 17.4307 2.13068C17.4307 1.34044 16.7902 0.7 16 0.7C7.56322 0.7 0.7 7.56322 0.7 16C0.7 24.4364 7.56322 31.3 16 31.3C24.4364 31.3 31.3 24.4364 31.3 16C31.3 15.2098 30.6596 14.5693 29.8693 14.5693Z" fill="#CAF55F" stroke="#CAF55F" stroke-width="0.6"/>
</svg>
