<svg width="223" height="152" viewBox="0 0 223 152" fill="none" xmlns="http://www.w3.org/2000/svg">
<g clip-path="url(#clip0)">
<g opacity="0.41">
<path opacity="0.41" d="M214.133 108.245C214.702 97.1879 212.349 86.176 207.31 76.3176C202.271 66.4592 194.724 58.1022 185.428 52.0879C183.774 51.0096 182.379 49.5775 181.345 47.8949C180.311 46.2122 179.663 44.321 179.449 42.3577C179.425 42.1427 179.4 41.9274 179.373 41.7118C176.088 15.3947 151.491 -3.09306 125.293 0.471887C100.232 3.88178 82.1919 17.1241 84.8571 42.626C84.8698 42.7459 84.8833 42.9204 84.8981 43.1414C85.0036 44.7843 84.775 46.4316 84.2259 47.9837C83.6768 49.5358 82.8188 50.9604 81.7036 52.1715C80.5884 53.3826 79.2392 54.355 77.7376 55.03C76.236 55.7049 74.6131 56.0684 72.967 56.0985C71.5112 56.1329 70.0461 56.2268 68.5716 56.3801C58.1408 57.4961 48.2535 61.5983 40.0964 68.1944C31.9392 74.7906 25.8587 83.6004 22.5846 93.5667C19.3104 103.533 18.9816 114.232 21.6377 124.381C24.2939 134.53 29.822 143.696 37.5588 150.781H193.405C205.252 139.444 213.44 123.716 214.133 108.245Z" fill="#00B4FF"/>
</g>
<path opacity="0.31" d="M58.8697 35.2639C58.8697 36.5382 58.4918 37.784 57.7838 38.8436C57.0757 39.9032 56.0694 40.7291 54.8921 41.2168C53.7147 41.7044 52.4191 41.832 51.1692 41.5834C49.9194 41.3348 48.7713 40.7211 47.8701 39.82C46.969 38.9189 46.3553 37.7708 46.1067 36.5209C45.8581 35.271 45.9857 33.9755 46.4734 32.7981C46.9611 31.6207 47.7869 30.6144 48.8465 29.9064C49.9061 29.1984 51.1519 28.8205 52.4263 28.8205C54.1352 28.8205 55.7741 29.4993 56.9824 30.7077C58.1908 31.9161 58.8697 33.555 58.8697 35.2639Z" fill="#00B4FF"/>
<path opacity="0.31" d="M191.687 16.3647C194.813 16.3647 197.346 13.8313 197.346 10.7062C197.346 7.58116 194.813 5.04779 191.687 5.04779C188.562 5.04779 186.029 7.58116 186.029 10.7062C186.029 13.8313 188.562 16.3647 191.687 16.3647Z" fill="#00B4FF"/>
<path opacity="0.31" d="M222.08 65.8558C222.08 66.6175 221.854 67.362 221.431 67.9953C221.008 68.6285 220.407 69.1221 219.703 69.4136C218.999 69.7051 218.225 69.7813 217.478 69.6328C216.731 69.4842 216.045 69.1174 215.506 68.5789C214.968 68.0403 214.601 67.3542 214.452 66.6072C214.304 65.8602 214.38 65.0859 214.672 64.3823C214.963 63.6786 215.457 63.0772 216.09 62.6541C216.723 62.231 217.468 62.0051 218.229 62.0052C219.251 62.0052 220.23 62.4109 220.952 63.133C221.674 63.8552 222.08 64.8346 222.08 65.8558Z" fill="#00B4FF"/>
<path opacity="0.31" d="M8.63347 115.164C8.63347 115.925 8.40763 116.67 7.98451 117.303C7.5614 117.936 6.96 118.43 6.25639 118.721C5.55277 119.013 4.77853 119.089 4.03157 118.94C3.28461 118.792 2.59849 118.425 2.05997 117.886C1.52144 117.348 1.1547 116.662 1.00612 115.915C0.857541 115.168 0.933797 114.394 1.22525 113.69C1.51669 112.986 2.01024 112.385 2.64348 111.962C3.27672 111.539 4.02121 111.313 4.7828 111.313C5.80406 111.313 6.78349 111.719 7.50563 112.441C8.22777 113.163 8.63347 114.142 8.63347 115.164Z" fill="#00B4FF"/>
<path opacity="0.4" d="M199.844 114.504C200.33 105.074 198.323 95.6826 194.026 87.2749C189.728 78.8671 183.291 71.7399 175.364 66.6107C173.953 65.6911 172.763 64.4697 171.881 63.0347C170.999 61.5997 170.447 59.9868 170.264 58.3124C170.243 58.1289 170.222 57.9452 170.199 57.7614C169.489 52.4196 167.732 47.2704 165.028 42.6092C162.323 37.9481 158.726 33.8666 154.441 30.5989C150.156 27.3313 145.268 24.9417 140.057 23.5672C134.847 22.1928 129.416 21.8605 124.077 22.5895C102.704 25.4978 87.3178 36.7914 89.5908 58.5413C89.6016 58.6436 89.6132 58.7925 89.6259 58.9809C89.7158 60.3821 89.5208 61.7869 89.0525 63.1105C88.5842 64.4341 87.8524 65.649 86.9013 66.6818C85.9503 67.7146 84.7997 68.5439 83.5191 69.1195C82.2385 69.6951 80.8545 70.0051 79.4507 70.0307C78.2091 70.0603 76.9596 70.1404 75.7021 70.271C66.8062 71.2228 58.3739 74.7214 51.4171 80.3469C44.4603 85.9725 39.2746 93.4859 36.4822 101.986C33.6898 110.485 33.4095 119.61 35.6747 128.266C37.94 136.921 42.6547 144.739 49.253 150.781H182.167C192.27 141.112 199.253 127.699 199.844 114.504Z" fill="#00B4FF"/>
<path d="M185.099 135.324H56.8953V49.4228C56.8953 48.7326 57.1695 48.0707 57.6575 47.5827C58.1455 47.0947 58.8074 46.8206 59.4976 46.8206H182.496C183.186 46.8206 183.848 47.0947 184.336 47.5827C184.824 48.0707 185.098 48.7326 185.098 49.4228L185.099 135.324Z" fill="#ECF1F7"/>
<path d="M185.43 135.656H56.5637V49.4231C56.5645 48.6453 56.8738 47.8995 57.4238 47.3494C57.9737 46.7993 58.7194 46.4898 59.4973 46.4888H182.496C183.274 46.4897 184.02 46.7992 184.57 47.3493C185.12 47.8994 185.429 48.6452 185.43 49.4231L185.43 135.656ZM57.2269 134.993H184.767V49.4231C184.766 48.821 184.527 48.2437 184.101 47.8179C183.675 47.3921 183.098 47.1527 182.496 47.1521H59.4973C58.8952 47.1528 58.3181 47.3923 57.8924 47.8181C57.4668 48.2439 57.2274 48.8211 57.2269 49.4231V134.993Z" fill="#243762"/>
<path d="M129.226 130.432H112.767V131.748H129.226V130.432Z" fill="#ECF1F7"/>
<path d="M129.558 132.08H112.437V130.1H129.559L129.558 132.08ZM113.099 131.417H128.895V130.763H113.099V131.417Z" fill="#243762"/>
<path d="M121.997 50.4791C122.007 50.6792 121.957 50.8777 121.854 51.0491C121.75 51.2205 121.598 51.3569 121.416 51.4406C121.234 51.5244 121.031 51.5517 120.833 51.519C120.636 51.4863 120.452 51.3951 120.307 51.2572C120.162 51.1192 120.061 50.9409 120.018 50.7453C119.975 50.5496 119.992 50.3456 120.066 50.1596C120.141 49.9736 120.269 49.8141 120.435 49.7017C120.601 49.5893 120.796 49.5293 120.997 49.5293C121.255 49.5227 121.506 49.6191 121.693 49.7972C121.881 49.9753 121.99 50.2206 121.997 50.4791Z" fill="#ECF1F7"/>
<path d="M120.997 51.7609C120.745 51.7511 120.503 51.6677 120.298 51.521C120.094 51.3742 119.937 51.1707 119.848 50.9356C119.758 50.7005 119.74 50.4443 119.795 50.1988C119.85 49.9534 119.976 49.7295 120.157 49.5551C120.338 49.3807 120.567 49.2635 120.814 49.218C121.062 49.1725 121.317 49.2007 121.549 49.2992C121.78 49.3977 121.977 49.5621 122.116 49.7719C122.255 49.9817 122.329 50.2277 122.329 50.4792C122.322 50.8257 122.177 51.1551 121.928 51.3953C121.678 51.6355 121.343 51.767 120.997 51.7609ZM120.997 49.8609C120.877 49.8705 120.762 49.9148 120.667 49.9885C120.572 50.0622 120.5 50.1621 120.46 50.2759C120.421 50.3897 120.416 50.5126 120.445 50.6294C120.474 50.7463 120.537 50.852 120.625 50.9338C120.714 51.0155 120.824 51.0698 120.943 51.0898C121.062 51.1098 121.184 51.0948 121.294 51.0466C121.405 50.9984 121.498 50.919 121.564 50.8183C121.63 50.7175 121.666 50.5997 121.666 50.4792C121.659 50.3086 121.585 50.1477 121.459 50.0318C121.334 49.9159 121.167 49.8544 120.997 49.8609Z" fill="#243762"/>
<path d="M198.679 150.864H43.1272C41.4392 150.864 40.0708 149.95 40.0708 148.822V145.605C40.0708 145.288 40.4566 145.03 40.9323 145.03H201.007C201.483 145.03 201.869 145.288 201.869 145.605V148.733C201.869 149.91 200.441 150.864 198.679 150.864Z" fill="#243762"/>
<path d="M198.679 151.196H43.1271C41.2272 151.196 39.739 150.153 39.739 148.822V145.606C39.739 145.097 40.2635 144.699 40.9325 144.699H201.008C201.677 144.699 202.2 145.097 202.2 145.606V148.734C202.2 150.114 200.653 151.196 198.679 151.196ZM40.9325 145.362C40.6036 145.362 40.4021 145.52 40.4021 145.606V148.822C40.4021 149.75 41.65 150.533 43.1271 150.533H198.679C200.229 150.533 201.537 149.709 201.537 148.734V145.606C201.537 145.52 201.336 145.362 201.008 145.362L40.9325 145.362Z" fill="#243762"/>
<path d="M176.584 53.8465H65.4101C63.837 53.8465 62.5618 55.1217 62.5618 56.6948V125.83C62.5618 127.403 63.837 128.679 65.4101 128.679H176.584C178.157 128.679 179.432 127.403 179.432 125.83V56.6948C179.432 55.1217 178.157 53.8465 176.584 53.8465Z" fill="white"/>
<path d="M176.584 128.995H65.4101C64.5712 128.994 63.7669 128.66 63.1736 128.067C62.5804 127.474 62.2466 126.669 62.2456 125.83V56.6947C62.2466 55.8557 62.5804 55.0514 63.1736 54.4582C63.7669 53.8649 64.5712 53.5312 65.4101 53.5302H176.584C177.423 53.5311 178.227 53.8648 178.82 54.4581C179.413 55.0513 179.747 55.8557 179.748 56.6947V125.83C179.747 126.669 179.413 127.474 178.82 128.067C178.227 128.66 177.423 128.994 176.584 128.995ZM65.4101 54.1624C64.7388 54.1631 64.0951 54.4302 63.6204 54.9049C63.1457 55.3796 62.8787 56.0233 62.878 56.6947V125.83C62.8787 126.502 63.1457 127.145 63.6204 127.62C64.0951 128.095 64.7388 128.362 65.4101 128.362H176.584C177.255 128.362 177.898 128.094 178.373 127.62C178.848 127.145 179.115 126.502 179.116 125.83V56.6947C179.115 56.0234 178.848 55.3798 178.373 54.9051C177.898 54.4304 177.255 54.1634 176.584 54.1626L65.4101 54.1624Z" fill="#243762"/>
<path d="M178.916 58.8575V56.8806C178.885 56.1608 178.57 55.4825 178.04 54.9944C177.511 54.5062 176.809 54.2479 176.089 54.2761H65.7682C65.0483 54.2479 64.3466 54.5062 63.8168 54.9944C63.287 55.4825 62.9723 56.1608 62.9417 56.8806V58.8646L178.916 58.8575Z" fill="#004763"/>
<path d="M169.117 56.6958C169.118 56.8261 169.079 56.9535 169.007 57.0618C168.935 57.1702 168.832 57.2547 168.711 57.3047C168.591 57.3546 168.459 57.3678 168.331 57.3425C168.203 57.3171 168.086 57.2545 167.994 57.1624C167.901 57.0704 167.839 56.9531 167.813 56.8253C167.788 56.6976 167.801 56.5651 167.851 56.4448C167.9 56.3244 167.985 56.2215 168.093 56.1491C168.201 56.0768 168.329 56.0381 168.459 56.0381C168.633 56.0381 168.801 56.1074 168.924 56.2307C169.048 56.354 169.117 56.5213 169.117 56.6958Z" fill="white"/>
<path d="M171.092 57.3541C171.456 57.3541 171.751 57.0594 171.751 56.6958C171.751 56.3322 171.456 56.0375 171.092 56.0375C170.729 56.0375 170.434 56.3322 170.434 56.6958C170.434 57.0594 170.729 57.3541 171.092 57.3541Z" fill="white"/>
<path d="M173.726 57.3541C174.089 57.3541 174.384 57.0594 174.384 56.6958C174.384 56.3322 174.089 56.0375 173.726 56.0375C173.362 56.0375 173.067 56.3322 173.067 56.6958C173.067 57.0594 173.362 57.3541 173.726 57.3541Z" fill="white"/>
<path opacity="0.1" d="M168.536 67.1067H72.5073V119.014H168.536V67.1067Z" fill="#00B4FF"/>
<path d="M57.3901 135.072L40.5684 144.957L201.008 144.888L185.513 135.113L57.3901 135.072Z" fill="#ECF1F7"/>
<path d="M40.6579 145.289H40.5679L40.5666 144.955L40.4001 144.672L57.2993 134.74H57.3894L185.609 134.782L202.154 145.218L40.6579 145.289ZM57.4797 135.403L41.7875 144.625L199.862 144.556L185.418 135.445L57.4797 135.403Z" fill="#243762"/>
<g opacity="0.26">
<path opacity="0.26" d="M78.6386 135.072L67.4565 141.643L174.119 141.597L163.817 135.099L78.6386 135.072Z" fill="#ECF1F7"/>
<path opacity="0.26" d="M66.2366 141.976L78.5495 134.74L163.914 134.768L175.265 141.928L66.2366 141.976ZM78.7297 135.403L68.6753 141.311L172.973 141.266L163.722 135.431L78.7297 135.403Z" fill="#243762"/>
</g>
<path d="M106.004 88.7349C105.74 88.7348 105.487 88.63 105.301 88.4435C105.114 88.257 105.01 88.004 105.009 87.7402C105.009 86.6849 104.59 85.6728 103.844 84.9266C103.098 84.1804 102.086 83.7612 101.03 83.7612C99.9751 83.7612 98.963 84.1804 98.2168 84.9266C97.4706 85.6728 97.0513 86.6849 97.0513 87.7402C97.0513 88.004 96.9466 88.257 96.76 88.4435C96.5735 88.6301 96.3205 88.7349 96.0567 88.7349C95.7929 88.7349 95.5399 88.6301 95.3534 88.4435C95.1669 88.257 95.0621 88.004 95.0621 87.7402C95.0585 86.9541 95.2102 86.1751 95.5085 85.4478C95.8068 84.7205 96.2459 84.0593 96.8004 83.5022C97.355 82.945 98.0142 82.5029 98.7401 82.2013C99.466 81.8996 100.244 81.7443 101.03 81.7443C101.817 81.7443 102.595 81.8996 103.321 82.2013C104.047 82.5029 104.706 82.945 105.26 83.5022C105.815 84.0593 106.254 84.7205 106.552 85.4478C106.851 86.1751 107.002 86.9541 106.999 87.7402C106.999 88.004 106.894 88.257 106.707 88.4435C106.521 88.63 106.268 88.7348 106.004 88.7349Z" fill="#243762"/>
<path d="M145.829 88.7349C145.566 88.7348 145.313 88.63 145.126 88.4435C144.94 88.257 144.835 88.004 144.835 87.7402C144.835 86.6849 144.415 85.6728 143.669 84.9266C142.923 84.1804 141.911 83.7612 140.856 83.7612C139.8 83.7612 138.788 84.1804 138.042 84.9266C137.296 85.6728 136.877 86.6849 136.877 87.7402C136.874 88.0021 136.768 88.2522 136.581 88.4364C136.395 88.6205 136.144 88.7238 135.882 88.7238C135.62 88.7238 135.369 88.6205 135.182 88.4364C134.996 88.2522 134.89 88.0021 134.887 87.7402C134.887 86.1573 135.516 84.6392 136.635 83.5199C137.755 82.4006 139.273 81.7718 140.856 81.7718C142.439 81.7718 143.957 82.4006 145.076 83.5199C146.195 84.6392 146.824 86.1573 146.824 87.7402C146.824 88.004 146.719 88.257 146.533 88.4435C146.346 88.63 146.093 88.7348 145.829 88.7349Z" fill="#243762"/>
<path d="M120.926 109.969C116.588 109.946 112.43 108.237 109.329 105.204C106.228 102.172 104.428 98.052 104.309 93.7163C104.306 93.5386 104.338 93.3621 104.403 93.197C104.469 93.0319 104.567 92.8816 104.691 92.7547C104.816 92.6279 104.964 92.5271 105.128 92.4583C105.292 92.3895 105.468 92.3539 105.645 92.3538H137.546V93.3485C137.541 97.755 135.789 101.98 132.673 105.095C129.557 108.211 125.332 109.964 120.926 109.969ZM106.328 94.3428C106.58 98.0425 108.227 101.508 110.937 104.04C113.647 106.571 117.217 107.979 120.925 107.979C124.633 107.979 128.203 106.571 130.913 104.04C133.623 101.508 135.271 98.0425 135.523 94.3428H106.328Z" fill="#243762"/>
<path d="M178.948 59.2116H89.4059C89.3139 59.2116 89.2257 59.1751 89.1607 59.11C89.0956 59.045 89.0591 58.9568 89.0591 58.8648C89.0591 58.7728 89.0956 58.6846 89.1607 58.6196C89.2257 58.5545 89.3139 58.518 89.4059 58.518H178.948C179.04 58.518 179.129 58.5545 179.194 58.6196C179.259 58.6846 179.295 58.7728 179.295 58.8648C179.295 58.9568 179.259 59.045 179.194 59.11C179.129 59.1751 179.04 59.2116 178.948 59.2116Z" fill="#243762"/>
<path d="M161.263 47.0809V35.6823C161.263 29.6095 165.735 24.6684 171.231 24.6684H179.288C184.784 24.6684 189.256 29.6095 189.256 35.6823V47.0809C189.256 53.1537 184.784 58.0941 179.288 58.0941H171.231C165.735 58.0941 161.263 53.1533 161.263 47.0809ZM171.231 29.8588C169.762 29.9374 168.383 30.5937 167.396 31.6846C166.409 32.7755 165.893 34.2125 165.961 35.6823V47.0809C165.893 48.5505 166.409 49.9874 167.396 51.0782C168.383 52.169 169.762 52.8252 171.231 52.9037H179.288C180.757 52.8252 182.135 52.169 183.123 51.0782C184.11 49.9874 184.626 48.5505 184.558 47.0809V35.6823C184.626 34.2125 184.11 32.7755 183.123 31.6846C182.136 30.5937 180.757 29.9374 179.288 29.8588H171.231Z" fill="#243762"/>
<path d="M179.287 58.4101H171.231C165.56 58.4101 160.947 53.3276 160.947 47.0807V35.6821C160.947 29.4348 165.56 24.3521 171.231 24.3521H179.287C184.959 24.3521 189.573 29.4348 189.573 35.6821V47.0807C189.573 53.3276 184.96 58.4101 179.287 58.4101ZM171.231 24.9845C165.908 24.9845 161.579 29.7836 161.579 35.6821V47.0807C161.579 52.9792 165.908 57.7777 171.231 57.7777H179.287C184.61 57.7777 188.94 52.9792 188.94 47.0807V35.6821C188.94 29.7836 184.61 24.9845 179.287 24.9845H171.231ZM179.287 53.2201H171.231C169.678 53.1416 168.219 52.4521 167.172 51.3019C166.125 50.1517 165.576 48.6343 165.644 47.0807V35.6821C165.576 34.1286 166.125 32.6111 167.172 31.461C168.219 30.3108 169.678 29.6213 171.231 29.5428H179.287C180.841 29.6213 182.3 30.3109 183.346 31.461C184.393 32.6112 184.942 34.1286 184.874 35.6821V47.0807C184.942 48.6343 184.393 50.1517 183.346 51.3019C182.3 52.4521 180.841 53.1416 179.287 53.2201ZM171.231 30.1755C169.845 30.254 168.547 30.8769 167.619 31.9085C166.691 32.94 166.209 34.2965 166.277 35.6824V47.081C166.209 48.4669 166.691 49.8234 167.619 50.8549C168.547 51.8864 169.845 52.5094 171.231 52.5879H179.287C180.673 52.5094 181.971 51.8864 182.899 50.8549C183.827 49.8234 184.31 48.4669 184.242 47.081V35.6821C184.31 34.2963 183.827 32.9398 182.899 31.9082C181.971 30.8767 180.673 30.2538 179.287 30.1752L171.231 30.1755Z" fill="white"/>
<path d="M190.877 43.2061H159.642C157.023 43.2061 154.899 45.3297 154.899 47.9491V72.2685C154.899 74.888 157.023 77.0115 159.642 77.0115H190.877C193.496 77.0115 195.619 74.888 195.619 72.2685V47.9491C195.619 45.3297 193.496 43.2061 190.877 43.2061Z" fill="#00B4FF"/>
<path d="M191.727 77.3278H180.289C180.205 77.3278 180.125 77.2945 180.065 77.2352C180.006 77.1759 179.973 77.0955 179.973 77.0116C179.973 76.9277 180.006 76.8473 180.065 76.788C180.125 76.7287 180.205 76.6954 180.289 76.6954H191.727C192.675 76.6944 193.584 76.3173 194.255 75.6468C194.925 74.9763 195.302 74.0672 195.304 73.1189V50.4447C195.304 50.3608 195.337 50.2804 195.396 50.2211C195.456 50.1618 195.536 50.1285 195.62 50.1285C195.704 50.1285 195.784 50.1618 195.843 50.2211C195.903 50.2804 195.936 50.3608 195.936 50.4447V73.1189C195.935 74.2349 195.491 75.3047 194.702 76.0938C193.912 76.8828 192.843 77.3266 191.727 77.3278Z" fill="#243762"/>
<path opacity="0.25" d="M188.092 47.8305H162.428C159.808 47.8305 157.685 49.954 157.685 52.5735V69.2628C157.685 71.8823 159.808 74.0058 162.428 74.0058H188.092C190.711 74.0058 192.835 71.8823 192.835 69.2628V52.5735C192.835 49.954 190.711 47.8305 188.092 47.8305Z" fill="white"/>
<path d="M170.506 57.1796C170.502 56.2978 170.743 55.4323 171.202 54.6798C171.662 53.9272 172.322 53.3173 173.108 52.9182C173.894 52.5192 174.776 52.3467 175.655 52.42C176.534 52.4933 177.375 52.8096 178.084 53.3335C178.793 53.8574 179.343 54.5682 179.671 55.3865C180 56.2049 180.094 57.0984 179.944 57.9673C179.794 58.8362 179.405 59.6462 178.821 60.3067C178.236 60.9672 177.48 61.4523 176.636 61.7076V67.8564H173.883V61.7071C172.909 61.4149 172.054 60.8169 171.446 60.0016C170.838 59.1862 170.508 58.1968 170.506 57.1796Z" fill="#243762"/>
<path d="M213.205 151.311H29.1054C29.0351 151.312 28.9652 151.299 28.8999 151.273C28.8346 151.247 28.7751 151.208 28.725 151.159C28.6748 151.109 28.635 151.05 28.6078 150.986C28.5806 150.921 28.5667 150.851 28.5667 150.781C28.5667 150.71 28.5806 150.641 28.6078 150.576C28.635 150.511 28.6748 150.452 28.725 150.403C28.7751 150.353 28.8346 150.314 28.8999 150.288C28.9652 150.262 29.0351 150.249 29.1054 150.25H213.205C213.344 150.252 213.477 150.309 213.575 150.408C213.673 150.508 213.727 150.641 213.727 150.781C213.727 150.92 213.673 151.054 213.575 151.153C213.477 151.252 213.344 151.309 213.205 151.311Z" fill="#243762"/>
<path d="M203.188 47.2482C203.188 48.7629 202.738 50.2435 201.897 51.5029C201.055 52.7623 199.859 53.7439 198.46 54.3235C197.06 54.9031 195.521 55.0547 194.035 54.7592C192.549 54.4637 191.185 53.7343 190.114 52.6632C189.043 51.5922 188.313 50.2276 188.018 48.742C187.723 47.2564 187.874 45.7166 188.454 44.3172C189.034 42.9179 190.015 41.7218 191.275 40.8803C192.534 40.0388 194.015 39.5897 195.529 39.5897C196.535 39.5897 197.531 39.7878 198.46 40.1727C199.389 40.5576 200.233 41.1217 200.945 41.8328C201.656 42.544 202.22 43.3883 202.605 44.3174C202.99 45.2466 203.188 46.2425 203.188 47.2482Z" fill="#004763"/>
<path d="M188.275 54.5022C188.213 54.4399 188.178 54.3555 188.178 54.2675C188.178 54.1795 188.213 54.0951 188.275 54.0329C188.337 53.9707 188.421 53.9357 188.509 53.9357C188.597 53.9357 188.682 53.9707 188.744 54.0329C190.105 55.3939 191.839 56.3208 193.727 56.6964C195.614 57.0719 197.571 56.8792 199.349 56.1427C201.128 55.4061 202.647 54.1588 203.717 52.5585C204.786 50.9582 205.357 49.0767 205.357 47.1519C205.357 45.2272 204.786 43.3457 203.717 41.7454C202.647 40.145 201.128 38.8977 199.349 38.1612C197.571 37.4246 195.614 37.232 193.727 37.6075C191.839 37.983 190.105 38.9099 188.744 40.2709C188.713 40.3025 188.677 40.3276 188.636 40.3449C188.596 40.3622 188.552 40.3712 188.508 40.3716C188.464 40.3719 188.421 40.3634 188.38 40.3468C188.339 40.3301 188.302 40.3054 188.271 40.2743C188.24 40.2432 188.216 40.2062 188.199 40.1655C188.182 40.1248 188.174 40.0812 188.174 40.0372C188.174 39.9932 188.183 39.9497 188.201 39.9093C188.218 39.8688 188.243 39.8322 188.275 39.8016C189.729 38.3478 191.581 37.3577 193.597 36.9565C195.614 36.5554 197.704 36.7612 199.603 37.548C201.503 38.3348 203.126 39.6671 204.269 41.3766C205.411 43.0861 206.02 45.0959 206.02 47.1519C206.02 49.2078 205.411 51.2176 204.269 52.9271C203.126 54.6366 201.503 55.969 199.603 56.7557C197.704 57.5425 195.614 57.7483 193.597 57.3472C191.581 56.9461 189.729 55.956 188.275 54.5022Z" fill="#243762"/>
<path d="M195.42 51.4135C195.152 51.4231 194.891 51.3273 194.693 51.1467C194.602 51.0657 194.529 50.966 194.48 50.8545C194.431 50.7429 194.406 50.6221 194.407 50.5001C194.404 50.3772 194.428 50.2551 194.478 50.1428C194.528 50.0304 194.603 49.9307 194.696 49.8509C194.897 49.6791 195.155 49.5889 195.42 49.5979C195.684 49.5873 195.942 49.679 196.141 49.8538C196.232 49.9346 196.304 50.0344 196.352 50.146C196.401 50.2577 196.424 50.3786 196.421 50.5002C196.425 50.6229 196.401 50.7449 196.353 50.8579C196.305 50.9709 196.234 51.0722 196.143 51.155C195.945 51.3322 195.685 51.425 195.42 51.4135ZM196.292 44.1578L196.136 48.13C196.128 48.319 196.048 48.4977 195.912 48.6288C195.775 48.7598 195.593 48.833 195.404 48.833C195.215 48.833 195.033 48.7596 194.897 48.6283C194.76 48.4969 194.68 48.3178 194.673 48.1286L194.524 44.1564C194.521 44.0581 194.537 43.96 194.572 43.8681C194.607 43.7762 194.66 43.6924 194.729 43.6215C194.797 43.5507 194.879 43.4943 194.969 43.4558C195.06 43.4174 195.157 43.3975 195.256 43.3975H195.561C195.66 43.3975 195.757 43.4174 195.848 43.456C195.938 43.4945 196.02 43.551 196.089 43.622C196.157 43.693 196.21 43.7771 196.245 43.8691C196.28 43.9612 196.296 44.0594 196.292 44.1578Z" fill="white"/>
</g>
<defs>
<clipPath id="clip0">
<rect width="221.148" height="151.279" fill="white" transform="translate(0.932129 0.0318604)"/>
</clipPath>
</defs>
</svg>
