<svg width="19" height="19" viewBox="0 0 19 19" fill="none" xmlns="http://www.w3.org/2000/svg">
<path d="M9.875 18.0066C14.8456 18.0066 18.875 13.9798 18.875 9.01253C18.875 4.04523 14.8456 0.0184326 9.875 0.0184326C4.90444 0.0184326 0.875 4.04523 0.875 9.01253C0.875 13.9798 4.90444 18.0066 9.875 18.0066Z" fill="#00B4FF"/>
<path d="M13.2272 5.88413H12.6963V5.46555C12.6963 5.34438 12.5971 5.24524 12.476 5.24524C12.3548 5.24524 12.2557 5.34438 12.2557 5.46555V5.88413H10.0967V5.46555C10.0967 5.34438 9.99753 5.24524 9.87636 5.24524C9.75519 5.24524 9.65605 5.34438 9.65605 5.46555V5.88413H7.47502V5.46555C7.47502 5.34438 7.37589 5.24524 7.25472 5.24524C7.13355 5.24524 7.03441 5.34438 7.03441 5.46555V5.88413H6.52551C6.04083 5.88413 5.64648 6.29169 5.64648 6.77637V11.8985C5.64648 12.3854 6.03863 12.7797 6.52551 12.7797H13.225C13.7119 12.7797 14.104 12.3854 14.104 11.9007V6.77637C14.1062 6.29169 13.7119 5.88413 13.2272 5.88413ZM7.75041 11.2155H7.36487C7.2437 11.2155 7.14457 11.1164 7.14457 10.9952C7.14457 10.8741 7.2437 10.7749 7.36487 10.7749H7.75261C7.87378 10.7749 7.97071 10.8741 7.97071 10.9952C7.97071 11.1164 7.87158 11.2155 7.75041 11.2155ZM7.75041 9.71745H7.36487C7.2437 9.71745 7.14457 9.61831 7.14457 9.49714C7.14457 9.37598 7.2437 9.27684 7.36487 9.27684H7.75261C7.87378 9.27684 7.97071 9.37598 7.97071 9.49714C7.97071 9.61831 7.87158 9.71745 7.75041 9.71745ZM9.29696 11.2155H8.91142C8.79025 11.2155 8.69111 11.1164 8.69111 10.9952C8.69111 10.8741 8.79025 10.7749 8.91142 10.7749H9.29696C9.41812 10.7749 9.51726 10.8741 9.51726 10.9952C9.51726 11.1164 9.41812 11.2155 9.29696 11.2155ZM9.29696 9.71745H8.91142C8.79025 9.71745 8.69111 9.61831 8.69111 9.49714C8.69111 9.37598 8.79025 9.27684 8.91142 9.27684H9.29696C9.41812 9.27684 9.51726 9.37598 9.51726 9.49714C9.51726 9.61831 9.41812 9.71745 9.29696 9.71745ZM9.29696 8.19734H8.91142C8.79025 8.19734 8.69111 8.0982 8.69111 7.97703C8.69111 7.85586 8.79025 7.75673 8.91142 7.75673H9.29696C9.41812 7.75673 9.51726 7.85586 9.51726 7.97703C9.51726 8.0982 9.41812 8.19734 9.29696 8.19734ZM10.8303 11.2155H10.4448C10.3236 11.2155 10.2244 11.1164 10.2244 10.9952C10.2244 10.8741 10.3236 10.7749 10.4448 10.7749H10.8303C10.9537 10.7749 11.0506 10.8741 11.0506 10.9952C11.0506 11.1164 10.9515 11.2155 10.8303 11.2155ZM10.8303 9.71745H10.4448C10.3236 9.71745 10.2244 9.61831 10.2244 9.49714C10.2244 9.37598 10.3236 9.27684 10.4448 9.27684H10.8303C10.9537 9.27684 11.0506 9.37598 11.0506 9.49714C11.0506 9.61831 10.9515 9.71745 10.8303 9.71745ZM10.8303 8.19734H10.4448C10.3236 8.19734 10.2244 8.0982 10.2244 7.97703C10.2244 7.85586 10.3236 7.75673 10.4448 7.75673H10.8303C10.9537 7.75673 11.0506 7.85586 11.0506 7.97703C11.0506 8.0982 10.9515 8.19734 10.8303 8.19734ZM12.3768 9.71745H11.9913C11.8701 9.71745 11.771 9.61831 11.771 9.49714C11.771 9.37598 11.8701 9.27684 11.9913 9.27684H12.3768C12.498 9.27684 12.5971 9.37598 12.5971 9.49714C12.5971 9.61831 12.498 9.71745 12.3768 9.71745ZM12.3768 8.19734H11.9913C11.8701 8.19734 11.771 8.0982 11.771 7.97703C11.771 7.85586 11.8701 7.75673 11.9913 7.75673H12.3768C12.498 7.75673 12.5971 7.85586 12.5971 7.97703C12.5971 8.0982 12.498 8.19734 12.3768 8.19734Z" fill="white"/>
</svg>
