<svg width="19" height="19" viewBox="0 0 19 19" fill="none" xmlns="http://www.w3.org/2000/svg">
<path d="M9.28027 18.0066C14.2508 18.0066 18.2803 13.9798 18.2803 9.01253C18.2803 4.04523 14.2508 0.0184326 9.28027 0.0184326C4.30971 0.0184326 0.280273 4.04523 0.280273 9.01253C0.280273 13.9798 4.30971 18.0066 9.28027 18.0066Z" fill="#004763"/>
<g clip-path="url(#clip0)">
<path d="M6.95703 5.01245V6.51246H7.95702V6.01244H11.957V12.0124H7.95702V11.5124H6.95703V13.0125H12.957V5.01245H6.95703Z" fill="white"/>
<path d="M7.59668 10.1589L8.30371 10.866L10.1572 9.01245L8.30372 7.15894L7.59669 7.86596L8.24317 8.51244H5.65723V9.51244H8.24317L7.59668 10.1589Z" fill="white"/>
</g>
<defs>
<clipPath id="clip0">
<rect width="8" height="8" fill="white" transform="translate(5.15723 5.01245)"/>
</clipPath>
</defs>
</svg>
