<svg width="36" height="36" viewBox="0 0 36 36" fill="none" xmlns="http://www.w3.org/2000/svg">
<path d="M33.9841 0.22168H27.1555C26.8713 0.22168 26.6409 0.452006 26.6409 0.736217C26.6409 1.02043 26.8713 1.25075 27.1555 1.25075H33.9841C34.2679 1.25075 34.4987 1.48156 34.4987 1.76529V12.1213C34.4987 12.405 34.2679 12.6358 33.9841 12.6358H19.8271V12.3885C19.8271 11.3847 19.0105 10.5682 18.0068 10.5682C17.0032 10.5682 16.1866 11.3848 16.1866 12.3885V12.6358H10.9454C10.6613 12.6358 10.4309 12.8662 10.4309 13.1504C10.4309 13.4346 10.6613 13.6649 10.9454 13.6649H16.1866V22.7323L14.9645 21.3626C14.2101 20.5172 13.1277 20.0323 11.9947 20.0323C11.5724 20.0323 11.1915 20.249 10.9758 20.612C10.76 20.975 10.7518 21.4132 10.9537 21.7841L13.0028 25.5484C13.5107 26.4816 14.1587 27.3263 14.9285 28.0588L17.1122 30.1366V31.2388C16.5781 31.3498 16.1756 31.8239 16.1756 32.3905V34.101C16.1756 34.7497 16.7033 35.2774 17.3519 35.2774H25.4645C26.1132 35.2774 26.6409 34.7497 26.6409 34.101V32.3905C26.6409 31.8362 26.2551 31.3714 25.7382 31.2476V30.1038C26.2072 29.5122 27.6612 27.3413 27.6612 23.1708V20.0281C27.6612 19.0244 26.8447 18.208 25.841 18.208C25.5056 18.208 25.191 18.2992 24.9209 18.4581C24.6527 17.7866 23.9957 17.3109 23.2296 17.3109C22.8941 17.3109 22.5797 17.4021 22.3095 17.561C22.0413 16.8895 21.3843 16.4138 20.6182 16.4138C20.3348 16.4138 20.0663 16.4789 19.827 16.5949V13.665H33.9841C34.8352 13.665 35.5276 12.9726 35.5276 12.1215V1.76522C35.5277 0.914097 34.8352 0.22168 33.9841 0.22168V0.22168ZM20.6183 17.4426C21.0545 17.4426 21.4095 17.7976 21.4095 18.2338V19.131C21.4095 19.4152 21.6398 19.6455 21.924 19.6455C22.2082 19.6455 22.4386 19.4152 22.4386 19.131C22.4386 18.6947 22.7935 18.3398 23.2298 18.3398C23.666 18.3398 24.0209 18.6947 24.0209 19.131V20.028C24.0209 20.3123 24.2512 20.5426 24.5355 20.5426C24.8197 20.5426 25.05 20.3123 25.05 20.028C25.05 19.5918 25.4049 19.2369 25.8412 19.2369C26.2775 19.2369 26.6324 19.5918 26.6324 20.028V23.1707C26.6324 27.5912 24.8666 29.5447 24.8506 29.5619C24.7599 29.6575 24.7094 29.7842 24.7094 29.9159V31.214H23.4663C23.1821 31.214 22.9518 31.4443 22.9518 31.7285C22.9518 32.0128 23.1821 32.2431 23.4663 32.2431H25.4646C25.5458 32.2431 25.612 32.3092 25.612 32.3905V34.101C25.612 34.1823 25.5458 34.2484 25.4646 34.2484H17.3519C17.2707 34.2484 17.2046 34.1823 17.2046 34.101V32.3905C17.2046 32.3092 17.2707 32.2431 17.3519 32.2431H21.4083C21.6925 32.2431 21.9228 32.0128 21.9228 31.7285C21.9228 31.4443 21.6925 31.214 21.4083 31.214H18.1413V29.9159C18.1413 29.775 18.0835 29.6403 17.9814 29.5432L15.6378 27.3133C14.9457 26.6547 14.3632 25.8953 13.9066 25.0563L11.8574 21.292C11.809 21.1622 11.8574 21.0808 11.9946 21.0612C12.8347 21.0612 13.6373 21.4207 14.1966 22.0476L16.2975 24.4022C16.5956 24.7529 17.2299 24.5292 17.2155 24.0596V12.3885C17.2155 11.9522 17.5704 11.5972 18.0067 11.5972C18.4429 11.5972 18.7978 11.9522 18.7978 12.3885V18.2338C18.7978 18.5181 19.0282 18.7484 19.3124 18.7484C19.5966 18.7484 19.8269 18.5181 19.8269 18.2338C19.8271 17.7976 20.182 17.4426 20.6183 17.4426Z" fill="#004763"/>
<path d="M8.88751 12.6358H2.01571C1.73198 12.6358 1.50117 12.405 1.50117 12.1212V1.76522C1.50117 1.48149 1.73198 1.25069 2.01571 1.25069H25.0975C25.3817 1.25069 25.6121 1.02036 25.6121 0.736149C25.6121 0.451938 25.3817 0.22168 25.0975 0.22168H2.01571C1.16459 0.22168 0.472168 0.914097 0.472168 1.76522V12.1212C0.472168 12.9723 1.16459 13.6648 2.01571 13.6648H8.88751C9.17165 13.6648 9.40204 13.4344 9.40204 13.1502C9.40204 12.866 9.17172 12.6358 8.88751 12.6358Z" fill="#004763"/>
<path d="M21.3859 6.55679C21.6881 6.26217 21.795 5.82973 21.6645 5.42823C21.534 5.02674 21.1934 4.73958 20.7756 4.67885L19.5776 4.5048C19.5541 4.50138 19.5338 4.48666 19.5232 4.46537L18.9874 3.37974C18.8006 3.00118 18.4224 2.76599 18.0001 2.76599C17.5779 2.76599 17.1996 3.00111 17.0127 3.37974L16.4769 4.46544C16.4664 4.48666 16.4461 4.50145 16.4227 4.5048L15.2245 4.67885C14.8067 4.73958 14.4661 5.02674 14.3357 5.42823C14.2053 5.82973 14.312 6.26217 14.6143 6.55679L15.4813 7.40196C15.4983 7.41853 15.506 7.44229 15.502 7.4657L15.2973 8.65897C15.226 9.07498 15.3938 9.48763 15.7353 9.73576C16.0768 9.98396 16.5212 10.0161 16.8949 9.81963L17.9666 9.25621C17.9875 9.24512 18.0126 9.24512 18.0335 9.25621L19.1053 9.81963C19.2678 9.90501 19.4436 9.94726 19.6186 9.94726C19.8459 9.94726 20.0718 9.87598 20.2648 9.73576C20.6063 9.48763 20.7741 9.07498 20.7027 8.65897L20.4981 7.4657C20.4941 7.44236 20.5018 7.41853 20.5188 7.40196L21.3859 6.55679ZM19.8005 6.66518C19.541 6.91817 19.4226 7.28248 19.4839 7.63968L19.6886 8.83308C19.6906 8.84513 19.6961 8.87717 19.6599 8.9034C19.6238 8.92969 19.5948 8.91449 19.584 8.90887L18.5125 8.34552C18.352 8.2611 18.1761 8.21899 18 8.21899C17.8241 8.21899 17.6481 8.26117 17.4877 8.34545L16.4161 8.90887C16.4053 8.91449 16.3765 8.92983 16.3402 8.9034C16.304 8.8771 16.3094 8.84506 16.3116 8.83301L16.5162 7.63968C16.5775 7.28242 16.4591 6.9181 16.1995 6.66518L15.3326 5.82008C15.3238 5.81152 15.3006 5.78879 15.3143 5.74627C15.3281 5.70368 15.3604 5.69896 15.3724 5.69724L16.5707 5.5232C16.9294 5.47103 17.2392 5.24577 17.3996 4.92089L17.9354 3.83526C17.9408 3.82423 17.9552 3.79513 18 3.79513C18.0448 3.79513 18.0591 3.8243 18.0645 3.83526L18.6004 4.92082C18.7607 5.24583 19.0706 5.47103 19.4294 5.52327L20.6275 5.69731C20.6396 5.69909 20.6719 5.70375 20.6856 5.74634C20.6995 5.78885 20.6762 5.81159 20.6674 5.82014L19.8005 6.66518Z" fill="#004763"/>
<path d="M10.4437 8.65896L10.2391 7.4657C10.235 7.44236 10.2428 7.41853 10.2598 7.40196L11.1268 6.55679C11.429 6.26217 11.5358 5.82973 11.4054 5.42823C11.2749 5.02674 10.9344 4.73958 10.5165 4.67885L9.31845 4.5048C9.29496 4.50138 9.27469 4.48666 9.26415 4.46537L8.72832 3.37974C8.54147 3.00118 8.16318 2.76599 7.74101 2.76599C7.31884 2.76599 6.94048 3.00111 6.75363 3.37974L6.21787 4.46537C6.20733 4.48666 6.18699 4.50138 6.16364 4.5048L4.96545 4.67885C4.54766 4.73958 4.2071 5.02674 4.07667 5.42823C3.94624 5.82973 4.05298 6.26217 4.35526 6.55679L5.22228 7.40196C5.23926 7.41853 5.24699 7.44229 5.24295 7.4657L5.0383 8.65896C4.96696 9.07504 5.13477 9.4877 5.47629 9.73576C5.81788 9.98403 6.26217 10.016 6.63587 9.81963L7.70753 9.25621C7.72848 9.24519 7.75354 9.24519 7.77456 9.25621L8.84629 9.81963C9.00883 9.90501 9.18466 9.94726 9.35966 9.94726C9.58698 9.94726 9.81285 9.87598 10.0059 9.73576C10.3472 9.48763 10.5151 9.07498 10.4437 8.65896ZM9.54158 6.66504C9.28195 6.91803 9.16357 7.28235 9.22485 7.63961L9.4295 8.83294C9.43156 8.84499 9.4371 8.87704 9.40088 8.90333C9.36473 8.92976 9.33584 8.91442 9.32502 8.9088L8.25336 8.34538C8.09294 8.26103 7.91697 8.21892 7.74101 8.21892C7.56505 8.21892 7.38902 8.2611 7.22866 8.34538L6.15707 8.9088C6.14625 8.91442 6.11743 8.92969 6.08121 8.90333C6.04499 8.8771 6.05047 8.84499 6.05259 8.83294L6.25724 7.63961C6.31852 7.28235 6.20014 6.91803 5.94057 6.66511L5.07363 5.81994C5.06487 5.81138 5.04159 5.78865 5.05535 5.74613C5.06918 5.70354 5.10143 5.69882 5.11348 5.69711L6.31174 5.52306C6.67038 5.47089 6.98026 5.2457 7.14068 4.92075L7.67651 3.83512C7.68192 3.8241 7.6963 3.795 7.74108 3.795C7.78586 3.795 7.80023 3.82416 7.80564 3.83512L8.34147 4.92068C8.50183 5.2457 8.81165 5.47089 9.17049 5.52313L10.3686 5.69718C10.3807 5.69896 10.4129 5.70361 10.4267 5.7462C10.4406 5.78872 10.4173 5.81145 10.4085 5.82001L9.54158 6.66504Z" fill="#004763"/>
<path d="M31.6449 6.55679C31.9472 6.26217 32.054 5.82973 31.9235 5.42823C31.793 5.02674 31.4524 4.73958 31.0346 4.67885L29.8366 4.5048C29.8131 4.50138 29.7928 4.48666 29.7823 4.46537L29.2464 3.37974C29.0596 3.00118 28.6813 2.76599 28.2591 2.76599C27.837 2.76599 27.4586 3.00111 27.2718 3.37974L26.736 4.4653C26.7254 4.48659 26.7051 4.50138 26.6817 4.5048L25.4835 4.67885C25.0656 4.73958 24.7252 5.02674 24.5947 5.4283C24.4643 5.8298 24.5711 6.26224 24.8733 6.55679L25.7403 7.40196C25.7572 7.41853 25.765 7.44229 25.7609 7.4657L25.5564 8.65897C25.485 9.07505 25.6528 9.4877 25.9943 9.73583C26.3357 9.98403 26.7801 10.0161 27.1539 9.8197L28.2255 9.25628C28.2464 9.24533 28.2716 9.24519 28.2925 9.25628L29.3642 9.8197C29.5268 9.90508 29.7026 9.94733 29.8776 9.94733C30.1049 9.94733 30.3308 9.87605 30.5238 9.73583C30.8652 9.4877 31.0331 9.07505 30.9616 8.65903L30.7571 7.46577C30.753 7.44243 30.7608 7.4186 30.7777 7.40203L31.6449 6.55679ZM30.0596 6.66518C29.8 6.91817 29.6816 7.28248 29.743 7.63968L29.9476 8.83308C29.9496 8.84513 29.9552 8.87717 29.9189 8.9034C29.8829 8.92969 29.8538 8.91449 29.8431 8.90887L28.7715 8.34552C28.6111 8.2611 28.4351 8.21899 28.2591 8.21899C28.0832 8.21899 27.9071 8.26117 27.7467 8.34545L26.6751 8.90887C26.6644 8.91449 26.6355 8.92976 26.5993 8.9034C26.5631 8.87717 26.5686 8.84513 26.5706 8.83301L26.7752 7.63989C26.8365 7.28262 26.7182 6.91823 26.4586 6.66518L25.5917 5.81994C25.583 5.81145 25.5596 5.78872 25.5735 5.7462C25.5874 5.70361 25.6196 5.69889 25.6316 5.69718L26.8299 5.52313C27.1884 5.47096 27.4983 5.24577 27.6588 4.92082L28.1946 3.83519C28.2 3.82416 28.2145 3.79507 28.2592 3.79507C28.3039 3.79507 28.3183 3.82423 28.3237 3.83519L28.8595 4.92075C29.0198 5.24577 29.3298 5.47096 29.6886 5.5232L30.8867 5.69724C30.8988 5.69902 30.931 5.70368 30.9448 5.74627C30.9587 5.78879 30.9353 5.81152 30.9266 5.82008L30.0596 6.66518Z" fill="#004763"/>
</svg>
