<svg width="36" height="36" viewBox="0 0 36 36" fill="none" xmlns="http://www.w3.org/2000/svg">
<path d="M18.002 35.9996C27.9421 35.9996 36.0001 27.9416 36.0001 18.0015C36.0001 8.06143 27.9421 0.00341797 18.002 0.00341797C8.06193 0.00341797 0.00390625 8.06143 0.00390625 18.0015C0.00390625 27.9416 8.06193 35.9996 18.002 35.9996Z" fill="white"/>
<path d="M34.9688 11.9978H23.8794C24.3608 15.8427 24.3639 20.0791 23.8885 23.9288H34.9927C35.6406 22.0716 35.9973 20.0772 35.9973 17.9991C35.9976 15.8937 35.6327 13.8748 34.9688 11.9978Z" fill="#D32027"/>
<path d="M23.8787 11.9978H34.9682C34.9662 11.9921 34.9645 11.9873 34.9625 11.9821C32.6588 5.48688 26.7337 0.70819 19.6144 0.0738525C22.3694 1.58404 23.1739 6.36874 23.8787 11.9978Z" fill="#0B0B0B"/>
<path d="M19.6155 35.9229C26.7475 35.2875 32.6812 30.4923 34.9757 23.9797C34.9818 23.9624 34.9868 23.9454 34.9931 23.9286H23.8886C23.1898 29.588 22.3818 34.4065 19.6155 35.9229Z" fill="#F3C515"/>
<path d="M0 17.999C0 20.0773 0.356648 22.0715 1.00459 23.9287H24.8151C25.2905 20.0787 25.2874 15.8425 24.8059 11.9977H1.02853C0.364628 13.8748 0 15.8937 0 17.999Z" fill="#DB2727"/>
<path d="M1.03512 11.9821C1.03314 11.9872 1.03139 11.9921 1.02942 11.9978H24.8072C24.1024 6.36875 22.3711 1.58413 19.6165 0.0739439C19.0835 0.0267505 18.5447 0 17.9997 0C10.1699 0 3.51099 5.00068 1.03512 11.9821Z" fill="#151515"/>
<path d="M24.8146 23.9286H1.00415C1.01015 23.9454 1.01555 23.9624 1.02148 23.9797C3.48769 30.9791 10.1554 35.9973 17.998 35.9973C18.5431 35.9973 19.0819 35.9706 19.6147 35.9229C22.3811 34.4065 24.1158 29.588 24.8146 23.9286Z" fill="#F8D12E"/>
</svg>
