<svg width="16" height="17" viewBox="0 0 16 17" fill="none" xmlns="http://www.w3.org/2000/svg">
<g clip-path="url(#clip0)">
<path d="M11.6689 0.81958H4.33105C1.94287 0.81958 0 2.76245 0 5.15063V12.4886C0 14.8767 1.94287 16.8195 4.33105 16.8195H11.669C14.0571 16.8195 16 14.8767 16 12.4886V5.15063C16 2.76245 14.0571 0.81958 11.6689 0.81958V0.81958ZM7.99998 13.1944C5.58764 13.1944 3.62512 11.2319 3.62512 8.81956C3.62512 6.40722 5.58764 4.4447 7.99998 4.4447C10.4123 4.4447 12.3749 6.40722 12.3749 8.81956C12.3749 11.2319 10.4123 13.1944 7.99998 13.1944ZM12.4795 5.47643C11.7666 5.47643 11.1867 4.8966 11.1867 4.18371C11.1867 3.47082 11.7666 2.89087 12.4795 2.89087C13.1924 2.89087 13.7723 3.47082 13.7723 4.18371C13.7723 4.8966 13.1924 5.47643 12.4795 5.47643Z" fill="#004763"/>
<path d="M7.99999 5.38269C6.10498 5.38269 4.56311 6.92444 4.56311 8.81957C4.56311 10.7146 6.10498 12.2565 7.99999 12.2565C9.89513 12.2565 11.4369 10.7146 11.4369 8.81957C11.4369 6.92444 9.89513 5.38269 7.99999 5.38269Z" fill="#004763"/>
<path d="M12.4795 3.8291C12.2839 3.8291 12.1248 3.98828 12.1248 4.18384C12.1248 4.37939 12.2839 4.53857 12.4795 4.53857C12.6752 4.53857 12.8343 4.37952 12.8343 4.18384C12.8343 3.98816 12.6752 3.8291 12.4795 3.8291Z" fill="#004763"/>
</g>
<defs>
<clipPath id="clip0">
<rect width="16" height="16" fill="white" transform="translate(0 0.81958)"/>
</clipPath>
</defs>
</svg>
