<svg width="68" height="91" viewBox="0 0 68 91" fill="none" xmlns="http://www.w3.org/2000/svg">
<path d="M64.0491 18.8431V10.9332C66.2836 9.63042 67.8052 7.23443 67.8052 4.46551V2.58752C67.8052 1.54939 66.9652 0.709351 65.9271 0.709351H2.07153C1.0334 0.709351 0.193359 1.54939 0.193359 2.58752V4.46568C0.193359 7.23443 1.71498 9.63042 3.94952 10.9334V18.8431C3.94952 26.2858 7.12252 33.4094 12.6542 38.3871L20.8727 45.7839L12.6542 53.1808C7.12252 58.1585 3.94952 65.282 3.94952 72.7248V80.6345C1.71498 81.9375 0.193359 84.3335 0.193359 87.1024V88.9805C0.193359 90.0185 1.0334 90.8585 2.07153 90.8585H65.9273C66.9654 90.8585 67.8054 90.0185 67.8054 88.9804V87.1022C67.8054 84.3335 66.2838 81.9375 64.0493 80.6345V72.7248C64.0493 65.282 60.8763 58.1585 55.3446 53.1808L47.1259 45.7839L55.3444 38.3871C60.8761 33.4094 64.0491 26.2857 64.0491 18.8431ZM50.3191 32.804L38.9991 42.9925C38.2067 43.7042 37.7555 44.7183 37.7555 45.7839C37.7555 46.8495 38.2067 47.8639 38.9991 48.5754L50.3191 58.7638C54.2697 62.3201 56.5366 67.4097 56.5366 72.7248V79.5899H51.8404L35.5014 57.8046C34.7934 56.8582 33.205 56.8582 32.4971 57.8046L16.1582 79.5899H11.462V72.7248C11.462 67.4095 13.7289 62.32 17.6797 58.7637L28.9997 48.5752C29.792 47.8635 30.2433 46.8494 30.2433 45.7838C30.2433 44.7182 29.792 43.7038 28.9997 42.9923L17.6797 32.8039C13.7289 29.2477 11.462 24.1582 11.462 18.8431V11.978H56.5366V18.8431C56.5366 24.1582 54.2697 29.2477 50.3191 32.804Z" fill="#ABABAB"/>
<path d="M46.9435 27.0028H21.0517C20.3089 27.0028 19.6357 27.4412 19.335 28.1198C19.0343 28.8003 19.1607 29.5927 19.6614 30.1429L32.7385 42.2076C33.0961 42.5322 33.5474 42.6935 33.9985 42.6935C34.4496 42.6935 34.9009 42.5321 35.2585 42.2076L48.3336 30.1429C48.8344 29.5927 48.961 28.8003 48.6601 28.1198C48.3595 27.4412 47.6864 27.0028 46.9435 27.0028Z" fill="#ABABAB"/>
</svg>
