<svg width="90" height="32" viewBox="0 0 90 32" fill="none" xmlns="http://www.w3.org/2000/svg">
<path d="M12.5542 22.0283C11.1715 22.097 10.0215 22.2207 9.10423 22.3993C8.18701 22.5641 7.45458 22.7839 6.90697 23.0586C6.37305 23.3334 5.98973 23.6493 5.75699 24.0065C5.53794 24.3499 5.42843 24.7277 5.42843 25.1398C5.42843 25.964 5.65432 26.5479 6.10609 26.8913C6.57156 27.2347 7.215 27.4064 8.03642 27.4064C8.98106 27.4064 9.7956 27.2416 10.4801 26.9119C11.1783 26.5684 11.8697 26.0396 12.5542 25.3253V22.0283ZM1.01332 12.6116C2.25913 11.4851 3.635 10.6471 5.14093 10.0977C6.64685 9.53449 8.276 9.25281 10.0283 9.25281C11.2879 9.25281 12.4105 9.4589 13.3961 9.87101C14.3955 10.2831 15.2375 10.8601 15.922 11.6019C16.6202 12.33 17.1542 13.2023 17.5238 14.2188C17.8934 15.2353 18.0783 16.3481 18.0783 17.5569V30.9094H15.4908C14.9569 30.9094 14.5461 30.8339 14.2587 30.6827C13.9848 30.5316 13.7589 30.2157 13.581 29.7349L13.1292 28.3749C12.5953 28.8419 12.0751 29.2541 11.5685 29.6112C11.0757 29.9684 10.5622 30.2706 10.0283 30.5178C9.4944 30.7514 8.91943 30.93 8.30338 31.0536C7.70101 31.1772 7.02334 31.2391 6.27037 31.2391C5.33944 31.2391 4.49064 31.1155 3.72399 30.8682C2.95733 30.6209 2.29336 30.2569 1.73206 29.7761C1.18445 29.2815 0.760044 28.6702 0.458859 27.9422C0.157673 27.2141 0.00708008 26.3762 0.00708008 25.4283C0.00708008 24.6452 0.205589 23.8623 0.602606 23.0792C0.99962 22.2962 1.67729 21.5887 2.63561 20.9569C3.60762 20.3112 4.8945 19.7824 6.49626 19.3703C8.11171 18.9444 10.131 18.704 12.5542 18.649V17.5569C12.5542 16.2244 12.2735 15.2491 11.7123 14.6309C11.1509 13.999 10.3432 13.6831 9.28912 13.6831C8.50873 13.6831 7.85844 13.7793 7.33822 13.9715C6.81798 14.1501 6.35936 14.3493 5.96235 14.5691C5.57902 14.7751 5.21622 14.9743 4.87397 15.1667C4.53171 15.3453 4.1347 15.4345 3.68291 15.4345C3.28589 15.4345 2.95049 15.3383 2.67668 15.1461C2.41656 14.94 2.19752 14.6996 2.01955 14.4249L1.01332 12.6116Z" fill="#00B4FF"/>
<path d="M44.2363 30.9093H38.5891V13.7449H29.2044V24.8307C29.2044 25.4213 29.3413 25.8884 29.615 26.2319C29.9026 26.5753 30.3064 26.747 30.8267 26.747C31.1005 26.747 31.3332 26.7195 31.5248 26.6646C31.7165 26.5959 31.8808 26.5272 32.0177 26.4585C32.1546 26.3761 32.2778 26.3074 32.3874 26.2525C32.5106 26.1838 32.6338 26.1494 32.757 26.1494C32.9213 26.1494 33.0582 26.1906 33.1677 26.273C33.2772 26.3417 33.3867 26.4654 33.4963 26.644L35.2007 29.3639C34.4204 29.9821 33.5373 30.4491 32.5516 30.7651C31.5659 31.0811 30.546 31.239 29.4919 31.239C28.5336 31.239 27.6848 31.1017 26.9455 30.8269C26.2062 30.5385 25.5833 30.1332 25.0767 29.6112C24.5702 29.0892 24.1869 28.4573 23.9268 27.7155C23.6666 26.9737 23.5366 26.1357 23.5366 25.2016V13.7449H21.5447C21.2435 13.7449 20.9834 13.6487 20.7644 13.4563C20.559 13.264 20.4563 12.9756 20.4563 12.5909V10.3655L23.8447 9.74728L24.9946 4.24562C25.1452 3.62745 25.5627 3.31836 26.2472 3.31836H29.2044V9.78854H44.2363V30.9093ZM45.1193 3.58624C45.1193 4.0533 45.0235 4.49976 44.8318 4.92561C44.6402 5.33772 44.38 5.70175 44.0515 6.01771C43.7365 6.31992 43.3601 6.56718 42.922 6.7595C42.4976 6.93809 42.039 7.02738 41.5461 7.02738C41.0807 7.02738 40.6358 6.93809 40.2114 6.7595C39.8006 6.56718 39.4378 6.31992 39.123 6.01771C38.8081 5.70175 38.5548 5.33772 38.3631 4.92561C38.1852 4.49976 38.0962 4.0533 38.0962 3.58624C38.0962 3.10544 38.1852 2.65898 38.3631 2.24687C38.5548 1.82102 38.8081 1.45012 39.123 1.13416C39.4378 0.818214 39.8006 0.570944 40.2114 0.392362C40.6358 0.200041 41.0807 0.103882 41.5461 0.103882C42.039 0.103882 42.4976 0.200041 42.922 0.392362C43.3601 0.570944 43.7365 0.818214 44.0515 1.13416C44.38 1.45012 44.6402 1.82102 44.8318 2.24687C45.0235 2.65898 45.1193 3.10544 45.1193 3.58624Z" fill="#00B4FF"/>
<path d="M54.7616 25.3045C55.2956 25.9227 55.8705 26.3554 56.4866 26.6027C57.1164 26.85 57.7666 26.9736 58.4375 26.9736C59.1356 26.9736 59.7654 26.85 60.3267 26.6027C60.9017 26.3417 61.3946 25.9365 61.8053 25.387C62.216 24.8238 62.5309 24.0957 62.7499 23.2028C62.9689 22.3098 63.0785 21.2315 63.0785 19.9677C63.0785 18.8412 62.9894 17.8865 62.8115 17.1035C62.6335 16.3067 62.3666 15.6543 62.0106 15.146C61.6683 14.6377 61.2439 14.2668 60.7375 14.0333C60.2309 13.7998 59.6422 13.683 58.9714 13.683C58.0815 13.683 57.308 13.8822 56.6509 14.2805C56.0074 14.6652 55.3777 15.2353 54.7616 15.9908V25.3045ZM54.7616 12.117C55.5968 11.279 56.5208 10.6059 57.5339 10.0976C58.547 9.58933 59.6833 9.33515 60.9427 9.33515C62.1612 9.33515 63.2564 9.58241 64.2284 10.077C65.2141 10.5578 66.0493 11.2515 66.7338 12.1582C67.432 13.0648 67.9659 14.1638 68.3355 15.4551C68.7188 16.7326 68.9105 18.1681 68.9105 19.7616C68.9105 21.4788 68.6915 23.0448 68.2534 24.4597C67.8289 25.8609 67.2198 27.0629 66.4257 28.0657C65.6317 29.0685 64.6802 29.8446 63.5713 30.3942C62.4761 30.9436 61.2508 31.2184 59.8955 31.2184C59.2383 31.2184 58.6496 31.1497 58.1294 31.0123C57.6092 30.8887 57.13 30.7101 56.6919 30.4766C56.2538 30.2431 55.85 29.9683 55.4804 29.6524C55.1108 29.3227 54.7616 28.9587 54.4331 28.5602L54.2072 29.8378C54.1113 30.2362 53.9539 30.5178 53.7349 30.6826C53.5158 30.8338 53.2214 30.9093 52.8518 30.9093H49.0939V0.186279H54.7616V12.117Z" fill="#00B4FF"/>
<path d="M83.6257 22.0283C82.243 22.097 81.093 22.2207 80.1757 22.3993C79.2585 22.5641 78.5261 22.7839 77.9784 23.0586C77.4445 23.3334 77.0612 23.6493 76.8285 24.0065C76.6094 24.3499 76.5 24.7277 76.5 25.1398C76.5 25.964 76.7258 26.5479 77.1776 26.8913C77.643 27.2347 78.2865 27.4064 79.1079 27.4064C80.0526 27.4064 80.8671 27.2416 81.5516 26.9119C82.2498 26.5684 82.9412 26.0396 83.6257 25.3253V22.0283ZM72.0848 12.6116C73.3306 11.4851 74.7065 10.6471 76.2124 10.0977C77.7184 9.53449 79.3475 9.25281 81.0998 9.25281C82.3594 9.25281 83.482 9.4589 84.4676 9.87101C85.467 10.2831 86.3091 10.8601 86.9931 11.6019C87.6917 12.33 88.2257 13.2023 88.5951 14.2188C88.9645 15.2353 89.1497 16.3481 89.1497 17.5569V30.9094H86.562C86.028 30.9094 85.6176 30.8339 85.3302 30.6827C85.0563 30.5316 84.8304 30.2157 84.6525 29.7349L84.2007 28.3749C83.6668 28.8419 83.1466 29.2541 82.64 29.6112C82.1472 29.9684 81.6337 30.2706 81.0998 30.5178C80.5659 30.7514 79.9909 30.93 79.3749 31.0536C78.7725 31.1772 78.0948 31.2391 77.3418 31.2391C76.4109 31.2391 75.5622 31.1155 74.7954 30.8682C74.0288 30.6209 73.3649 30.2569 72.8035 29.7761C72.2559 29.2815 71.8315 28.6702 71.5303 27.9422C71.2292 27.2141 71.0786 26.3762 71.0786 25.4283C71.0786 24.6452 71.2771 23.8623 71.6741 23.0792C72.0711 22.2962 72.7488 21.5887 73.7071 20.9569C74.6791 20.3112 75.966 19.7824 77.5678 19.3703C79.1832 18.9444 81.2025 18.704 83.6257 18.649V17.5569C83.6257 16.2244 83.345 15.2491 82.7838 14.6309C82.2224 13.999 81.4147 13.6831 80.3606 13.6831C79.5803 13.6831 78.93 13.7793 78.4098 13.9715C77.8895 14.1501 77.4309 14.3493 77.0339 14.5691C76.6506 14.7751 76.2877 14.9743 75.9455 15.1667C75.6032 15.3453 75.2062 15.4345 74.7544 15.4345C74.3574 15.4345 74.022 15.3383 73.7482 15.1461C73.488 14.94 73.269 14.6996 73.091 14.4249L72.0848 12.6116Z" fill="#00B4FF"/>
</svg>
