<svg width="127" height="45" viewBox="0 0 127 45" fill="none" xmlns="http://www.w3.org/2000/svg">
<path d="M17.7153 30.9773C15.7641 31.0739 14.1414 31.2478 12.847 31.4989C11.5527 31.7307 10.5191 32.0398 9.7464 32.4262C8.99298 32.8126 8.45207 33.2569 8.12366 33.759C7.81455 34.242 7.66001 34.7732 7.66001 35.3528C7.66001 36.5118 7.97877 37.3329 8.61627 37.8158C9.2731 38.2988 10.1811 38.5402 11.3402 38.5402C12.6732 38.5402 13.8226 38.3084 14.7885 37.8448C15.7738 37.3618 16.7494 36.6181 17.7153 35.6136V30.9773ZM1.4298 17.735C3.18778 16.1509 5.12929 14.9725 7.25432 14.1998C9.37935 13.4078 11.6783 13.0117 14.151 13.0117C15.9284 13.0117 17.5125 13.3015 18.9033 13.8811C20.3136 14.4606 21.5017 15.2719 22.4677 16.3151C23.4528 17.339 24.2063 18.5657 24.7279 19.9951C25.2494 21.4247 25.5103 22.9894 25.5103 24.6893V43.4663H21.8591C21.1057 43.4663 20.5261 43.3601 20.1204 43.1475C19.734 42.935 19.4153 42.4907 19.1642 41.8146L18.5267 39.9021C17.7732 40.5589 17.0392 41.1385 16.3244 41.6407C15.6289 42.143 14.9044 42.568 14.151 42.9157C13.3976 43.2442 12.5862 43.4952 11.7169 43.6691C10.8669 43.8429 9.91061 43.9299 8.84809 43.9299C7.53444 43.9299 6.33669 43.7561 5.25486 43.4084C4.17302 43.0606 3.23608 42.5487 2.44402 41.8725C1.67128 41.1771 1.0724 40.3175 0.647398 39.2937C0.222391 38.2697 0.0098877 37.0915 0.0098877 35.7585C0.0098877 34.6573 0.290005 33.5563 0.850241 32.4551C1.41047 31.354 2.36675 30.3591 3.71904 29.4705C5.09065 28.5626 6.90658 27.8189 9.16685 27.2394C11.4464 26.6405 14.2959 26.3024 17.7153 26.2252V24.6893C17.7153 22.8155 17.3192 21.444 16.5272 20.5746C15.7351 19.6861 14.5953 19.2418 13.1079 19.2418C12.0067 19.2418 11.089 19.377 10.3549 19.6474C9.62083 19.8985 8.97366 20.1786 8.41343 20.4878C7.87251 20.7775 7.36057 21.0576 6.8776 21.3281C6.39464 21.5792 5.83441 21.7047 5.1969 21.7047C4.63666 21.7047 4.16336 21.5695 3.77699 21.2991C3.40994 21.0093 3.10084 20.6713 2.84971 20.2849L1.4298 17.735Z" fill="#00B4FF"/>
<path d="M62.4223 43.4663H54.4534V19.3287H41.2106V34.9182C41.2106 35.7488 41.4038 36.4056 41.7901 36.8886C42.1959 37.3716 42.7657 37.613 43.4999 37.613C43.8862 37.613 44.2146 37.5743 44.485 37.4971C44.7555 37.4005 44.9873 37.3039 45.1805 37.2074C45.3737 37.0915 45.5476 36.9948 45.7022 36.9175C45.876 36.821 46.0499 36.7727 46.2237 36.7727C46.4556 36.7727 46.6488 36.8306 46.8033 36.9465C46.9578 37.0431 47.1124 37.217 47.2669 37.4681L49.6721 41.293C48.5709 42.1624 47.3249 42.8191 45.9339 43.2634C44.543 43.7078 43.1038 43.9299 41.6163 43.9299C40.264 43.9299 39.0662 43.7367 38.023 43.3504C36.9798 42.9447 36.1009 42.3748 35.386 41.6407C34.6713 40.9067 34.1304 40.018 33.7633 38.9749C33.3962 37.9317 33.2128 36.7534 33.2128 35.4397V19.3287H30.4019C29.9769 19.3287 29.6098 19.1935 29.3008 18.923C29.011 18.6525 28.8661 18.2469 28.8661 17.7059V14.5765L33.6475 13.7072L35.2702 5.97044C35.4827 5.10113 36.0718 4.66648 37.0378 4.66648H41.2106V13.7652H62.4223V43.4663ZM63.6683 5.04318C63.6683 5.69999 63.5331 6.32782 63.2626 6.92667C62.9922 7.5062 62.6251 8.01812 62.1615 8.46244C61.7171 8.88742 61.1859 9.23514 60.5677 9.50559C59.9689 9.75672 59.3217 9.88229 58.6262 9.88229C57.9694 9.88229 57.3415 9.75672 56.7427 9.50559C56.1631 9.23514 55.6511 8.88742 55.2069 8.46244C54.7625 8.01812 54.4051 7.5062 54.1346 6.92667C53.8835 6.32782 53.758 5.69999 53.758 5.04318C53.758 4.36706 53.8835 3.73923 54.1346 3.1597C54.4051 2.56085 54.7625 2.03926 55.2069 1.59495C55.6511 1.15065 56.1631 0.802925 56.7427 0.551793C57.3415 0.281342 57.9694 0.146118 58.6262 0.146118C59.3217 0.146118 59.9689 0.281342 60.5677 0.551793C61.1859 0.802925 61.7171 1.15065 62.1615 1.59495C62.6251 2.03926 62.9922 2.56085 63.2626 3.1597C63.5331 3.73923 63.6683 4.36706 63.6683 5.04318Z" fill="#00B4FF"/>
<path d="M77.2748 35.5845C78.0282 36.4539 78.8396 37.0623 79.709 37.41C80.5976 37.7578 81.5152 37.9317 82.4619 37.9317C83.447 37.9317 84.3357 37.7578 85.1278 37.41C85.9391 37.043 86.6346 36.4732 87.2142 35.7004C87.7937 34.9084 88.2381 33.8846 88.5471 32.629C88.8563 31.3732 89.0108 29.8569 89.0108 28.0796C89.0108 26.4955 88.8852 25.1529 88.6341 24.0519C88.383 22.9314 88.0062 22.0138 87.5039 21.2991C87.0209 20.5843 86.4221 20.0627 85.7074 19.7343C84.9926 19.4059 84.1619 19.2417 83.2153 19.2417C81.9596 19.2417 80.8681 19.5218 79.9407 20.082C79.0327 20.623 78.1441 21.4246 77.2748 22.4871V35.5845ZM77.2748 17.0395C78.4533 15.8611 79.7573 14.9145 81.1868 14.1998C82.6163 13.485 84.2198 13.1276 85.9971 13.1276C87.7164 13.1276 89.2619 13.4753 90.6335 14.1708C92.0245 14.8469 93.2029 15.8225 94.1689 17.0974C95.1541 18.3724 95.9075 19.9178 96.4291 21.7337C96.97 23.5302 97.2404 25.5489 97.2404 27.7898C97.2404 30.2046 96.9314 32.4068 96.3132 34.3965C95.7143 36.3669 94.8546 38.0572 93.7341 39.4674C92.6136 40.8776 91.2711 41.969 89.7062 42.7418C88.1608 43.5145 86.4318 43.9009 84.5193 43.9009C83.5919 43.9009 82.7612 43.8043 82.0272 43.611C81.2931 43.4373 80.6169 43.1861 79.9987 42.8577C79.3805 42.5293 78.8107 42.143 78.289 41.6987C77.7675 41.235 77.2748 40.7231 76.8112 40.1628L76.4924 41.9594C76.3572 42.5196 76.135 42.9156 75.8259 43.1474C75.5168 43.36 75.1014 43.4662 74.5799 43.4662H69.277V0.261963H77.2748V17.0395Z" fill="#00B4FF"/>
<path d="M118.005 30.9773C116.054 31.0739 114.431 31.2478 113.137 31.4989C111.843 31.7307 110.809 32.0398 110.036 32.4262C109.283 32.8126 108.742 33.2569 108.414 33.759C108.104 34.242 107.95 34.7732 107.95 35.3528C107.95 36.5118 108.269 37.3329 108.906 37.8158C109.563 38.2988 110.471 38.5402 111.63 38.5402C112.963 38.5402 114.113 38.3084 115.078 37.8448C116.064 37.3618 117.039 36.6181 118.005 35.6136V30.9773ZM101.72 17.735C103.478 16.1509 105.419 14.9725 107.544 14.1998C109.669 13.4078 111.968 13.0117 114.441 13.0117C116.218 13.0117 117.802 13.3015 119.193 13.8811C120.604 14.4606 121.792 15.2719 122.757 16.3151C123.743 17.339 124.496 18.5657 125.018 19.9951C125.539 21.4247 125.8 22.9894 125.8 24.6893V43.4663H122.149C121.395 43.4663 120.816 43.3601 120.41 43.1475C120.024 42.935 119.705 42.4907 119.454 41.8146L118.817 39.9021C118.063 40.5589 117.329 41.1385 116.614 41.6407C115.919 42.143 115.194 42.568 114.441 42.9157C113.688 43.2442 112.876 43.4952 112.007 43.6691C111.157 43.8429 110.201 43.9299 109.138 43.9299C107.824 43.9299 106.627 43.7561 105.545 43.4084C104.463 43.0606 103.526 42.5487 102.734 41.8725C101.961 41.1771 101.362 40.3175 100.937 39.2937C100.512 38.2697 100.3 37.0915 100.3 35.7585C100.3 34.6573 100.58 33.5563 101.14 32.4551C101.7 31.354 102.657 30.3591 104.009 29.4705C105.381 28.5626 107.197 27.8189 109.457 27.2394C111.736 26.6405 114.586 26.3024 118.005 26.2252V24.6893C118.005 22.8155 117.609 21.444 116.817 20.5746C116.025 19.6861 114.885 19.2418 113.398 19.2418C112.297 19.2418 111.379 19.377 110.645 19.6474C109.911 19.8985 109.264 20.1786 108.703 20.4878C108.163 20.7775 107.651 21.0576 107.168 21.3281C106.685 21.5792 106.124 21.7047 105.487 21.7047C104.927 21.7047 104.453 21.5695 104.067 21.2991C103.7 21.0093 103.391 20.6713 103.14 20.2849L101.72 17.735Z" fill="#00B4FF"/>
</svg>
