<svg width="421" height="277" viewBox="0 0 421 277" fill="none" xmlns="http://www.w3.org/2000/svg">
<g clip-path="url(#clip0)">
<path d="M153.523 144.095H127.775L137.032 134.839H162.78L153.523 144.095ZM132.528 142.127H152.709L158.028 136.806H137.847L132.528 142.127Z" fill="white"/>
<path d="M158.57 92.2761H132.823L123.26 82.7123H149.005L158.57 92.2761ZM133.638 90.3087H153.818L148.19 84.6797H128.011L133.638 90.3087Z" fill="white"/>
<path d="M63.5614 144.095H37.8138L28.5566 134.839H54.3044L63.5614 144.095ZM38.6288 142.127H58.8089L53.4892 136.806H33.3091L38.6288 142.127Z" fill="white"/>
<path d="M170.203 127.415H144.456L156.209 115.663L140.246 99.7007H165.993L181.955 115.663L170.203 127.415ZM149.208 125.448H169.389L179.173 115.663L165.177 101.667H144.999L158.992 115.663L149.208 125.448Z" fill="white"/>
<path d="M46.8804 127.415H21.134L9.38184 115.663L59.3186 65.725H85.0662L35.1273 115.663L46.8804 127.415ZM21.949 125.448H42.128L32.3444 115.663L80.3137 67.6924H60.1336L12.1644 115.663L21.949 125.448Z" fill="white"/>
<path d="M95.6687 201.95L50.1152 156.398H75.8617L95.6687 176.205L115.475 156.398H141.223L95.6687 201.95ZM54.8683 158.365L95.6694 199.168L136.47 158.365H116.29L95.6687 178.986L75.0465 158.365H54.8683Z" fill="white"/>
<path d="M124.594 58.3011H66.7422L95.6683 29.3761L124.594 58.3011ZM71.4953 56.3335H119.843L95.6683 32.1587L71.4953 56.3335Z" fill="white"/>
<path d="M141.583 75.2886H115.835L106.272 65.725H132.018L141.583 75.2886ZM116.65 73.3212H136.83L131.202 67.6924H111.022L116.65 73.3212Z" fill="white"/>
<path d="M419.777 85.5992C419.758 85.5526 419.739 85.5062 419.719 85.46C419.706 85.4265 419.692 85.3946 419.679 85.3607C419.665 85.3268 419.65 85.2923 419.635 85.2585C419.182 84.0751 418.362 83.0682 417.294 82.3864L417.01 82.2222L382.457 62.2652L347.906 42.3096L347.621 42.1454C347.199 41.873 346.712 41.7174 346.21 41.6946C345.708 41.6717 345.208 41.7824 344.763 42.0154C344.74 42.0264 344.717 42.0393 344.694 42.0509C344.671 42.0626 344.649 42.0753 344.626 42.0889L340.065 44.7194L342.695 45.8351L333.57 94.2133C333.358 95.5221 333.53 96.8644 334.066 98.0771C334.079 98.1123 334.094 98.1465 334.108 98.1818C334.123 98.2142 334.136 98.2472 334.15 98.2793C334.603 99.4633 335.424 100.471 336.492 101.152L405.406 140.955L404.771 143.99L409.092 141.487C409.115 141.474 409.138 141.463 409.16 141.45C409.623 141.176 410.017 140.801 410.314 140.353C410.611 139.904 410.802 139.394 410.873 138.861L420.217 89.3246C420.422 88.0661 420.27 86.7752 419.777 85.5992Z" fill="white"/>
<g opacity="0.5">
<path opacity="0.5" d="M401.684 143.986L332.01 103.745C330.89 102.927 330.026 101.807 329.52 100.515C329.014 99.2233 328.888 97.8142 329.155 96.453L338.365 47.6225C338.895 44.8123 341.033 43.5206 343.14 44.7375L412.813 84.978C413.934 85.7956 414.798 86.916 415.303 88.2077C415.809 89.4994 415.936 90.9086 415.668 92.2698L406.459 141.1C405.928 143.911 403.79 145.203 401.684 143.986Z" fill="url(#paint0_linear)"/>
<path d="M412.528 84.8142L377.976 64.858L367.149 122.261L401.398 143.822C401.858 144.146 402.395 144.342 402.955 144.39C403.515 144.438 404.078 144.337 404.586 144.096C405.094 143.855 405.529 143.483 405.846 143.019C406.163 142.555 406.351 142.015 406.391 141.454L415.735 91.9169C415.937 90.5502 415.743 89.1541 415.174 87.8948C414.606 86.6356 413.687 85.5662 412.528 84.8142Z" fill="url(#paint1_linear)"/>
<path d="M343.424 44.9022L377.976 64.8583L367.217 121.901L332.294 103.909C331.135 103.157 330.216 102.088 329.648 100.828C329.079 99.569 328.885 98.1727 329.088 96.8059L338.431 47.2692C338.471 46.7084 338.659 46.1683 338.976 45.7041C339.293 45.24 339.728 44.8684 340.236 44.6276C340.744 44.3867 341.307 44.2852 341.867 44.3335C342.427 44.3817 342.964 44.578 343.424 44.9022Z" fill="url(#paint2_linear)"/>
<path d="M329.526 100.531C330.053 101.931 331.026 103.117 332.294 103.909L401.398 143.821C401.892 144.152 402.467 144.343 403.061 144.373C403.655 144.402 404.246 144.27 404.77 143.99L373.809 86.9465L329.526 100.531Z" fill="url(#paint3_linear)"/>
<g filter="url(#filter0_d)">
<path d="M415.295 88.1919C414.768 86.7928 413.796 85.6058 412.527 84.8141L343.423 44.9018C342.929 44.5709 342.354 44.3804 341.76 44.3508C341.166 44.3211 340.576 44.4533 340.051 44.7333L371.012 101.777L415.295 88.1919Z" fill="url(#paint4_linear)"/>
</g>
</g>
<path d="M97.0204 127.605L97.0212 127.603C97.0681 127.485 97.1163 127.368 97.1657 127.251C97.1987 127.167 97.2349 127.085 97.2688 127.001C97.3065 126.915 97.3413 126.828 97.3802 126.743C98.5225 123.753 100.595 121.209 103.293 119.487L104.011 119.072L191.296 68.659L278.581 18.2462L279.299 17.8313C280.366 17.1431 281.596 16.7501 282.865 16.6925C284.133 16.6348 285.394 16.9145 286.519 17.5031C286.578 17.5305 286.634 17.5635 286.692 17.5927C286.749 17.6255 286.808 17.6542 286.864 17.6888L298.388 24.3337L291.744 27.1524L314.795 149.366C315.33 152.672 314.895 156.063 313.542 159.127C313.507 159.216 313.469 159.302 313.433 159.39C313.398 159.472 313.364 159.555 313.327 159.636C312.185 162.627 310.112 165.171 307.414 166.894L133.325 267.443L134.929 275.111L124.013 268.789C123.956 268.756 123.898 268.728 123.843 268.694C122.673 268.003 121.676 267.055 120.926 265.922C120.176 264.79 119.694 263.502 119.514 262.155L95.9116 137.015C95.392 133.837 95.7763 130.576 97.0204 127.605Z" fill="white"/>
<path d="M142.73 275.1L318.737 173.444C324.059 170.37 327.289 162.123 325.95 155.024L302.683 31.6691C301.344 24.5698 295.944 21.3069 290.622 24.3809L114.615 126.037C109.292 129.111 106.063 137.358 107.402 144.457L130.669 267.812C132.008 274.911 137.408 278.174 142.73 275.1Z" fill="url(#paint5_linear)"/>
<path d="M115.333 125.622L202.618 75.209L229.968 220.218L143.448 274.685C137.729 277.988 132.082 275.31 130.836 268.704L107.233 143.565C105.987 136.958 109.614 128.925 115.333 125.622Z" fill="url(#paint6_linear)"/>
<path d="M289.903 24.796L202.618 75.2089L229.797 219.308L318.018 173.859C323.737 170.556 327.364 162.522 326.118 155.916L302.515 30.7769C301.269 24.1704 295.622 21.4928 289.903 24.796Z" fill="url(#paint7_linear)"/>
<path d="M325.009 165.326C323.678 168.861 321.222 171.859 318.018 173.859L143.449 274.685C142.2 275.521 140.748 276.002 139.248 276.077C137.747 276.152 136.254 275.818 134.929 275.111L213.143 131.008L325.009 165.326Z" fill="url(#paint8_linear)"/>
<g filter="url(#filter1_d)">
<path d="M108.343 134.155C109.673 130.62 112.13 127.622 115.334 125.622L289.903 24.796C291.152 23.9603 292.604 23.4792 294.104 23.4043C295.605 23.3293 297.097 23.6632 298.423 24.3703L220.209 168.473L108.343 134.155Z" fill="url(#paint9_linear)"/>
</g>
<path d="M407.837 164.847L406.183 163.193L404.528 164.847L406.183 166.502L407.837 164.847Z" fill="white"/>
<path d="M413.815 164.827L412.16 163.172L410.506 164.827L412.16 166.481L413.815 164.827Z" fill="white"/>
<path d="M410.836 161.848L409.182 160.194L407.527 161.848L409.182 163.503L410.836 161.848Z" fill="white"/>
<path d="M410.816 167.826L409.161 166.171L407.507 167.826L409.161 169.48L410.816 167.826Z" fill="white"/>
<path d="M375.115 215.89H350.259V219.92H375.115V215.89Z" fill="white"/>
<path d="M405.693 215.89H380.837V219.92H405.693V215.89Z" fill="white"/>
<path d="M371.978 230.056H350.179V224.778H371.978V230.056ZM351.428 228.806H370.728V226.027H351.428L351.428 228.806Z" fill="white"/>
<path d="M356.99 234.689H350.258V238.718H356.99V234.689Z" fill="white"/>
</g>
<path opacity="0.31" d="M97.9601 50.8798C97.9601 53.0194 97.3256 55.1109 96.1369 56.8899C94.9482 58.6689 93.2587 60.0555 91.282 60.8743C89.3053 61.693 87.1301 61.9073 85.0317 61.4899C82.9332 61.0725 81.0056 60.0421 79.4927 58.5292C77.9798 57.0163 76.9495 55.0887 76.5321 52.9903C76.1147 50.8918 76.3289 48.7167 77.1477 46.74C77.9665 44.7633 79.353 43.0737 81.132 41.885C82.911 40.6964 85.0026 40.0619 87.1421 40.0619C90.0112 40.0619 92.7628 41.2016 94.7916 43.2304C96.8203 45.2591 97.9601 48.0107 97.9601 50.8798Z" fill="#00B4FF"/>
<path opacity="0.31" d="M320.95 19.1497C326.197 19.1497 330.45 14.8964 330.45 9.64961C330.45 4.40286 326.197 0.149536 320.95 0.149536C315.704 0.149536 311.45 4.40286 311.45 9.64961C311.45 14.8964 315.704 19.1497 320.95 19.1497Z" fill="#00B4FF"/>
<path opacity="0.31" d="M13.6174 185.025C13.6174 186.304 13.2383 187.554 12.5279 188.617C11.8175 189.68 10.8078 190.509 9.62651 190.998C8.44519 191.487 7.1453 191.615 5.89122 191.366C4.63714 191.116 3.48519 190.501 2.58105 189.597C1.67691 188.692 1.06118 187.54 0.811726 186.286C0.562273 185.032 0.690301 183.732 1.17962 182.551C1.66894 181.37 2.49757 180.36 3.56073 179.65C4.62389 178.939 5.87382 178.56 7.15247 178.56C8.86709 178.56 10.5115 179.241 11.7239 180.454C12.9363 181.666 13.6174 183.311 13.6174 185.025Z" fill="#00B4FF"/>
<defs>
<filter id="filter0_d" x="330.051" y="38.3467" width="95.2441" height="77.4301" filterUnits="userSpaceOnUse" color-interpolation-filters="sRGB">
<feFlood flood-opacity="0" result="BackgroundImageFix"/>
<feColorMatrix in="SourceAlpha" type="matrix" values="0 0 0 0 0 0 0 0 0 0 0 0 0 0 0 0 0 0 127 0"/>
<feOffset dy="4"/>
<feGaussianBlur stdDeviation="5"/>
<feColorMatrix type="matrix" values="0 0 0 0 0 0 0 0 0 0 0 0 0 0 0 0 0 0 0.69 0"/>
<feBlend mode="normal" in2="BackgroundImageFix" result="effect1_dropShadow"/>
<feBlend mode="normal" in="SourceGraphic" in2="effect1_dropShadow" result="shape"/>
</filter>
<filter id="filter1_d" x="89.3428" y="8.39392" width="228.08" height="183.079" filterUnits="userSpaceOnUse" color-interpolation-filters="sRGB">
<feFlood flood-opacity="0" result="BackgroundImageFix"/>
<feColorMatrix in="SourceAlpha" type="matrix" values="0 0 0 0 0 0 0 0 0 0 0 0 0 0 0 0 0 0 127 0"/>
<feOffset dy="4"/>
<feGaussianBlur stdDeviation="9.5"/>
<feColorMatrix type="matrix" values="0 0 0 0 0 0 0 0 0 0 0 0 0 0 0 0 0 0 0.25 0"/>
<feBlend mode="normal" in2="BackgroundImageFix" result="effect1_dropShadow"/>
<feBlend mode="normal" in="SourceGraphic" in2="effect1_dropShadow" result="shape"/>
</filter>
<linearGradient id="paint0_linear" x1="333.76" y1="72.0366" x2="416.54" y2="87.6518" gradientUnits="userSpaceOnUse">
<stop stop-color="#7BDAFF"/>
<stop offset="1" stop-color="#59BDEF"/>
</linearGradient>
<linearGradient id="paint1_linear" x1="418.76" y1="181.86" x2="376.832" y2="102.681" gradientUnits="userSpaceOnUse">
<stop offset="0.7677" stop-color="#59BDEF"/>
<stop offset="0.8452" stop-color="#55B8EB"/>
<stop offset="0.9318" stop-color="#49ABE1"/>
<stop offset="1" stop-color="#3A9BD5"/>
</linearGradient>
<linearGradient id="paint2_linear" x1="-75597.8" y1="140488" x2="-72838.8" y2="139797" gradientUnits="userSpaceOnUse">
<stop offset="0.7677" stop-color="#59BDEF"/>
<stop offset="0.8452" stop-color="#55B8EB"/>
<stop offset="0.9318" stop-color="#49ABE1"/>
<stop offset="1" stop-color="#3A9BD5"/>
</linearGradient>
<linearGradient id="paint3_linear" x1="355.796" y1="182.448" x2="397.54" y2="110.174" gradientUnits="userSpaceOnUse">
<stop offset="0.7677" stop-color="#3A9BD5"/>
<stop offset="0.8386" stop-color="#3896D2"/>
<stop offset="0.9179" stop-color="#3189C9"/>
<stop offset="1" stop-color="#2573BA"/>
</linearGradient>
<linearGradient id="paint4_linear" x1="-603277" y1="116017" x2="-599046" y2="118955" gradientUnits="userSpaceOnUse">
<stop stop-color="#7BDAFF"/>
<stop offset="1" stop-color="#59BDEF"/>
</linearGradient>
<linearGradient id="paint5_linear" x1="300086" y1="-341027" x2="265054" y2="-334419" gradientUnits="userSpaceOnUse">
<stop stop-color="#7BDAFF"/>
<stop offset="1" stop-color="#59BDEF"/>
</linearGradient>
<linearGradient id="paint6_linear" x1="142394" y1="-191532" x2="159950" y2="-208443" gradientUnits="userSpaceOnUse">
<stop offset="0.7677" stop-color="#59BDEF"/>
<stop offset="0.8452" stop-color="#55B8EB"/>
<stop offset="0.9318" stop-color="#49ABE1"/>
<stop offset="1" stop-color="#3A9BD5"/>
</linearGradient>
<linearGradient id="paint7_linear" x1="-484945" y1="173480" x2="-502554" y2="169068" gradientUnits="userSpaceOnUse">
<stop offset="0.7677" stop-color="#59BDEF"/>
<stop offset="0.8452" stop-color="#55B8EB"/>
<stop offset="0.9318" stop-color="#49ABE1"/>
<stop offset="1" stop-color="#3A9BD5"/>
</linearGradient>
<linearGradient id="paint8_linear" x1="258978" y1="-217752" x2="247283" y2="-238000" gradientUnits="userSpaceOnUse">
<stop offset="0.7677" stop-color="#3A9BD5"/>
<stop offset="0.8386" stop-color="#3896D2"/>
<stop offset="0.9179" stop-color="#3189C9"/>
<stop offset="1" stop-color="#2573BA"/>
</linearGradient>
<linearGradient id="paint9_linear" x1="261586" y1="-259773" x2="237153" y2="-234990" gradientUnits="userSpaceOnUse">
<stop stop-color="#7BDAFF"/>
<stop offset="1" stop-color="#59BDEF"/>
</linearGradient>
<clipPath id="clip0">
<rect width="410.931" height="259.575" fill="white" transform="translate(9.38184 16.6818)"/>
</clipPath>
</defs>
</svg>
