<svg width="26" height="29" viewBox="0 0 26 29" fill="none" xmlns="http://www.w3.org/2000/svg">
<g opacity="0.25" clip-path="url(#clip0)">
<path d="M24.1464 20.1133C22.3464 18.6223 21.3143 16.443 21.3143 14.1341V10.8815C21.3143 6.77597 18.2024 3.37747 14.1714 2.80814V1.54814C14.1714 0.90297 13.6381 0.38147 12.9809 0.38147C12.3238 0.38147 11.7905 0.90297 11.7905 1.54814V2.80814C7.75832 3.37747 4.6476 6.77597 4.6476 10.8815V14.1341C4.6476 16.443 3.61546 18.6223 1.80474 20.1226C1.34165 20.5111 1.07617 21.0758 1.07617 21.6731C1.07617 22.799 2.0107 23.7148 3.15951 23.7148H22.8024C23.9512 23.7148 24.8857 22.799 24.8857 21.6731C24.8857 21.0758 24.6202 20.5111 24.1464 20.1133Z" fill="#004763"/>
<path d="M12.9812 28.3815C15.1372 28.3815 16.9408 26.8753 17.355 24.8815H8.60742C9.02171 26.8753 10.8253 28.3815 12.9812 28.3815Z" fill="#004763"/>
</g>
<circle cx="19.4805" cy="6.88147" r="5.5" fill="#004763" stroke="#F8F7FB" stroke-width="2"/>
<defs>
<clipPath id="clip0">
<rect width="24" height="28" fill="white" transform="translate(0.980469 0.38147)"/>
</clipPath>
</defs>
</svg>
