<svg width="31" height="35" viewBox="0 0 31 35" fill="none" xmlns="http://www.w3.org/2000/svg">
<path d="M29.2976 12.1527C29.7449 12.1522 30.1739 11.9742 30.4902 11.6579C30.8065 11.3416 30.9845 10.9127 30.985 10.4653V5.96554C30.9845 5.51816 30.8065 5.08926 30.4902 4.77291C30.1739 4.45657 29.7449 4.27863 29.2976 4.27813H28.1726V3.15319C28.172 2.5567 27.9347 1.98482 27.5129 1.56303C27.0911 1.14124 26.5193 0.90399 25.9228 0.90332H2.86157C2.71239 0.90332 2.56933 0.96258 2.46384 1.06806C2.35836 1.17355 2.2991 1.31661 2.2991 1.46579V3.71566H0.611694V4.8406H2.2991V5.96554H3.42404V4.8406H4.13872C4.26254 5.05506 4.45366 5.22267 4.68245 5.31744C4.91124 5.4122 5.1649 5.42883 5.4041 5.36474C5.6433 5.30064 5.85467 5.15941 6.00542 4.96295C6.15617 4.76648 6.23788 4.52577 6.23788 4.27813C6.23788 4.03049 6.15617 3.78978 6.00542 3.59331C5.85467 3.39685 5.6433 3.25562 5.4041 3.19152C5.1649 3.12743 4.91124 3.14406 4.68245 3.23882C4.45366 3.33359 4.26254 3.5012 4.13872 3.71566H3.42404V2.02826H25.9228C26.221 2.02861 26.5069 2.14724 26.7178 2.35813C26.9287 2.56902 27.0473 2.85495 27.0477 3.15319V27.9018C27.0473 28.2 26.9287 28.486 26.7178 28.6969C26.5069 28.9077 26.221 29.0264 25.9228 29.0267H3.42404V27.3393H4.13872C4.26254 27.5538 4.45366 27.7214 4.68245 27.8162C4.91124 27.9109 5.1649 27.9276 5.4041 27.8635C5.6433 27.7994 5.85467 27.6581 6.00542 27.4617C6.15617 27.2652 6.23788 27.0245 6.23788 26.7769C6.23788 26.5292 6.15617 26.2885 6.00542 26.092C5.85467 25.8956 5.6433 25.7544 5.4041 25.6903C5.1649 25.6262 4.91124 25.6428 4.68245 25.7376C4.45366 25.8323 4.26254 25.9999 4.13872 26.2144H3.42404V22.8396H4.13872C4.26254 23.054 4.45366 23.2217 4.68245 23.3164C4.91124 23.4112 5.1649 23.4278 5.4041 23.3637C5.6433 23.2996 5.85467 23.1584 6.00542 22.9619C6.15617 22.7655 6.23788 22.5248 6.23788 22.2771C6.23788 22.0295 6.15617 21.7888 6.00542 21.5923C5.85467 21.3958 5.6433 21.2546 5.4041 21.1905C5.1649 21.1264 4.91124 21.143 4.68245 21.2378C4.45366 21.3326 4.26254 21.5002 4.13872 21.7146H3.42404V18.3398H4.13872C4.26254 18.5543 4.45366 18.7219 4.68245 18.8167C4.91124 18.9114 5.1649 18.9281 5.4041 18.864C5.6433 18.7999 5.85467 18.6587 6.00542 18.4622C6.15617 18.2657 6.23788 18.025 6.23788 17.7774C6.23788 17.5297 6.15617 17.289 6.00542 17.0926C5.85467 16.8961 5.6433 16.7549 5.4041 16.6908C5.1649 16.6267 4.91124 16.6433 4.68245 16.7381C4.45366 16.8328 4.26254 17.0004 4.13872 17.2149H3.42404V13.8401H4.13872C4.26254 14.0546 4.45366 14.2222 4.68245 14.3169C4.91124 14.4117 5.1649 14.4283 5.4041 14.3642C5.6433 14.3001 5.85467 14.1589 6.00542 13.9624C6.15617 13.766 6.23788 13.5253 6.23788 13.2776C6.23788 13.03 6.15617 12.7893 6.00542 12.5928C5.85467 12.3963 5.6433 12.2551 5.4041 12.191C5.1649 12.1269 4.91124 12.1435 4.68245 12.2383C4.45366 12.3331 4.26254 12.5007 4.13872 12.7152H3.42404V9.34035H4.13872C4.26254 9.5548 4.45366 9.72242 4.68245 9.81718C4.91124 9.91195 5.1649 9.92858 5.4041 9.86448C5.6433 9.80039 5.85467 9.65916 6.00542 9.4627C6.15617 9.26623 6.23788 9.02551 6.23788 8.77788C6.23788 8.53024 6.15617 8.28952 6.00542 8.09306C5.85467 7.8966 5.6433 7.75536 5.4041 7.69127C5.1649 7.62718 4.91124 7.6438 4.68245 7.73857C4.45366 7.83334 4.26254 8.00095 4.13872 8.21541H3.42404V7.09047H2.2991V8.21541H0.611694V9.34035H2.2991V12.7152H0.611694V13.8401H2.2991V17.2149H0.611694V18.3398H2.2991V21.7146H0.611694V22.8396H2.2991V26.2144H0.611694V27.3393H2.2991V34.089C2.2991 34.2381 2.35836 34.3812 2.46384 34.4867C2.56933 34.5922 2.71239 34.6514 2.86157 34.6514H21.9855V33.5265H3.42404V32.4015H25.9228C26.3179 32.4018 26.7061 32.2974 27.0477 32.0989V32.4015C27.0473 32.6998 26.9287 32.9857 26.7178 33.1966C26.5069 33.4075 26.221 33.5261 25.9228 33.5265H23.1104V34.6514H25.9228C26.5193 34.6507 27.0911 34.4135 27.5129 33.9917C27.9347 33.5699 28.172 32.998 28.1726 32.4015V25.6519H29.2976C29.7449 25.6514 30.1739 25.4735 30.4902 25.1571C30.8065 24.8408 30.9845 24.4119 30.985 23.9645V19.4648H29.86V23.9645C29.8599 24.1136 29.8006 24.2566 29.6951 24.3621C29.5897 24.4675 29.4467 24.5268 29.2976 24.527H28.1726V18.9023H29.2976C29.7449 18.9018 30.1739 18.7239 30.4902 18.4075C30.8065 18.0912 30.9845 17.6623 30.985 17.2149V12.7152H29.86V17.2149C29.8599 17.364 29.8006 17.507 29.6951 17.6124C29.5897 17.7179 29.4467 17.7772 29.2976 17.7774H28.1726V12.1527H29.2976ZM25.9228 31.2766H3.42404V30.1517H25.9228C26.3179 30.152 26.7061 30.0475 27.0477 29.849V30.1517C27.0473 30.4499 26.9287 30.7358 26.7178 30.9467C26.5069 31.1576 26.221 31.2763 25.9228 31.2766ZM29.2976 5.40307C29.4467 5.40323 29.5897 5.46255 29.6951 5.568C29.8006 5.67344 29.8599 5.81641 29.86 5.96554V10.4653C29.8599 10.6144 29.8006 10.7574 29.6951 10.8628C29.5897 10.9683 29.4467 11.0276 29.2976 11.0278H28.1726V5.40307H29.2976Z" fill="#004763"/>
<path d="M11.1214 11.8398C10.3327 13.0194 10.0188 14.4534 10.2425 15.8547C10.4662 17.2559 11.211 18.5209 12.3278 19.3963C13.4446 20.2717 14.8509 20.6929 16.265 20.5755C17.6791 20.458 18.9967 19.8107 19.9538 18.7631C20.9109 17.7155 21.4369 16.345 21.4264 14.926C21.4159 13.5071 20.8698 12.1445 19.8973 11.1111C18.9249 10.0777 17.5979 9.44992 16.1822 9.35338C14.7665 9.25684 13.3666 9.69871 12.2628 10.5905L12.9704 11.465C13.7689 10.8144 14.7685 10.4611 15.7984 10.4653C16.6165 10.4652 17.419 10.6881 18.1198 11.11C18.8206 11.532 19.3931 12.137 19.7757 12.86C20.1583 13.5831 20.3366 14.3967 20.2913 15.2135C20.246 16.0303 19.9788 16.8192 19.5186 17.4955C19.133 16.9288 18.6231 16.4577 18.0276 16.1181C18.3478 15.7018 18.5451 15.2042 18.597 14.6815C18.6489 14.1589 18.5535 13.6322 18.3215 13.1611C18.0895 12.6899 17.7301 12.2931 17.2842 12.0156C16.8383 11.7382 16.3236 11.5911 15.7984 11.5911C15.2733 11.5911 14.7586 11.7382 14.3126 12.0156C13.8667 12.2931 13.5074 12.6899 13.2754 13.1611C13.0434 13.6322 12.948 14.1589 12.9999 14.6815C13.0518 15.2042 13.249 15.7018 13.5692 16.1181C12.9738 16.4577 12.4639 16.9288 12.0783 17.4955C11.5741 16.7546 11.3027 15.88 11.2988 14.9839C11.2949 14.0878 11.5586 13.2109 12.0562 12.4656L11.1214 11.8398ZM14.7447 16.8212C14.8454 16.7882 14.9348 16.7274 15.0024 16.6458C15.0701 16.5642 15.1134 16.4652 15.1272 16.3601C15.141 16.255 15.1249 16.1482 15.0807 16.0519C15.0364 15.9556 14.9659 15.8737 14.8771 15.8158C14.5724 15.6172 14.3401 15.3255 14.2146 14.9842C14.0892 14.6428 14.0773 14.2701 14.1809 13.9215C14.2845 13.5729 14.4979 13.2671 14.7894 13.0496C15.0808 12.8322 15.4348 12.7147 15.7984 12.7147C16.1621 12.7147 16.516 12.8322 16.8075 13.0496C17.099 13.2671 17.3124 13.5729 17.416 13.9215C17.5195 14.2701 17.5077 14.6428 17.3823 14.9842C17.2568 15.3255 17.0244 15.6172 16.7198 15.8158C16.631 15.8737 16.5605 15.9556 16.5162 16.0519C16.472 16.1482 16.4559 16.255 16.4697 16.3601C16.4835 16.4652 16.5268 16.5642 16.5944 16.6458C16.6621 16.7274 16.7514 16.7882 16.8522 16.8212C17.6523 17.0838 18.3253 17.6363 18.7387 18.37C17.9218 19.0761 16.8782 19.4647 15.7984 19.4647C14.7187 19.4647 13.675 19.0761 12.8582 18.37C13.2716 17.6363 13.9446 17.0838 14.7447 16.8212Z" fill="#004763"/>
</svg>
