<svg width="423" height="353" viewBox="0 0 423 353" fill="none" xmlns="http://www.w3.org/2000/svg">
<path d="M275.339 341.465C275.041 341.425 274.754 341.325 274.495 341.172C274.235 341.019 274.01 340.816 273.831 340.574C268.536 333.438 230.035 277.595 281.274 226.549C329.917 178.09 351.966 168.141 354.898 139.669C355.24 136.344 359.735 135.546 361.214 138.544C372.267 160.945 389.487 213.22 332.5 247.53C269.637 285.378 274.789 326.868 277.829 338.658C277.923 339.017 277.927 339.393 277.84 339.754C277.754 340.115 277.58 340.449 277.334 340.726C277.087 341.004 276.777 341.216 276.429 341.345C276.081 341.474 275.707 341.515 275.339 341.465Z" fill="#00B4FF"/>
<path d="M283.136 342.526C282.44 342.433 281.793 342.118 281.291 341.627C280.789 341.136 280.46 340.495 280.352 339.802C278.851 330.091 275.166 293.805 301.898 284.182C331.327 273.589 355.086 300.997 376.718 279.545C377.856 278.416 379.77 279.4 379.498 280.98C377.572 292.185 368.997 318.141 330.841 323.363C290.002 328.953 285.406 333.638 286.23 339.45C286.485 341.242 284.929 342.77 283.136 342.526H283.136Z" fill="#00B4FF"/>
<path opacity="0.47" d="M353.476 168.697C352.979 170.765 352.326 172.791 351.522 174.759C350.739 176.722 349.855 178.644 348.874 180.516C346.942 184.279 344.623 187.839 342.085 191.23C336.974 197.996 330.79 203.939 323.974 208.979C320.56 211.467 317.013 213.767 313.348 215.868C309.847 217.906 306.478 220.163 303.261 222.624C296.813 227.563 290.952 233.224 285.793 239.497C275.502 252.015 268.197 267.121 265.793 283.204C264.582 291.265 264.535 299.458 265.656 307.532C266.749 315.633 269.057 323.565 272.102 331.213C272.18 331.405 272.179 331.62 272.101 331.812C272.023 332.004 271.873 332.157 271.683 332.24C271.493 332.323 271.278 332.329 271.084 332.256C270.89 332.183 270.732 332.038 270.644 331.85C267.084 324.292 264.423 316.257 262.951 307.961C261.423 299.631 261.182 291.116 262.235 282.713C263.258 274.298 265.632 266.054 269.05 258.294C272.479 250.53 277.009 243.279 282.3 236.664C287.589 230.039 293.726 224.113 300.436 218.935C303.798 216.343 307.32 213.965 310.981 211.815C314.573 209.754 317.983 207.66 321.286 205.276C327.878 200.568 333.97 195.132 339.211 188.928C341.858 185.839 344.281 182.566 346.462 179.132C348.613 175.694 350.624 172.068 352.072 168.317L352.091 168.269C352.157 168.097 352.286 167.957 352.452 167.876C352.617 167.796 352.807 167.782 352.983 167.836C353.159 167.891 353.308 168.01 353.399 168.17C353.491 168.33 353.518 168.518 353.476 168.697L353.476 168.697Z" fill="white"/>
<path opacity="0.47" d="M281.44 335.94C281.564 335.589 281.525 335.262 281.514 334.926L281.483 333.925L281.46 331.925C281.462 330.591 281.492 329.258 281.549 327.926C281.668 325.262 281.894 322.6 282.251 319.952C282.978 314.665 284.176 309.393 286.31 304.428C288.42 299.497 291.616 294.785 296.255 291.706C298.574 290.189 301.159 289.126 303.874 288.572C306.573 288.003 309.346 287.918 312.059 288.157C322.69 289.39 333.11 291.428 343.558 293.083C348.762 293.859 354.039 294.551 359.148 293.853C360.415 293.672 361.664 293.386 362.884 292.999C364.094 292.594 365.263 292.072 366.372 291.441C368.594 290.172 370.547 288.438 372.293 286.514L372.298 286.508C372.413 286.381 372.573 286.305 372.743 286.296C372.914 286.287 373.081 286.345 373.209 286.458C373.336 286.572 373.414 286.731 373.425 286.901C373.436 287.071 373.38 287.239 373.268 287.368C371.499 289.405 369.477 291.288 367.115 292.706C365.932 293.413 364.683 294.003 363.385 294.468C362.085 294.912 360.749 295.248 359.393 295.471C353.952 296.269 348.558 295.591 343.294 294.869C338.015 294.118 332.802 293.139 327.571 292.293C322.357 291.444 317.082 290.624 311.889 290.015C309.325 289.766 306.733 289.827 304.234 290.331C301.731 290.818 299.343 291.775 297.196 293.152C292.88 295.9 289.749 300.274 287.622 305.008C285.471 309.766 284.192 314.918 283.382 320.115C282.982 322.719 282.71 325.345 282.544 327.979C282.462 329.295 282.409 330.614 282.383 331.934L282.37 333.912L282.382 334.9C282.391 335.227 282.376 335.563 282.537 335.874C282.583 335.963 282.606 336.061 282.605 336.161C282.603 336.261 282.577 336.359 282.528 336.446C282.479 336.533 282.41 336.606 282.325 336.66C282.241 336.713 282.145 336.745 282.045 336.752C281.946 336.759 281.846 336.741 281.755 336.7C281.664 336.659 281.585 336.595 281.525 336.516C281.464 336.437 281.424 336.344 281.409 336.245C281.393 336.147 281.402 336.046 281.435 335.952L281.44 335.94Z" fill="white"/>
<path d="M225.894 4.19234C209.877 4.06603 193.721 6.60601 179.427 12.5368C146.153 26.3425 117.915 62.8726 128.966 100.186C132.555 112.307 130.67 125.68 142.745 130.947C149.278 133.797 167.071 135.494 173.836 133.248C191.816 127.278 203.635 110.94 193.856 92.8211C190.724 87.0188 186.671 81.7183 183.967 75.7049C181.263 69.6916 180.03 62.554 182.787 56.5642C188.199 44.807 206.177 41.0694 217.836 41.4221C231.597 41.8384 244.065 48.6446 251.47 60.3204C260.699 74.8721 263.037 92.5716 261.686 109.463C260.241 127.537 252.62 141.34 241.199 155.205C231.366 167.143 220.538 178.601 214.003 192.618C208.003 205.487 206.042 219.745 205.771 233.823C205.719 236.552 192.149 262.267 192.207 270.123C192.215 271.232 207.598 274.909 208.708 274.921C214.499 274.986 230.903 275.17 236.941 275.237C237.537 275.245 238.112 275.015 238.54 274.599C238.967 274.182 239.212 273.613 239.22 273.017C239.65 234.796 251.406 198.357 281.166 172.688C291.994 163.348 303.656 155.742 312.076 143.953C324.078 127.15 329.998 110.613 328.29 89.8757C326.729 70.9358 320.492 51.9856 308.147 37.2905C294.878 21.4962 275.457 11.633 255.272 7.37664C245.609 5.34383 235.768 4.27714 225.894 4.19234Z" fill="#00B4FF"/>
<path d="M255.429 318.083C255.429 335.658 245.687 351.208 228.112 351.208C224.315 351.208 211.402 351.243 208.026 350.023C195.774 345.597 195.729 336.184 195.729 322.405C195.729 304.83 201.664 287.544 219.24 287.544C236.815 287.544 255.429 300.507 255.429 318.083Z" fill="#00B4FF"/>
<path d="M210.674 0.18734C194.657 0.0610242 178.501 2.60102 164.207 8.53176C130.934 22.3375 102.695 58.8676 113.746 96.1809C117.336 108.302 125.636 123.56 137.711 128.828C144.245 131.678 151.851 131.489 158.616 129.243C176.597 123.273 188.415 106.935 178.636 88.8161C175.505 83.0138 171.452 77.7132 168.747 71.6999C166.043 65.6865 164.811 58.549 167.568 52.5591C172.979 40.802 190.958 37.0644 202.616 37.4171C216.377 37.8334 228.845 44.6396 236.25 56.3154C245.479 70.8671 247.817 88.5666 246.467 105.458C245.021 123.532 237.401 137.335 225.98 151.2C216.147 163.138 205.318 174.596 198.783 188.613C192.783 201.482 190.823 215.74 190.552 229.818C190.499 232.547 191.418 261.042 191.476 268.898C191.48 269.431 191.693 269.941 192.069 270.319C192.445 270.696 192.955 270.911 193.488 270.917C199.279 270.981 215.683 271.165 221.721 271.232C222.317 271.24 222.893 271.01 223.32 270.594C223.747 270.177 223.992 269.608 224 269.012C224.43 230.791 236.186 194.352 265.946 168.683C276.775 159.343 288.437 151.737 296.857 139.948C308.858 123.145 314.778 106.608 313.07 85.8707C311.509 66.9308 305.273 47.9806 292.927 33.2855C279.658 17.4912 260.237 7.62809 240.053 3.37169C230.39 1.33886 220.548 0.272163 210.674 0.18734Z" fill="#004763"/>
<path d="M212.333 350.223C229.908 350.223 244.156 335.976 244.156 318.4C244.156 300.825 229.908 286.577 212.333 286.577C194.757 286.577 180.51 300.825 180.51 318.4C180.51 335.976 194.757 350.223 212.333 350.223Z" fill="#004763"/>
<path opacity="0.63" d="M124.278 92.5258C124.185 92.5257 124.095 92.4939 124.023 92.4357C123.951 92.3774 123.9 92.2963 123.88 92.2055C121.65 82.1359 121.322 66.3672 132.427 48.4288C143.266 30.9203 158.47 19.205 177.616 13.6082C198.084 7.62606 222.383 8.90676 249.842 17.415C249.946 17.4471 250.032 17.5189 250.082 17.6147C250.133 17.7104 250.143 17.8222 250.111 17.9256C250.079 18.0289 250.007 18.1154 249.912 18.1659C249.816 18.2165 249.704 18.227 249.601 18.1952C196.847 1.84885 155.481 12.7391 133.122 48.8587C122.161 66.5636 122.48 82.1072 124.677 92.0291C124.691 92.0888 124.69 92.1507 124.676 92.2102C124.662 92.2697 124.635 92.3253 124.597 92.373C124.559 92.4207 124.51 92.4591 124.455 92.4856C124.4 92.512 124.34 92.5257 124.278 92.5258Z" fill="white"/>
<path opacity="0.63" d="M130.973 108.727C130.908 108.728 130.845 108.712 130.788 108.683C130.73 108.654 130.681 108.612 130.643 108.56C130.546 108.428 128.253 105.259 126.12 99.6787C126.083 99.5778 126.087 99.4663 126.131 99.3685C126.176 99.2706 126.257 99.1942 126.357 99.1558C126.458 99.1175 126.569 99.1202 126.668 99.1635C126.766 99.2067 126.844 99.287 126.883 99.387C128.973 104.857 131.279 108.047 131.302 108.078C131.347 108.139 131.373 108.211 131.379 108.286C131.385 108.361 131.371 108.437 131.336 108.504C131.302 108.571 131.25 108.628 131.186 108.667C131.122 108.706 131.048 108.727 130.973 108.727V108.727Z" fill="white"/>
<path opacity="0.63" d="M222.981 297.774C222.917 297.774 222.854 297.759 222.797 297.73C219.556 296.081 215.969 295.226 212.333 295.237C212.225 295.237 212.122 295.193 212.046 295.117C211.969 295.04 211.927 294.937 211.927 294.829C211.927 294.721 211.969 294.617 212.046 294.541C212.122 294.464 212.225 294.421 212.333 294.421C216.098 294.409 219.811 295.294 223.167 297.002C223.248 297.043 223.314 297.111 223.352 297.195C223.391 297.278 223.4 297.372 223.379 297.461C223.357 297.55 223.307 297.63 223.234 297.687C223.162 297.743 223.073 297.774 222.981 297.774Z" fill="white"/>
<path opacity="0.63" d="M199.154 338.354C199.073 338.354 198.993 338.33 198.926 338.284C195.501 335.974 192.731 332.818 190.884 329.122C189.037 325.426 188.176 321.316 188.384 317.19C188.592 313.064 189.863 309.062 192.072 305.571C194.282 302.08 197.356 299.219 200.996 297.265C201.091 297.214 201.203 297.203 201.306 297.234C201.41 297.266 201.496 297.337 201.547 297.432C201.599 297.527 201.61 297.638 201.579 297.742C201.548 297.846 201.478 297.933 201.383 297.984C197.866 299.872 194.897 302.635 192.762 306.007C190.628 309.379 189.401 313.246 189.199 317.231C188.998 321.217 189.83 325.187 191.614 328.757C193.398 332.327 196.074 335.376 199.383 337.607C199.455 337.656 199.51 337.727 199.539 337.81C199.568 337.892 199.57 337.982 199.545 338.065C199.519 338.149 199.467 338.222 199.397 338.274C199.327 338.326 199.241 338.354 199.154 338.354H199.154Z" fill="white"/>
<path d="M266.187 108.349L248.89 126.044L269.638 120.501L266.187 108.349Z" fill="#00B4FF"/>
<path d="M369.109 115.674L270.823 120.443C270.225 120.472 269.627 120.38 269.066 120.171C268.504 119.962 267.991 119.641 267.558 119.228C267.124 118.815 266.779 118.318 266.543 117.768C266.307 117.217 266.186 116.624 266.186 116.025V75.5905C266.186 73.4765 267.008 71.4455 268.48 69.9278C269.951 68.41 271.956 67.5247 274.069 67.4593L362.65 64.7183C365.817 64.7183 368.855 65.9766 371.095 68.2166C373.335 70.4565 374.594 73.4945 374.594 76.6622V109.916C374.594 111.396 374.024 112.82 373.003 113.892C371.982 114.964 370.588 115.602 369.109 115.674Z" fill="#00B4FF"/>
<path opacity="0.85" d="M273.764 118.82C272.154 118.817 270.61 118.176 269.473 117.036C268.335 115.897 267.696 114.352 267.696 112.742V76.2986C267.696 72.0037 271.14 68.5355 275.536 68.4028L361.302 65.8129C367.802 65.8129 373.086 70.971 373.086 77.3111V108.731C373.086 111.754 370.664 114.237 367.572 114.384L274.06 118.813C273.961 118.817 273.863 118.819 273.764 118.82ZM361.308 66.239L275.548 68.8289C271.384 68.9546 268.122 72.2357 268.122 76.2986V112.742C268.122 113.507 268.277 114.263 268.578 114.966C268.879 115.669 269.32 116.304 269.873 116.832C270.426 117.359 271.081 117.769 271.797 118.037C272.514 118.304 273.277 118.423 274.041 118.387L367.552 113.958C370.416 113.823 372.659 111.527 372.659 108.731V77.3111C372.659 71.206 367.567 66.239 361.308 66.239Z" fill="white"/>
<path d="M361.023 73.6111L282.433 76.5525C281.661 76.5814 281.053 77.0929 281.079 77.6922L281.108 78.383C281.134 78.976 281.77 79.4317 282.534 79.4038L361.128 76.5339C361.9 76.5057 362.508 75.9939 362.483 75.3941L362.45 74.6319C362.425 74.0384 361.788 73.5825 361.023 73.6111Z" fill="url(#paint0_linear)"/>
<path d="M353.989 93.5076L275.398 96.4339C274.626 96.4627 274.019 96.9916 274.046 97.6123L274.076 98.3278C274.103 98.9421 274.74 99.4151 275.503 99.3873L354.098 96.5349C354.87 96.5069 355.478 95.9778 355.451 95.3565L355.418 94.567C355.391 93.9523 354.753 93.4791 353.989 93.5076Z" fill="url(#paint1_linear)"/>
<path d="M363.171 101.831L275.559 105.139C274.699 105.171 274.02 105.708 274.047 106.335L274.078 107.057C274.104 107.678 274.812 108.152 275.663 108.121L363.279 104.888C364.14 104.856 364.82 104.319 364.793 103.692L364.759 102.894C364.732 102.274 364.023 101.798 363.171 101.831Z" fill="url(#paint2_linear)"/>
<path d="M317.933 85.3415L275.098 86.5902C274.677 86.6024 274.363 87.1798 274.397 87.8765L274.437 88.6796C274.471 89.3691 274.834 89.9159 275.25 89.9046L318.09 88.7389C318.511 88.7275 318.826 88.1499 318.791 87.4526L318.747 86.5664C318.713 85.8764 318.35 85.3294 317.933 85.3415Z" fill="url(#paint3_linear)"/>
<path d="M365.131 83.8609L324.644 85.0215C324.246 85.0329 323.951 85.6096 323.985 86.3063L324.025 87.1094C324.059 87.7988 324.404 88.3463 324.798 88.3359L365.29 87.2582C365.688 87.2477 365.984 86.6708 365.949 85.9735L365.905 85.0873C365.871 84.3973 365.525 83.8496 365.131 83.8609Z" fill="url(#paint4_linear)"/>
<path d="M116.952 338.696C116.952 338.696 116.142 343.282 115.745 347.822C115.709 348.243 115.759 348.667 115.892 349.068C116.024 349.469 116.237 349.839 116.517 350.156C116.796 350.472 117.137 350.729 117.519 350.911C117.9 351.092 118.315 351.194 118.737 351.211C124.783 351.463 137.715 351.952 142.356 351.745C142.518 351.737 142.675 351.691 142.816 351.61C142.956 351.529 143.075 351.415 143.163 351.279C143.25 351.142 143.304 350.987 143.32 350.826C143.335 350.664 143.312 350.502 143.251 350.351C143.035 349.807 142.618 349.368 142.086 349.123L120.724 339.305L116.952 338.696Z" fill="#004763"/>
<path d="M116.287 336.001L116.938 341.487C116.938 341.487 120.68 343.229 123.236 341.267L121.686 335.153L116.287 336.001Z" fill="url(#paint5_linear)"/>
<path d="M116.776 232.864C116.495 234.297 115.267 304.355 122.756 335.75C122.817 335.997 122.787 336.258 122.673 336.485C122.558 336.713 122.366 336.892 122.131 336.99C120.182 337.743 118.12 338.162 116.032 338.229C115.625 338.242 115.226 338.12 114.896 337.882C114.567 337.643 114.326 337.302 114.211 336.912C112.071 329.628 101.813 293.132 100.475 258.268C98.9799 219.312 100.475 256.942 100.475 256.942L101.352 232.862L116.776 232.864Z" fill="#004763"/>
<path d="M92.3765 341.088C92.3765 341.088 91.0869 343.403 89.8384 349.556C89.7842 349.818 89.7857 350.088 89.8427 350.349C89.8997 350.61 90.011 350.857 90.1693 351.072C90.3277 351.288 90.5295 351.468 90.7618 351.6C90.9941 351.733 91.2516 351.815 91.5177 351.841C93.514 352.038 96.5874 352.29 99.0491 352.273C99.317 352.272 99.5817 352.215 99.8259 352.105C100.07 351.994 100.288 351.834 100.466 351.633C100.644 351.433 100.777 351.197 100.858 350.942C100.938 350.686 100.964 350.417 100.933 350.15C100.66 347.905 99.8107 344.22 97.1863 341.349L92.3765 341.088Z" fill="#004763"/>
<path d="M91.2461 334.032L92.767 342.328C92.767 342.328 94.2708 343.447 97.2455 342.636L96.5196 333.71L91.2461 334.032Z" fill="url(#paint6_linear)"/>
<path d="M87.1371 235.014C81.0124 271.977 88.4656 326.372 90.9793 337.018C91.0535 337.337 91.2204 337.627 91.4589 337.851C91.6975 338.075 91.997 338.224 92.3199 338.278C93.4419 338.464 95.2892 338.616 97.1104 338.087C97.4166 337.998 97.6869 337.814 97.8832 337.563C98.0795 337.312 98.1918 337.005 98.2043 336.686C98.5415 328.079 97.9345 275.239 103.641 254.357C103.931 253.299 104.577 252.374 105.471 251.74L116.548 243.865L117.397 231.137L87.1371 235.014Z" fill="#004763"/>
<path d="M126.163 164.977C107.809 164.673 87.5567 169.796 87.5567 169.796C82.0856 201.72 86.6 238.542 86.6 238.542C100.81 242.268 116.839 236.263 116.839 236.263C119.201 222.92 130.22 185.367 130.22 185.367C139.188 184.254 146.576 181.667 152.659 178.246C148.019 172.867 145.831 166.022 144.881 161.976C138.391 163.993 131.825 165.07 126.163 164.977Z" fill="#004763"/>
<path d="M180.379 137.941C178.576 135.764 176.294 136.794 176.294 136.794C173.592 148.203 159.43 157.454 144.88 161.976C145.83 166.022 148.018 172.867 152.658 178.246C176.806 164.669 180.379 137.941 180.379 137.941Z" fill="url(#paint7_linear)"/>
<path d="M179.942 138.495C180.131 139.095 177.946 140.008 176.66 137.555C176.615 136.38 175.9 131.343 176.602 130.385C180.344 125.284 187.598 118.89 187.598 118.89C188.824 120.1 187.814 121.288 187.814 121.288L184.295 124.954C185.031 126.284 185.929 127.407 186.349 129.016C186.657 130.244 186.481 131.543 185.858 132.645C185.24 133.758 184.397 135.204 183.6 136.336C182.093 138.479 179.942 138.495 179.942 138.495Z" fill="url(#paint8_linear)"/>
<path d="M182.756 127.332L179.549 130.051L178.542 132.757L181.401 135.929C181.401 135.929 182.362 130.559 183.077 129.397C183.791 128.234 183.421 127.672 182.756 127.332Z" fill="url(#paint9_linear)"/>
<path d="M94.5975 187.569L87.5574 169.796C87.5574 169.796 70.4132 181.445 67.5938 196.214C70.8331 196.453 76.7278 197.295 82.4976 200.209C83.7655 193.235 94.5975 187.569 94.5975 187.569Z" fill="#004763"/>
<path d="M109.579 204.292C109.579 204.292 90.3303 215.17 83.8354 205.882C82.487 203.953 82.1646 202.036 82.4968 200.209C76.727 197.295 70.8324 196.453 67.593 196.214C66.7429 200.667 67.1923 205.402 69.8087 210.188C81.1853 230.999 112.126 209.038 112.126 209.038L109.579 204.292Z" fill="url(#paint10_linear)"/>
<path d="M107.266 218.054L117.771 181.368C117.829 181.164 117.946 180.982 118.107 180.845C118.268 180.708 118.466 180.622 118.676 180.597C120.579 180.375 126.095 179.752 132.462 179.213C140.133 178.565 149.04 178.039 154.363 178.486C154.538 178.5 154.706 178.556 154.854 178.651C155.002 178.745 155.125 178.874 155.211 179.026C155.298 179.178 155.346 179.35 155.351 179.525C155.356 179.7 155.318 179.874 155.241 180.031C152.214 186.155 139.763 211.065 133.528 219.225C133.427 219.358 133.296 219.466 133.145 219.54C132.995 219.614 132.829 219.651 132.662 219.65L108.288 219.423C108.123 219.422 107.96 219.382 107.812 219.307C107.665 219.232 107.537 219.124 107.438 218.992C107.339 218.859 107.272 218.706 107.242 218.543C107.212 218.38 107.221 218.213 107.266 218.054Z" fill="#00B4FF"/>
<path d="M133.551 176.033L141.168 174.764C141.261 174.748 141.356 174.757 141.444 174.789C141.533 174.821 141.612 174.876 141.673 174.947C141.734 175.019 141.776 175.105 141.794 175.197C141.812 175.289 141.806 175.385 141.777 175.474L141.023 177.759C140.991 177.856 140.932 177.943 140.853 178.008C140.774 178.074 140.678 178.116 140.576 178.129L133.247 179.108C133.159 179.12 133.07 179.11 132.987 179.08C132.904 179.05 132.829 178.999 132.77 178.934C132.71 178.868 132.668 178.789 132.645 178.704C132.623 178.618 132.622 178.528 132.642 178.442L133.109 176.447C133.134 176.342 133.189 176.247 133.267 176.173C133.346 176.099 133.445 176.051 133.551 176.033Z" fill="#BDD0FB"/>
<path d="M127.849 182.481L128.477 179.212C128.508 179.053 128.589 178.907 128.709 178.798C128.829 178.688 128.981 178.62 129.143 178.603L144.526 177.042C144.646 177.03 144.767 177.047 144.88 177.091C144.992 177.135 145.092 177.206 145.171 177.297C145.251 177.388 145.307 177.496 145.336 177.613C145.365 177.73 145.365 177.853 145.337 177.97L144.359 182.043C144.321 182.201 144.232 182.344 144.107 182.448C143.981 182.552 143.825 182.613 143.662 182.621L128.629 183.378C128.515 183.383 128.401 183.363 128.296 183.318C128.19 183.273 128.096 183.205 128.021 183.119C127.946 183.032 127.892 182.93 127.862 182.82C127.832 182.709 127.828 182.593 127.849 182.481Z" fill="#BDD0FB"/>
<path d="M109.805 209.191C109.805 209.191 108.342 203.173 108.932 201.039C109.522 198.904 110.666 196.159 114.478 196.769C118.291 197.379 122.788 198.985 122.788 198.985C122.788 198.985 122.56 201.765 119.663 200.868L121.46 202.258C121.46 202.258 121.203 204.485 118.756 203.295L120.427 205.139C120.427 205.139 119.376 206.968 117.575 205.795C115.775 204.622 114.912 209.915 109.805 209.191Z" fill="url(#paint11_linear)"/>
<path d="M107.572 150.076L101.732 166.965C101.684 167.1 101.686 167.248 101.737 167.382C101.787 167.516 101.884 167.628 102.009 167.698C103.601 168.578 109.336 171.122 116.248 166.74C116.605 166.517 116.908 166.217 117.136 165.864C117.364 165.51 117.512 165.11 117.568 164.693L119.459 150.076L107.572 150.076Z" fill="url(#paint12_linear)"/>
<path d="M120.28 134.435C120.28 134.435 126.693 146.507 125.871 151.384C125.049 156.26 117.101 155.91 110.16 151.95L105.311 138.915L120.28 134.435Z" fill="url(#paint13_linear)"/>
<path d="M110.466 145.548C110.532 145.519 110.591 145.476 110.639 145.422C110.687 145.368 110.723 145.304 110.743 145.235C110.764 145.165 110.769 145.092 110.759 145.021C110.749 144.949 110.723 144.881 110.683 144.82C110.169 144.035 109.206 142.434 108.899 141.032C108.899 141.032 107.746 140.293 111.833 139.315C115.92 138.337 122.015 136.818 123.297 133.34C124.546 129.948 121.264 121.418 116.028 128.214C115.982 128.275 115.922 128.324 115.854 128.358C115.786 128.392 115.711 128.41 115.635 128.411C115.559 128.411 115.484 128.394 115.415 128.361C115.346 128.328 115.286 128.28 115.24 128.22C114.381 127.102 112.125 124.784 108.992 126.189C106.06 127.505 105.73 129.653 105.77 130.736C105.773 130.811 105.759 130.885 105.73 130.953C105.7 131.021 105.655 131.082 105.599 131.131C105.543 131.18 105.476 131.215 105.404 131.234C105.332 131.254 105.257 131.257 105.184 131.243C103.701 130.96 100.144 130.717 98.4839 134.366C97.1162 137.372 98.0052 139.073 98.8146 139.906C98.8748 139.967 98.9181 140.042 98.9403 140.125C98.9626 140.207 98.9631 140.295 98.9417 140.377C98.9203 140.46 98.8778 140.536 98.8184 140.598C98.7589 140.66 98.6844 140.705 98.6023 140.729C97.6282 141.027 96.3702 141.853 96.4961 144.136C96.6702 147.291 100.198 147.013 101.202 146.869C101.283 146.857 101.366 146.865 101.443 146.892C101.52 146.92 101.589 146.965 101.644 147.026C102.506 147.979 106.386 152.026 110.586 152.513C110.67 152.522 110.754 152.51 110.832 152.477C110.91 152.444 110.978 152.392 111.031 152.326C111.083 152.26 111.118 152.182 111.132 152.099C111.147 152.016 111.14 151.93 111.112 151.85L109.294 146.567C109.254 146.449 109.259 146.319 109.309 146.205C109.359 146.09 109.45 145.998 109.565 145.947L110.466 145.548Z" fill="#00B4FF"/>
<path d="M111.197 146.298C111.197 146.298 106.631 143.165 106.297 145.804C105.963 148.442 110.409 149.625 112.611 148.641L111.197 146.298Z" fill="url(#paint14_linear)"/>
<path opacity="0.31" d="M111.19 95.8556C111.19 98.2842 110.47 100.658 109.121 102.678C107.772 104.697 105.854 106.271 103.61 107.2C101.366 108.13 98.8974 108.373 96.5155 107.899C94.1336 107.425 91.9456 106.256 90.2283 104.538C88.5111 102.821 87.3416 100.633 86.8678 98.2512C86.394 95.8692 86.6372 93.4003 87.5665 91.1566C88.4959 88.9128 90.0698 86.9951 92.0891 85.6458C94.1084 84.2966 96.4824 83.5764 98.911 83.5764C102.168 83.5764 105.291 84.8701 107.594 87.1729C109.897 89.4757 111.19 92.599 111.19 95.8556Z" fill="#00B4FF"/>
<path opacity="0.31" d="M364.303 59.8393C370.258 59.8393 375.086 55.0114 375.086 49.0559C375.086 43.1004 370.258 38.2726 364.303 38.2726C358.347 38.2726 353.52 43.1004 353.52 49.0559C353.52 55.0114 358.347 59.8393 364.303 59.8393Z" fill="#00B4FF"/>
<path opacity="0.31" d="M422.222 154.155C422.222 155.606 421.792 157.025 420.985 158.232C420.179 159.439 419.033 160.38 417.692 160.935C416.351 161.491 414.875 161.636 413.452 161.353C412.028 161.07 410.721 160.371 409.694 159.344C408.668 158.318 407.969 157.01 407.686 155.587C407.403 154.163 407.548 152.688 408.104 151.347C408.659 150.006 409.6 148.86 410.807 148.053C412.013 147.247 413.432 146.817 414.884 146.817C416.83 146.817 418.696 147.59 420.073 148.966C421.449 150.342 422.222 152.209 422.222 154.155Z" fill="#00B4FF"/>
<path opacity="0.31" d="M15.4548 248.121C15.4548 249.573 15.0245 250.991 14.2181 252.198C13.4118 253.405 12.2657 254.345 10.9248 254.901C9.58392 255.456 8.10844 255.602 6.68496 255.318C5.26148 255.035 3.95392 254.336 2.92765 253.31C1.90138 252.284 1.20247 250.976 0.919326 249.553C0.636178 248.129 0.7815 246.654 1.33692 245.313C1.89233 243.972 2.83289 242.826 4.03966 242.02C5.24644 241.213 6.66521 240.783 8.11658 240.783C10.0628 240.783 11.9293 241.556 13.3055 242.932C14.6817 244.308 15.4548 246.175 15.4548 248.121Z" fill="#00B4FF"/>
<defs>
<linearGradient id="paint0_linear" x1="195714" y1="6218.04" x2="248265" y2="6218.04" gradientUnits="userSpaceOnUse">
<stop stop-color="#DAE3FE"/>
<stop offset="1" stop-color="#E9EFFD"/>
</linearGradient>
<linearGradient id="paint1_linear" x1="191172" y1="7260.27" x2="243726" y2="7260.27" gradientUnits="userSpaceOnUse">
<stop stop-color="#DAE3FE"/>
<stop offset="1" stop-color="#E9EFFD"/>
</linearGradient>
<linearGradient id="paint2_linear" x1="213075" y1="8195.33" x2="278381" y2="8195.33" gradientUnits="userSpaceOnUse">
<stop stop-color="#DAE3FE"/>
<stop offset="1" stop-color="#E9EFFD"/>
</linearGradient>
<linearGradient id="paint3_linear" x1="104512" y1="5326.02" x2="120145" y2="5326.02" gradientUnits="userSpaceOnUse">
<stop stop-color="#DAE3FE"/>
<stop offset="1" stop-color="#E9EFFD"/>
</linearGradient>
<linearGradient id="paint4_linear" x1="115361" y1="5169.22" x2="129329" y2="5169.22" gradientUnits="userSpaceOnUse">
<stop stop-color="#DAE3FE"/>
<stop offset="1" stop-color="#E9EFFD"/>
</linearGradient>
<linearGradient id="paint5_linear" x1="116.287" y1="338.677" x2="123.236" y2="338.677" gradientUnits="userSpaceOnUse">
<stop stop-color="#FEBBBA"/>
<stop offset="1" stop-color="#FF928E"/>
</linearGradient>
<linearGradient id="paint6_linear" x1="44365.1" y1="29255.1" x2="44650.5" y2="29255.1" gradientUnits="userSpaceOnUse">
<stop stop-color="#FEBBBA"/>
<stop offset="1" stop-color="#FF928E"/>
</linearGradient>
<linearGradient id="paint7_linear" x1="108526" y1="57416.2" x2="103954" y2="68537.5" gradientUnits="userSpaceOnUse">
<stop stop-color="#FEBBBA"/>
<stop offset="1" stop-color="#FF928E"/>
</linearGradient>
<linearGradient id="paint8_linear" x1="37117.5" y1="28568.3" x2="34336.7" y2="33234.3" gradientUnits="userSpaceOnUse">
<stop stop-color="#FEBBBA"/>
<stop offset="1" stop-color="#FF928E"/>
</linearGradient>
<linearGradient id="paint9_linear" x1="14731.7" y1="13713" x2="15514.6" y2="12808.6" gradientUnits="userSpaceOnUse">
<stop stop-color="#FEBBBA"/>
<stop offset="1" stop-color="#FF928E"/>
</linearGradient>
<linearGradient id="paint10_linear" x1="323027" y1="48369.7" x2="339032" y2="48369.7" gradientUnits="userSpaceOnUse">
<stop stop-color="#FEBBBA"/>
<stop offset="1" stop-color="#FF928E"/>
</linearGradient>
<linearGradient id="paint11_linear" x1="105340" y1="26144.4" x2="106893" y2="26144.4" gradientUnits="userSpaceOnUse">
<stop stop-color="#FEBBBA"/>
<stop offset="1" stop-color="#FF928E"/>
</linearGradient>
<linearGradient id="paint12_linear" x1="132651" y1="33095.4" x2="135152" y2="33095.4" gradientUnits="userSpaceOnUse">
<stop stop-color="#FEBBBA"/>
<stop offset="1" stop-color="#FF928E"/>
</linearGradient>
<linearGradient id="paint13_linear" x1="51627.8" y1="49877" x2="48447.1" y2="47931.9" gradientUnits="userSpaceOnUse">
<stop stop-color="#FEBBBA"/>
<stop offset="1" stop-color="#FF928E"/>
</linearGradient>
<linearGradient id="paint14_linear" x1="10815.8" y1="10091.7" x2="10248.4" y2="9667.67" gradientUnits="userSpaceOnUse">
<stop stop-color="#FEBBBA"/>
<stop offset="1" stop-color="#FF928E"/>
</linearGradient>
</defs>
</svg>
