<svg width="19" height="20" viewBox="0 0 19 20" fill="none" xmlns="http://www.w3.org/2000/svg">
<path d="M18.7678 18.5309L13.3648 13.1278C14.4114 11.8351 15.0415 10.1924 15.0415 8.40322C15.0415 4.25651 11.6674 0.882446 7.52074 0.882446C3.37403 0.882446 0 4.25647 0 8.40318C0 12.5499 3.37406 15.924 7.52077 15.924C9.30991 15.924 10.9526 15.2938 12.2454 14.2472L17.6485 19.6503C17.8028 19.8047 18.0055 19.8823 18.2082 19.8823C18.4109 19.8823 18.6135 19.8047 18.7679 19.6503C19.0774 19.3408 19.0774 18.8404 18.7678 18.5309ZM7.52077 14.3406C4.24646 14.3406 1.58333 11.6775 1.58333 8.40318C1.58333 5.12887 4.24646 2.46574 7.52077 2.46574C10.7951 2.46574 13.4582 5.12887 13.4582 8.40318C13.4582 11.6775 10.795 14.3406 7.52077 14.3406Z" fill="#004763"/>
</svg>
