<svg width="17" height="18" viewBox="0 0 17 18" fill="none" xmlns="http://www.w3.org/2000/svg">
<path d="M15.9883 10.9143L14.4696 9.72676C14.4889 9.54363 14.5054 9.32955 14.5054 9.10305C14.5054 8.87655 14.4896 8.66247 14.4696 8.47934L15.9897 7.29113C16.2719 7.06808 16.349 6.67223 16.1694 6.3425L14.5901 3.61011C14.4214 3.30171 14.0518 3.14336 13.6766 3.28173L11.8846 4.00113C11.5411 3.75329 11.181 3.54402 10.8086 3.37674L10.536 1.47601C10.4912 1.11527 10.1773 0.842651 9.80627 0.842651H6.63953C6.26846 0.842651 5.95525 1.11527 5.91117 1.47049L5.63788 3.37812C5.27713 3.5406 4.92262 3.74713 4.56394 4.00251L2.76715 3.28106C2.43048 3.15094 2.02776 3.29687 1.86047 3.60392L0.279182 6.33972C0.0926302 6.65503 0.169723 7.06463 0.458183 7.2932L1.97683 8.48073C1.95273 8.71271 1.94105 8.91443 1.94105 9.10376C1.94105 9.29309 1.95276 9.49477 1.97683 9.72747L0.456795 10.9157C0.174531 11.1394 0.0981161 11.5353 0.277794 11.8643L1.85705 14.5967C2.02572 14.9044 2.39195 15.0641 2.77057 14.925L4.56255 14.2057C4.90538 14.4528 5.26542 14.6621 5.63788 14.83L5.91049 16.7301C5.95522 17.0922 6.26846 17.3648 6.64021 17.3648H9.80695C10.178 17.3648 10.4919 17.0922 10.536 16.737L10.8093 14.83C11.17 14.6669 11.5239 14.461 11.8832 14.2049L13.68 14.9264C13.7667 14.9601 13.8569 14.9774 13.9499 14.9774C14.217 14.9774 14.4627 14.8314 14.5867 14.6042L16.1728 11.8574C16.349 11.5352 16.2719 11.1394 15.9883 10.9143ZM8.22289 11.8574C6.70423 11.8574 5.4692 10.6224 5.4692 9.10373C5.4692 7.58508 6.70423 6.35005 8.22289 6.35005C9.74154 6.35005 10.9766 7.58508 10.9766 9.10373C10.9766 10.6224 9.74154 11.8574 8.22289 11.8574Z" fill="#004763"/>
</svg>
