<svg width="24" height="24" viewBox="0 0 24 24" fill="none" xmlns="http://www.w3.org/2000/svg">
<path d="M10.9226 1.5001C11.2713 0.698766 12.4078 0.698766 12.7565 1.5001L15.3842 7.53886C15.5291 7.872 15.8434 8.10031 16.205 8.13523L22.7602 8.76822C23.6301 8.85222 23.9813 9.93312 23.3269 10.5124L18.3957 14.8775C18.1237 15.1183 18.0036 15.4877 18.0822 15.8425L19.5058 22.2724C19.6948 23.1257 18.7753 23.7937 18.0222 23.3504L12.3468 20.0094C12.0338 19.8251 11.6453 19.8251 11.3322 20.0094L5.65691 23.3504C4.9038 23.7937 3.98433 23.1257 4.17325 22.2724L5.59691 15.8425C5.67545 15.4877 5.55542 15.1183 5.28338 14.8775L0.352171 10.5124C-0.302194 9.93312 0.0490108 8.85222 0.918877 8.76823L7.47408 8.13523C7.83571 8.10031 8.14995 7.872 8.29491 7.53886L10.9226 1.5001Z" fill="#CAF55F"/>
</svg>
