<svg width="24" height="24" viewBox="0 0 24 24" fill="none" xmlns="http://www.w3.org/2000/svg">
<path d="M10.9347 1.50682C11.2834 0.70548 12.4199 0.70548 12.7686 1.50682L15.3963 7.54558C15.5412 7.87872 15.8555 8.10703 16.2171 8.14195L22.7723 8.77494C23.6422 8.85894 23.9934 9.93983 23.339 10.5191L18.4078 14.8842C18.1358 15.125 18.0157 15.4945 18.0943 15.8492L19.5179 22.2792C19.7068 23.1324 18.7874 23.8004 18.0343 23.3571L12.3589 20.0161C12.0458 19.8318 11.6574 19.8318 11.3443 20.0161L5.66899 23.3571C4.91588 23.8004 3.99642 23.1324 4.18533 22.2792L5.60899 15.8492C5.68753 15.4945 5.5675 15.125 5.29546 14.8842L0.364256 10.5191C-0.290109 9.93984 0.0610957 8.85894 0.930962 8.77494L7.48616 8.14195C7.84779 8.10703 8.16204 7.87872 8.307 7.54558L10.9347 1.50682Z" fill="#00B4FF"/>
</svg>
