<svg width="422" height="289" viewBox="0 0 422 289" fill="none" xmlns="http://www.w3.org/2000/svg">
<g clip-path="url(#clip0)">
<g opacity="0.41">
<path opacity="0.41" d="M406.298 206.223C407.384 185.151 402.9 164.166 393.297 145.378C383.694 126.591 369.311 110.665 351.597 99.2038C348.443 97.1489 345.786 94.4196 343.815 91.213C341.844 88.0064 340.61 84.4023 340.201 80.6608C340.156 80.2511 340.107 79.8408 340.056 79.4299C333.797 29.2771 286.923 -5.9552 236.995 0.838563C189.238 7.33682 154.858 32.5728 159.937 81.1721C159.961 81.4006 159.987 81.7332 160.015 82.1543C160.216 85.2853 159.78 88.4245 158.734 91.3823C157.688 94.3402 156.052 97.0551 153.927 99.3631C151.802 101.671 149.231 103.524 146.369 104.811C143.507 106.097 140.415 106.789 137.278 106.847C134.504 106.912 131.711 107.091 128.901 107.383C109.023 109.51 90.181 117.328 74.6359 129.898C59.0907 142.468 47.5031 159.257 41.2634 178.25C35.0238 197.243 34.3973 217.633 39.4591 236.973C44.5209 256.314 55.056 273.782 69.8 287.283H366.798C389.374 265.679 404.978 235.706 406.298 206.223Z" fill="#00B4FF"/>
</g>
<path opacity="0.31" d="M110.412 67.142C110.412 69.5706 109.692 71.9447 108.343 73.964C106.993 75.9833 105.076 77.5571 102.832 78.4865C100.588 79.4159 98.1191 79.6591 95.7372 79.1853C93.3552 78.7115 91.1673 77.542 89.45 75.8247C87.7327 74.1074 86.5633 71.9195 86.0895 69.5375C85.6157 67.1556 85.8588 64.6867 86.7882 62.4429C87.7176 60.1992 89.2915 58.2815 91.3108 56.9322C93.3301 55.583 95.7041 54.8628 98.1327 54.8628C101.389 54.8628 104.513 56.1565 106.815 58.4593C109.118 60.7621 110.412 63.8853 110.412 67.142Z" fill="#00B4FF"/>
<path opacity="0.31" d="M363.525 31.1256C369.48 31.1256 374.308 26.2977 374.308 20.3422C374.308 14.3868 369.48 9.5589 363.525 9.5589C357.569 9.5589 352.741 14.3868 352.741 20.3422C352.741 26.2977 357.569 31.1256 363.525 31.1256Z" fill="#00B4FF"/>
<path opacity="0.31" d="M421.444 125.441C421.444 126.893 421.013 128.312 420.207 129.519C419.401 130.725 418.255 131.666 416.914 132.222C415.573 132.777 414.097 132.922 412.674 132.639C411.25 132.356 409.942 131.657 408.916 130.631C407.89 129.604 407.191 128.297 406.908 126.873C406.624 125.45 406.77 123.974 407.325 122.633C407.881 121.292 408.821 120.146 410.028 119.34C411.235 118.533 412.654 118.103 414.105 118.103C416.052 118.103 417.918 118.876 419.294 120.253C420.67 121.629 421.444 123.495 421.444 125.441Z" fill="#00B4FF"/>
<path opacity="0.31" d="M14.6765 219.408C14.6765 220.859 14.2461 222.278 13.4398 223.484C12.6335 224.691 11.4874 225.632 10.1465 226.187C8.8056 226.743 7.33012 226.888 5.90664 226.605C4.48316 226.322 3.1756 225.623 2.14933 224.597C1.12306 223.57 0.424154 222.263 0.141006 220.839C-0.142142 219.416 0.00317953 217.94 0.558595 216.599C1.11401 215.258 2.05457 214.112 3.26134 213.306C4.46812 212.5 5.88689 212.069 7.33826 212.069C9.28449 212.069 11.151 212.842 12.5272 214.219C13.9034 215.595 14.6765 217.461 14.6765 219.408Z" fill="#00B4FF"/>
<path opacity="0.4" d="M379.068 218.151C379.994 200.18 376.17 182.283 367.98 166.26C359.79 150.237 347.524 136.655 332.416 126.88C329.727 125.127 327.46 122.8 325.779 120.065C324.098 117.33 323.046 114.257 322.697 111.066C322.658 110.716 322.617 110.366 322.573 110.016C321.221 99.8358 317.872 90.023 312.718 81.1401C307.565 72.2573 300.709 64.4792 292.543 58.252C284.376 52.0247 275.061 47.4709 265.132 44.8516C255.202 42.2323 244.853 41.5991 234.677 42.9883C193.948 48.5306 164.626 70.053 168.958 111.502C168.978 111.697 169 111.981 169.024 112.34C169.196 115.01 168.824 117.687 167.932 120.21C167.039 122.732 165.645 125.047 163.832 127.015C162.02 128.984 159.827 130.564 157.387 131.661C154.946 132.758 152.309 133.349 149.633 133.397C147.267 133.454 144.886 133.607 142.49 133.855C125.537 135.669 109.467 142.337 96.2094 153.057C82.9518 163.778 73.0693 178.096 67.7478 194.295C62.4264 210.493 61.8921 227.882 66.2091 244.376C70.526 260.871 79.5108 275.769 92.0853 287.283H345.38C364.635 268.858 377.942 243.296 379.068 218.151Z" fill="#00B4FF"/>
<path d="M350.968 257.828H106.648V94.1247C106.649 92.8095 107.171 91.5481 108.101 90.6182C109.031 89.6882 110.292 89.1657 111.608 89.1657H346.007C347.323 89.1657 348.584 89.6882 349.514 90.6182C350.444 91.5482 350.967 92.8095 350.967 94.1247L350.968 257.828Z" fill="#ECF1F7"/>
<path d="M351.599 258.46H106.017V94.1255C106.018 92.6431 106.608 91.2219 107.656 90.1735C108.704 89.1252 110.125 88.5354 111.607 88.5335H346.007C347.489 88.5353 348.911 89.125 349.959 90.1733C351.007 91.2216 351.597 92.6429 351.599 94.1255L351.599 258.46ZM107.28 257.196H350.335V94.1255C350.334 92.9779 349.877 91.8778 349.066 91.0664C348.255 90.255 347.154 89.7986 346.007 89.7975H111.607C110.46 89.7989 109.36 90.2553 108.549 91.0667C107.738 91.8781 107.281 92.9781 107.28 94.1255V257.196Z" fill="#243762"/>
<path d="M244.491 248.504H213.125V251.013H244.491V248.504Z" fill="#ECF1F7"/>
<path d="M245.123 251.645H212.494V247.872H245.124L245.123 251.645ZM213.757 250.381H243.859V249.136H213.757V250.381Z" fill="#243762"/>
<path d="M230.715 96.1378C230.735 96.519 230.64 96.8974 230.443 97.224C230.245 97.5507 229.954 97.8106 229.607 97.9702C229.261 98.1299 228.874 98.1819 228.497 98.1196C228.121 98.0572 227.772 97.8834 227.495 97.6206C227.218 97.3577 227.026 97.0179 226.945 96.6451C226.863 96.2722 226.895 95.8834 227.036 95.5289C227.178 95.1744 227.422 94.8704 227.738 94.6563C228.054 94.4422 228.427 94.3277 228.809 94.3277C229.302 94.3152 229.779 94.4989 230.137 94.8383C230.494 95.1777 230.702 95.6451 230.715 96.1378Z" fill="#ECF1F7"/>
<path d="M228.809 98.5805C228.33 98.562 227.867 98.403 227.477 98.1233C227.088 97.8437 226.789 97.4557 226.619 97.0077C226.448 96.5597 226.413 96.0714 226.518 95.6037C226.623 95.1359 226.863 94.7093 227.209 94.377C227.554 94.0446 227.99 93.8212 228.461 93.7345C228.932 93.6478 229.419 93.7016 229.86 93.8893C230.301 94.077 230.677 94.3903 230.942 94.7901C231.206 95.19 231.347 95.6587 231.347 96.1381C231.333 96.7982 231.058 97.426 230.582 97.8838C230.107 98.3416 229.469 98.5921 228.809 98.5805ZM228.809 94.9597C228.58 94.9779 228.361 95.0624 228.18 95.2029C227.998 95.3433 227.861 95.5337 227.786 95.7506C227.711 95.9675 227.701 96.2016 227.757 96.4243C227.813 96.6469 227.932 96.8485 228.101 97.0043C228.269 97.1601 228.48 97.2634 228.706 97.3016C228.932 97.3398 229.165 97.3112 229.375 97.2193C229.586 97.1274 229.765 96.9762 229.89 96.7842C230.016 96.5922 230.083 96.3676 230.083 96.1381C230.07 95.8129 229.929 95.5063 229.69 95.2854C229.451 95.0645 229.134 94.9474 228.809 94.9597Z" fill="#243762"/>
<path d="M376.848 287.442H80.4115C77.1947 287.442 74.5869 285.7 74.5869 283.552V277.421C74.5869 276.816 75.3221 276.325 76.2286 276.325H381.285C382.192 276.325 382.927 276.816 382.927 277.421V283.382C382.927 285.624 380.206 287.442 376.848 287.442Z" fill="#243762"/>
<path d="M376.848 288.074H80.4109C76.7901 288.074 73.9541 286.087 73.9541 283.551V277.422C73.9541 276.451 74.9537 275.693 76.2285 275.693H381.285C382.56 275.693 383.559 276.451 383.559 277.422V283.383C383.559 286.013 380.61 288.074 376.848 288.074ZM76.2285 276.956C75.6018 276.956 75.2178 277.257 75.2178 277.422V283.552C75.2178 285.319 77.5959 286.811 80.4109 286.811H376.848C379.801 286.811 382.295 285.241 382.295 283.382V277.422C382.295 277.258 381.911 276.957 381.286 276.957L76.2285 276.956Z" fill="#243762"/>
<path d="M334.741 102.555H122.876C119.878 102.555 117.448 104.985 117.448 107.983V239.735C117.448 242.733 119.878 245.163 122.876 245.163H334.741C337.739 245.163 340.169 242.733 340.169 239.735V107.983C340.169 104.985 337.739 102.555 334.741 102.555Z" fill="white"/>
<path d="M334.741 245.766H122.876C121.278 245.764 119.745 245.128 118.614 243.997C117.484 242.867 116.848 241.334 116.846 239.735V107.983C116.848 106.384 117.484 104.851 118.614 103.721C119.745 102.59 121.278 101.954 122.876 101.952H334.741C336.34 101.954 337.873 102.59 339.003 103.721C340.134 104.851 340.77 106.384 340.771 107.983V239.735C340.77 241.334 340.134 242.867 339.003 243.998C337.873 245.128 336.34 245.764 334.741 245.766ZM122.876 103.157C121.597 103.159 120.37 103.667 119.466 104.572C118.561 105.477 118.052 106.703 118.051 107.983V239.735C118.052 241.015 118.561 242.241 119.466 243.146C120.37 244.051 121.597 244.559 122.876 244.561H334.741C336.02 244.559 337.247 244.05 338.151 243.146C339.056 242.241 339.565 241.015 339.566 239.735V107.983C339.565 106.704 339.056 105.477 338.151 104.573C337.247 103.668 336.02 103.159 334.741 103.157L122.876 103.157Z" fill="#243762"/>
<path d="M339.185 112.105V108.337C339.127 106.965 338.527 105.673 337.518 104.743C336.508 103.812 335.171 103.32 333.799 103.374H123.559C122.188 103.32 120.85 103.812 119.841 104.743C118.831 105.673 118.231 106.965 118.173 108.337V112.118L339.185 112.105Z" fill="#004763"/>
<path d="M320.513 107.985C320.513 108.233 320.439 108.476 320.302 108.683C320.164 108.889 319.968 109.05 319.739 109.145C319.51 109.241 319.257 109.266 319.014 109.217C318.77 109.169 318.547 109.05 318.371 108.874C318.195 108.699 318.076 108.475 318.027 108.232C317.979 107.988 318.003 107.736 318.098 107.507C318.193 107.277 318.354 107.081 318.56 106.943C318.767 106.805 319.009 106.732 319.258 106.732C319.59 106.732 319.909 106.864 320.145 107.099C320.38 107.334 320.512 107.652 320.513 107.985Z" fill="white"/>
<path d="M324.277 109.24C324.97 109.24 325.532 108.678 325.532 107.985C325.532 107.292 324.97 106.73 324.277 106.73C323.584 106.73 323.022 107.292 323.022 107.985C323.022 108.678 323.584 109.24 324.277 109.24Z" fill="white"/>
<path d="M329.296 109.24C329.988 109.24 330.55 108.678 330.55 107.985C330.55 107.292 329.988 106.73 329.296 106.73C328.603 106.73 328.041 107.292 328.041 107.985C328.041 108.678 328.603 109.24 329.296 109.24Z" fill="white"/>
<path opacity="0.1" d="M319.405 127.825H136.401V226.746H319.405V127.825Z" fill="#00B4FF"/>
<path d="M107.592 257.347L75.5342 276.186L381.285 276.053L351.756 257.426L107.592 257.347Z" fill="#ECF1F7"/>
<path d="M75.7051 276.818H75.5335L75.5311 276.181L75.2139 275.642L107.419 256.715H107.59L351.94 256.794L383.47 276.682L75.7051 276.818ZM107.763 257.978L77.8578 275.553L379.101 275.421L351.575 258.058L107.763 257.978Z" fill="#243762"/>
<g opacity="0.26">
<path opacity="0.26" d="M148.086 257.347L126.776 269.871L330.045 269.781L310.412 257.4L148.086 257.347Z" fill="#ECF1F7"/>
<path opacity="0.26" d="M124.451 270.504L147.916 256.715L310.596 256.768L332.228 270.413L124.451 270.504ZM148.259 257.978L129.099 269.238L327.86 269.152L310.23 258.031L148.259 257.978Z" fill="#243762"/>
</g>
<path d="M200.236 169.042C199.733 169.042 199.251 168.842 198.896 168.487C198.541 168.131 198.341 167.649 198.341 167.147C198.341 165.136 197.542 163.207 196.12 161.785C194.698 160.363 192.769 159.564 190.758 159.564C188.747 159.564 186.818 160.363 185.396 161.785C183.974 163.207 183.175 165.136 183.175 167.147C183.175 167.649 182.975 168.132 182.62 168.487C182.264 168.843 181.782 169.042 181.279 169.042C180.777 169.042 180.295 168.843 179.939 168.487C179.584 168.132 179.384 167.649 179.384 167.147C179.377 165.649 179.666 164.164 180.235 162.778C180.803 161.392 181.64 160.132 182.697 159.07C183.754 158.008 185.01 157.166 186.393 156.591C187.776 156.016 189.26 155.72 190.758 155.72C192.256 155.72 193.739 156.016 195.123 156.591C196.506 157.166 197.762 158.008 198.819 159.07C199.876 160.132 200.713 161.392 201.281 162.778C201.85 164.164 202.139 165.649 202.132 167.147C202.132 167.649 201.932 168.132 201.576 168.487C201.221 168.842 200.739 169.042 200.236 169.042Z" fill="#243762"/>
<path d="M276.132 169.042C275.629 169.042 275.147 168.842 274.792 168.487C274.436 168.132 274.236 167.649 274.236 167.147C274.236 165.136 273.437 163.207 272.015 161.785C270.593 160.363 268.665 159.564 266.653 159.564C264.642 159.564 262.714 160.363 261.292 161.785C259.869 163.207 259.071 165.136 259.071 167.147C259.065 167.646 258.863 168.122 258.508 168.473C258.153 168.824 257.674 169.021 257.175 169.021C256.676 169.021 256.197 168.824 255.842 168.473C255.487 168.122 255.285 167.646 255.279 167.147C255.279 164.13 256.478 161.237 258.611 159.104C260.744 156.971 263.637 155.773 266.653 155.773C269.67 155.773 272.563 156.971 274.696 159.104C276.829 161.237 278.028 164.13 278.028 167.147C278.027 167.649 277.828 168.132 277.472 168.487C277.117 168.842 276.635 169.042 276.132 169.042Z" fill="#243762"/>
<path d="M228.672 209.508C220.407 209.464 212.482 206.208 206.573 200.428C200.663 194.649 197.233 186.798 197.005 178.535C196.999 178.197 197.06 177.86 197.186 177.546C197.311 177.231 197.497 176.945 197.734 176.703C197.972 176.461 198.254 176.269 198.567 176.138C198.879 176.007 199.214 175.939 199.553 175.939H260.346V177.834C260.337 186.232 256.997 194.283 251.059 200.221C245.121 206.158 237.07 209.499 228.672 209.508ZM200.852 179.729C201.333 186.78 204.473 193.385 209.637 198.209C214.801 203.033 221.605 205.716 228.671 205.716C235.738 205.716 242.541 203.033 247.705 198.209C252.87 193.385 256.009 186.78 256.49 179.729H200.852Z" fill="#243762"/>
<path d="M339.247 112.779H168.605C168.43 112.779 168.262 112.71 168.138 112.586C168.014 112.462 167.944 112.294 167.944 112.119C167.944 111.943 168.014 111.775 168.138 111.651C168.262 111.527 168.43 111.458 168.605 111.458H339.247C339.423 111.458 339.591 111.527 339.715 111.651C339.839 111.775 339.908 111.943 339.908 112.119C339.908 112.294 339.839 112.462 339.715 112.586C339.591 112.71 339.423 112.779 339.247 112.779Z" fill="#243762"/>
<path d="M404.531 288.294H53.6908C53.5567 288.297 53.4236 288.272 53.2991 288.222C53.1746 288.172 53.0613 288.098 52.9658 288.004C52.8702 287.91 52.7943 287.798 52.7425 287.674C52.6907 287.55 52.6641 287.418 52.6641 287.283C52.6641 287.149 52.6907 287.017 52.7425 286.893C52.7943 286.769 52.8702 286.657 52.9658 286.563C53.0613 286.469 53.1746 286.395 53.2991 286.345C53.4236 286.295 53.5567 286.27 53.6908 286.272H404.531C404.797 286.276 405.05 286.385 405.236 286.574C405.422 286.763 405.527 287.018 405.527 287.283C405.527 287.549 405.422 287.804 405.236 287.993C405.05 288.182 404.797 288.29 404.531 288.294Z" fill="#243762"/>
<path d="M370.637 97.9186C370.127 97.9368 369.63 97.7542 369.253 97.41C369.079 97.2557 368.94 97.0658 368.846 96.8532C368.752 96.6406 368.705 96.4103 368.708 96.1779C368.701 95.9436 368.747 95.7109 368.843 95.4968C368.938 95.2828 369.08 95.0927 369.258 94.9406C369.641 94.6133 370.133 94.4413 370.637 94.4586C371.14 94.4384 371.633 94.613 372.011 94.9462C372.184 95.1003 372.322 95.2903 372.414 95.5031C372.507 95.7158 372.551 95.9462 372.546 96.1781C372.552 96.412 372.508 96.6444 372.416 96.8597C372.325 97.075 372.188 97.2681 372.015 97.4259C371.638 97.7636 371.143 97.9404 370.637 97.9186ZM372.3 84.0912L372.001 91.6611C371.987 92.0212 371.834 92.3619 371.574 92.6116C371.314 92.8614 370.968 93.0008 370.608 93.0008C370.247 93.0008 369.9 92.861 369.64 92.6107C369.38 92.3603 369.228 92.0191 369.214 91.6585L368.93 84.0886C368.923 83.9012 368.954 83.7144 369.021 83.5392C369.088 83.3641 369.19 83.2043 369.32 83.0693C369.45 82.9343 369.606 82.8269 369.779 82.7535C369.951 82.6802 370.137 82.6424 370.324 82.6424H370.907C371.094 82.6424 371.28 82.6803 371.453 82.7538C371.625 82.8273 371.782 82.9349 371.912 83.0702C372.042 83.2055 372.143 83.3657 372.21 83.5411C372.277 83.7166 372.307 83.9037 372.3 84.0912Z" fill="white"/>
<path d="M404.499 44.9906L404.499 44.9906C405.498 45.9921 405.496 47.6143 404.494 48.6132L375.7 77.3316L375.699 77.3317C375.22 77.8099 374.568 78.0788 373.891 78.0788H373.89C373.875 78.0788 373.855 78.0788 373.834 78.0779M404.499 44.9906L373.843 77.778M404.499 44.9906C403.499 43.9894 401.877 43.9872 400.877 44.9863M404.499 44.9906L400.877 44.9863M373.834 78.0779C373.832 78.0779 373.831 78.0778 373.83 78.0778L373.843 77.778M373.834 78.0779C373.835 78.0779 373.836 78.078 373.837 78.078L373.843 77.778M373.834 78.0779C373.138 78.0626 372.478 77.7647 372.007 77.2524L372.228 77.0491M373.843 77.778C373.228 77.7653 372.645 77.5022 372.228 77.0491M372.228 77.0491L372.007 77.2523M372.228 77.0491L372.007 77.2523M372.007 77.2523L360.625 64.8913L360.625 64.8913C359.667 63.8506 359.734 62.2301 360.775 61.2721L360.775 61.272C361.816 60.3143 363.436 60.3817 364.394 61.4215L364.394 61.4216L373.97 71.8223M372.007 77.2523L360.978 61.4929C361.897 60.6472 363.327 60.7068 364.173 61.6248L373.757 72.0344L373.97 71.8223M373.97 71.8223L374.173 72.0432L400.877 44.9863M373.97 71.8223L400.877 44.9865L400.877 44.9863" fill="#CAF55F" stroke="#CAF55F" stroke-width="0.6"/>
<path d="M403.739 64.4386C402.324 64.4386 401.177 65.5852 401.177 67C401.177 80.8831 389.883 92.1774 376 92.1774C362.118 92.1774 350.823 80.8831 350.823 67C350.823 53.1177 362.118 41.8226 376 41.8226C377.415 41.8226 378.561 40.6761 378.561 39.2614C378.561 37.8466 377.415 36.7 376 36.7C359.292 36.7 345.7 50.2921 345.7 67C345.7 83.7072 359.292 97.3 376 97.3C392.707 97.3 406.3 83.7072 406.3 67C406.3 65.5853 405.153 64.4386 403.739 64.4386Z" fill="#CAF55F" stroke="#CAF55F" stroke-width="0.6"/>
</g>
<defs>
<clipPath id="clip0">
<rect width="421.444" height="288.294" fill="white"/>
</clipPath>
</defs>
</svg>
