<svg width="18" height="15" viewBox="0 0 18 15" fill="none" xmlns="http://www.w3.org/2000/svg">
<path d="M18 2.48445C17.3306 2.76516 16.6174 2.95123 15.8737 3.04157C16.6388 2.60491 17.2226 1.91873 17.4971 1.09165C16.7839 1.4982 15.9964 1.78536 15.1571 1.94561C14.4799 1.25621 13.5146 0.829224 12.4616 0.829224C10.4186 0.829224 8.77387 2.41454 8.77387 4.35801C8.77387 4.63764 8.79862 4.90652 8.85938 5.1625C5.7915 5.01945 3.07687 3.61375 1.25325 1.47239C0.934875 2.00047 0.748125 2.60491 0.748125 3.2556C0.748125 4.47739 1.40625 5.56044 2.38725 6.18747C1.79437 6.17671 1.21275 6.01216 0.72 5.75296C0.72 5.76371 0.72 5.77769 0.72 5.79168C0.72 7.50606 1.99912 8.93005 3.6765 9.25808C3.37612 9.33659 3.04875 9.37424 2.709 9.37424C2.47275 9.37424 2.23425 9.36133 2.01038 9.31401C2.4885 10.7111 3.84525 11.7382 5.4585 11.7716C4.203 12.7105 2.60888 13.2762 0.883125 13.2762C0.5805 13.2762 0.29025 13.2633 0 13.2278C1.63462 14.2356 3.57188 14.811 5.661 14.811C12.4515 14.811 16.164 9.43339 16.164 4.77208C16.164 4.61613 16.1584 4.46556 16.1505 4.31606C16.8829 3.81917 17.4982 3.1986 18 2.48445Z" fill="#004763"/>
</svg>
