<svg width="83" height="74" viewBox="0 0 83 74" fill="none" xmlns="http://www.w3.org/2000/svg">
<path d="M82.4647 66.3425L75.149 44.2998C74.3802 41.9838 72.2242 40.4279 69.7835 40.4279H65.848C65.831 40.2421 65.8027 40.0557 65.7554 39.8719C65.5237 38.9708 64.9551 38.2139 64.1541 37.741L63.396 37.2927L67.1728 31.3164C68.8163 28.7164 71.2897 26.7335 74.3267 25.5825C77.0563 24.5473 79.3786 22.5909 80.8666 20.0734C82.6807 17.0024 83.1473 13.4208 82.1794 9.9865C81.2122 6.5541 78.9397 3.74131 75.7806 2.06572C72.9439 0.561409 69.6532 0.177932 66.5155 0.985815C63.3765 1.7937 60.6802 3.71801 58.9221 6.40487C57.188 9.05583 56.484 12.2351 56.9399 15.3564C57.4021 18.5187 56.8769 21.5859 55.4217 24.2261L51.9484 30.5286L51.1896 30.0803C49.5367 29.1037 47.397 29.6534 46.4204 31.3069L45.0685 33.5939L41.6518 31.5745C39.4989 30.3026 36.7119 31.0192 35.4394 33.1727L33.3816 36.6561C32.9282 37.4224 33.1826 38.411 33.9489 38.8638L36.5961 40.4273H13.2166C10.7766 40.4273 8.62054 41.9838 7.8517 44.2998L0.536042 66.3425C-0.0602678 68.139 0.233164 70.0494 1.34078 71.5846C2.44839 73.1191 4.16994 74.0001 6.06277 74.0001H76.9373C78.8302 74.0001 80.5517 73.1191 81.6593 71.5846C82.7669 70.0494 83.0604 68.139 82.4647 66.3425ZM58.2452 25.7821C60.0423 22.521 60.694 18.7542 60.1292 14.8898C59.7873 12.548 60.3169 10.1616 61.6197 8.16924C64.3342 4.02152 69.8906 2.59151 74.27 4.91378C76.6433 6.17314 78.3503 8.28447 79.0764 10.8611C79.803 13.4391 79.4529 16.1284 78.0909 18.4337C76.9581 20.3504 75.2611 21.7805 73.1838 22.5682C69.4882 23.9686 66.4676 26.3986 64.4482 29.5936L60.6191 35.6524L60.3238 35.4773L54.7246 32.1696L58.2452 25.7821ZM47.8441 35.2336L49.1954 32.9473C49.2407 32.8704 49.3062 32.8402 49.3535 32.8282C49.4013 32.8157 49.4731 32.8106 49.5499 32.8559L56.0319 36.6863L60.3257 39.2233C60.3263 39.2233 60.3263 39.2233 60.3263 39.2239L62.5145 40.5167C62.5906 40.5614 62.6209 40.6275 62.6328 40.6747C62.6454 40.7219 62.6505 40.7944 62.6051 40.8706L62.4005 41.2175C62.3998 41.2181 62.3992 41.2188 62.3986 41.22L61.2538 43.1576L47.8441 35.2336ZM38.215 34.8124C38.5827 34.1896 39.3887 33.9825 40.0115 34.3502L44.816 37.1888L44.8166 37.1894L52.9093 41.9712L65.8071 49.5917C66.1087 49.7699 66.3228 50.0551 66.4097 50.3945C66.4972 50.7339 66.4468 51.0865 66.2686 51.3881L65.03 53.4844L43.3123 40.6521C43.3123 40.6514 43.3123 40.6514 43.3116 40.6514L36.9764 36.908L38.215 34.8124ZM79.0455 69.6981C78.5512 70.3832 77.7824 70.7761 76.9373 70.7761H6.06277C5.21773 70.7761 4.44952 70.3832 3.95459 69.6981C3.46029 69.013 3.32931 68.1597 3.59567 67.3575L10.9113 45.3155C11.2413 44.32 12.1675 43.6512 13.2166 43.6512H42.0517L64.7782 57.0798C64.8342 57.1132 64.8928 57.1416 64.952 57.1674C64.969 57.1749 64.9866 57.1819 65.0042 57.1888C65.0489 57.2064 65.0949 57.2222 65.1409 57.236C65.1585 57.241 65.1755 57.2467 65.1925 57.2511C65.2536 57.2669 65.3159 57.2801 65.3783 57.2889C65.3896 57.2902 65.4009 57.2902 65.4123 57.292C65.4645 57.2977 65.5168 57.3015 65.5697 57.3021C65.5791 57.3028 65.5886 57.304 65.598 57.304C65.61 57.304 65.6219 57.3021 65.6339 57.3021C65.6755 57.3009 65.717 57.2983 65.7586 57.2939C65.7787 57.292 65.7989 57.2908 65.819 57.2876C65.8795 57.2795 65.9399 57.2688 65.9997 57.253C66.4134 57.1472 66.7686 56.8802 66.9858 56.5119L69.0443 53.0285C69.5915 52.1022 69.7885 51.0355 69.6148 49.9865C69.5927 49.8542 69.5656 49.7226 69.5323 49.5917C69.2306 48.4186 68.4895 47.4325 67.4468 46.8166L64.0295 44.7973L64.707 43.6519H69.7835C70.8326 43.6519 71.7588 44.32 72.0894 45.3155L79.4051 67.3575V67.3582C79.6708 68.1597 79.5398 69.013 79.0455 69.6981Z" fill="#105976"/>
<path d="M72.3822 10.0867C73.3443 10.5671 73.9255 11.2264 74.1592 12.101C74.4778 13.2936 74.0842 14.6493 73.5843 15.405C73.0925 16.1467 73.2959 17.1473 74.0376 17.6384C74.3115 17.8198 74.6207 17.9067 74.9267 17.9067C75.4487 17.9067 75.9619 17.6529 76.2717 17.1851C77.1206 15.903 77.8925 13.5852 77.2736 11.2686C76.8013 9.50105 75.6087 8.09497 73.8242 7.20271C73.0276 6.80475 72.0598 7.12715 71.6612 7.9237C71.2632 8.72025 71.5856 9.68807 72.3822 10.0867Z" fill="#105976"/>
<path d="M66.766 7.50361C66.8063 7.60058 66.856 7.6944 66.9146 7.7813C66.9738 7.87009 67.0418 7.95194 67.1161 8.02625C67.1897 8.10055 67.2722 8.16793 67.361 8.22775C67.4479 8.28568 67.5411 8.33605 67.6381 8.37635C67.7363 8.41665 67.8377 8.44687 67.9397 8.46765C68.0442 8.48906 68.1506 8.49851 68.2558 8.49851C68.3603 8.49851 68.4667 8.48906 68.57 8.46765C68.6733 8.44687 68.7746 8.41665 68.871 8.37635C68.9692 8.33605 69.063 8.28568 69.1499 8.22775C69.2387 8.16793 69.3206 8.10055 69.3949 8.02625C69.4692 7.95194 69.5366 7.87009 69.5951 7.7813C69.6531 7.6944 69.7028 7.60058 69.7431 7.50361C69.7834 7.40601 69.8143 7.304 69.835 7.20262C69.8558 7.09809 69.8671 6.99105 69.8671 6.88652C69.8671 6.78199 69.8558 6.67558 69.835 6.57231C69.8143 6.46904 69.7834 6.36766 69.7431 6.27069C69.7028 6.17246 69.6531 6.07927 69.5951 5.99237C69.5366 5.90359 69.4692 5.8211 69.3949 5.74742C69.3206 5.67312 69.2387 5.60512 69.1499 5.54719C69.063 5.48925 68.9692 5.43951 68.871 5.39921C68.7746 5.35891 68.6733 5.32806 68.57 5.30728C68.3616 5.26509 68.1475 5.26509 67.9397 5.30728C67.8377 5.32806 67.7363 5.35891 67.6381 5.39921C67.5411 5.43951 67.4479 5.48925 67.361 5.54719C67.2722 5.60512 67.1897 5.67312 67.1161 5.74742C67.0418 5.8211 66.9738 5.90359 66.9146 5.99237C66.856 6.07927 66.8063 6.17246 66.766 6.27069C66.7257 6.36766 66.6948 6.46904 66.674 6.57231C66.6532 6.67558 66.6438 6.78199 66.6438 6.88652C66.6438 6.99105 66.6532 7.09809 66.674 7.20262C66.6948 7.304 66.7257 7.40538 66.766 7.50361Z" fill="#105976"/>
<path d="M17.9556 51.0053H38.674C39.5644 51.0053 40.286 50.2837 40.286 49.394C40.286 48.5036 39.5644 47.782 38.674 47.782H17.9556C17.0659 47.782 16.3442 48.5036 16.3442 49.394C16.3442 50.2837 17.0659 51.0053 17.9556 51.0053Z" fill="#105976"/>
<path d="M15.5937 58.8259H48.1432C49.0336 58.8259 49.7552 58.1043 49.7552 57.2139C49.7552 56.3235 49.0336 55.6019 48.1432 55.6019H15.5937C14.7033 55.6019 13.9817 56.3235 13.9817 57.2139C13.9817 58.1043 14.7033 58.8259 15.5937 58.8259Z" fill="#105976"/>
<path d="M62.9672 63.422H12.2582C11.3679 63.422 10.6462 64.1442 10.6462 65.034C10.6462 65.9244 11.3679 66.646 12.2582 66.646H62.9672C63.857 66.646 64.5792 65.9244 64.5792 65.034C64.5792 64.1442 63.857 63.422 62.9672 63.422Z" fill="#105976"/>
</svg>
