<svg width="129" height="130" viewBox="0 0 129 130" fill="none" xmlns="http://www.w3.org/2000/svg">
<path d="M108.679 0.318726H57.0911C46.1443 0.318726 37.236 9.22708 37.236 20.1738V65.4705L34.9963 66.2003C34.7195 66.301 34.4679 66.452 34.2414 66.6533L11.5427 89.352C10.8129 90.0817 10.8129 91.2897 11.5427 92.0194C12.2725 92.7492 13.4804 92.7492 14.2101 92.0194L34.3924 71.8372C34.8453 72.8942 35.4744 73.8756 36.3049 74.706C38.0413 76.4424 40.4068 77.3735 42.7974 77.3232C42.7723 79.7138 43.6782 82.0793 45.4146 83.8157C47.1509 85.5521 49.5164 86.4832 51.9071 86.4329C51.8819 88.8235 52.7879 91.189 54.5242 92.9254C55.3547 93.7558 56.3361 94.4101 57.393 94.8379L27.9753 124.281C26.4906 125.766 24.0748 125.766 22.5649 124.281L4.97464 106.691C3.48992 105.206 3.48992 102.765 4.97464 101.28L8.92552 97.3292C9.65531 96.5994 9.65531 95.3915 8.92552 94.6618C8.19574 93.932 6.98783 93.932 6.25805 94.6618L2.30717 98.6126C-0.662285 101.582 -0.662285 106.389 2.30717 109.358L19.8974 126.948C21.3821 128.433 23.3198 129.163 25.2575 129.163C27.1952 129.163 29.1581 128.433 30.6176 126.948L62.577 94.9889C62.8035 94.7624 62.9545 94.5108 63.03 94.234L63.8856 91.5916H108.654C119.601 91.5916 128.509 82.6833 128.509 71.7366V20.1486C128.534 9.22708 119.626 0.318726 108.679 0.318726V0.318726ZM57.2169 90.2579C55.7825 88.8235 55.3044 86.6593 56.0341 84.772C56.2858 84.0674 56.1348 83.2872 55.6063 82.784C55.0779 82.2555 54.2978 82.1045 53.6183 82.3561C51.7309 83.0608 49.5668 82.6078 48.1324 81.1734C46.698 79.739 46.245 77.5748 46.9496 75.6875C47.2013 74.9828 47.0503 74.2027 46.5218 73.6994C45.9934 73.171 45.2132 72.9948 44.5338 73.2716C42.6213 73.9762 40.4823 73.5233 39.0479 72.0889C38.2929 71.3339 37.8148 70.4028 37.6135 69.3711L55.9586 63.4573C55.858 64.011 55.7825 64.5898 55.7825 65.1434C55.7825 67.3831 56.6633 69.4969 58.2486 71.0823C59.834 72.6677 61.9479 73.5484 64.1875 73.5484C64.7663 73.5484 65.32 73.4981 65.8736 73.3723L59.9599 91.7175C58.9029 91.491 57.9467 91.0128 57.2169 90.2579ZM77.8017 60.2614C77.4494 58.7012 76.3422 57.4178 74.8071 56.8893L68.2139 54.5238C67.4841 54.2722 66.7292 54.1463 65.9994 54.1463L60.8406 47.5028C59.7334 46.0684 59.2552 44.3069 59.4817 42.5202C59.7082 40.7335 60.6141 39.1481 62.0485 38.0408C64.9928 35.776 69.2205 36.3045 71.5105 39.2487L77.9779 47.6035C78.3554 48.1068 78.9845 48.3836 79.6136 48.3333C80.2427 48.2829 80.8215 47.9306 81.1235 47.377L93.7562 25.0054C95.5933 21.7592 99.6952 20.6268 102.941 22.4638C106.188 24.3008 107.32 28.4027 105.483 31.649L86.4584 65.2944C85.3512 67.2572 83.338 68.5406 81.0732 68.6916C80.897 68.6916 80.746 68.7168 80.595 68.7168C78.5063 68.7168 76.5687 67.7605 75.2601 66.0996L75.1594 65.9487L76.5435 64.5646C77.7011 63.4573 78.154 61.8468 77.8017 60.2614ZM63.9359 58.7767C64.4895 58.223 65.2445 57.9211 65.9994 57.9211C66.3266 57.9211 66.6537 57.9714 66.9557 58.0972L73.5489 60.4627C73.9515 60.6137 74.0773 60.9409 74.1277 61.117C74.178 61.2932 74.2032 61.6455 73.876 61.9474L67.4086 68.4148C66.5279 69.2956 65.3703 69.7737 64.1372 69.7737C62.9041 69.7737 61.7466 69.2956 60.8658 68.4148C59.985 67.534 59.5069 66.3765 59.5069 65.1434C59.5069 63.9103 59.985 62.7527 60.8658 61.872L63.9359 58.7767ZM124.759 71.7366C124.759 80.5946 117.537 87.8169 108.679 87.8169H65.1438L66.4775 83.715H108.704C115.297 83.715 120.683 78.3549 120.683 71.7366V28.2265C120.683 27.1948 119.827 26.3392 118.795 26.3392C117.764 26.3392 116.908 27.1948 116.908 28.2265V71.7366C116.908 76.2662 113.234 79.9403 108.704 79.9403H67.6855L70.7807 70.3777L72.4919 68.6665C74.5051 71.1075 77.4243 72.5167 80.6202 72.5167C80.8718 72.5167 81.1235 72.5167 81.3751 72.4915C84.8982 72.2399 88.0438 70.2519 89.755 67.1817L108.78 33.5112C111.623 28.4782 109.837 22.036 104.804 19.1924C99.7455 16.3487 93.3284 18.1354 90.4848 23.1684L79.2361 43.0738L74.5051 36.9588C70.9569 32.3787 64.3385 31.5483 59.7585 35.0965C57.544 36.8078 56.1348 39.2991 55.7573 42.0924C55.405 44.8857 56.16 47.6286 57.8712 49.8432L62.1492 55.3794C61.822 55.6059 61.5201 55.8576 61.2433 56.1344L58.8526 58.525L48.9125 61.721V20.1738C48.9125 15.6441 52.5865 11.9701 57.1162 11.9701H108.679C113.209 11.9701 116.883 15.6441 116.883 20.1738V20.7023C116.883 21.734 117.738 22.5896 118.77 22.5896C119.802 22.5896 120.657 21.734 120.657 20.7023V20.1738C120.657 13.5806 115.297 8.19532 108.679 8.19532H57.1162C50.523 8.19532 45.1378 13.5554 45.1378 20.1738V62.9289L41.0359 64.2626V20.1738C41.0359 11.3158 48.2582 4.09345 57.1162 4.09345H108.704C117.562 4.09345 124.785 11.3158 124.785 20.1738L124.759 71.7366Z" fill="#004763"/>
</svg>
