<svg width="53" height="74" viewBox="0 0 53 74" fill="none" xmlns="http://www.w3.org/2000/svg">
<path d="M45.5487 0.572144C45.3131 0.572144 45.0837 0.618036 44.8542 0.64256C44.738 0.615024 44.6279 0.572144 44.5054 0.572144H7.79131C3.57536 0.572144 0.142588 4.00491 0.142588 8.22087V23.5185C0.142588 24.3629 0.827967 25.0483 1.67239 25.0483C2.51682 25.0483 3.20219 24.3629 3.20219 23.5185V8.22087C3.20219 5.69061 5.26119 3.6316 7.79145 3.6316H37.0526L25.5641 8.55431C23.1318 9.59765 21.5592 11.9809 21.5592 14.6275V61.7622H7.79145C5.59162 61.7622 3.72236 60.2324 3.26644 59.5991L3.20219 41.8692C3.19918 41.0278 2.5138 40.3456 1.67239 40.3456C1.67239 40.3456 1.66938 40.3456 1.66622 40.3456C0.821798 40.3486 0.139576 41.037 0.142588 41.8814L0.213004 59.7091C0.151766 60.3791 0.466991 61.0797 1.17058 61.8507C2.42187 63.2213 4.90624 64.8215 7.79131 64.8215H21.5591V67.3945C21.5591 71.0354 24.5238 74.0001 28.1646 74.0001C29.0671 74.0001 29.9453 73.8195 30.7652 73.4677L48.1493 66.0178C50.5816 64.9744 52.1541 62.5912 52.1541 59.9446V7.17767C52.1543 3.53681 49.1896 0.572144 45.5487 0.572144ZM49.0947 59.945C49.0947 61.3647 48.2502 62.6465 46.9439 63.2034L29.5598 70.6532C29.1192 70.8459 28.6481 70.9407 28.1646 70.9407C26.2096 70.9407 24.6187 69.3498 24.6187 67.3948V14.6275C24.6187 13.2078 25.4631 11.926 26.7695 11.3691L44.1536 3.91929C44.5942 3.72654 45.0653 3.63175 45.5487 3.63175C47.5038 3.63175 49.0947 5.22264 49.0947 7.17767V59.945Z" fill="#105976"/>
</svg>
