<svg width="423" height="290" viewBox="0 0 423 290" fill="none" xmlns="http://www.w3.org/2000/svg">
<g clip-path="url(#clip0)">
<g opacity="0.41">
<path opacity="0.41" d="M407.077 207.107C408.163 186.035 403.678 165.05 394.076 146.263C384.473 127.475 370.09 111.549 352.375 100.088C349.222 98.0331 346.564 95.3038 344.593 92.0972C342.623 88.8906 341.388 85.2865 340.979 81.545C340.934 81.1353 340.886 80.725 340.835 80.3141C334.576 30.1613 287.701 -5.07102 237.774 1.72275C190.016 8.22101 155.636 33.457 160.715 82.0563C160.739 82.2848 160.765 82.6174 160.793 83.0385C160.994 86.1695 160.559 89.3087 159.512 92.2665C158.466 95.2243 156.831 97.9393 154.705 100.247C152.58 102.555 150.009 104.408 147.147 105.695C144.286 106.981 141.193 107.674 138.056 107.731C135.282 107.797 132.49 107.976 129.68 108.268C109.802 110.394 90.9594 118.212 75.4142 130.782C59.869 143.353 48.2814 160.142 42.0417 179.135C35.8021 198.127 35.1756 218.517 40.2374 237.858C45.2992 257.198 55.8343 274.667 70.5784 288.167H367.576C390.152 266.563 405.756 236.591 407.077 207.107Z" fill="#00B4FF"/>
</g>
<path opacity="0.31" d="M111.19 68.0262C111.19 70.4547 110.47 72.8288 109.121 74.8481C107.772 76.8674 105.854 78.4413 103.61 79.3707C101.366 80.3 98.8974 80.5432 96.5155 80.0694C94.1336 79.5956 91.9456 78.4261 90.2283 76.7089C88.5111 74.9916 87.3416 72.8036 86.8678 70.4217C86.394 68.0398 86.6372 65.5708 87.5665 63.3271C88.4959 61.0834 90.0698 59.1656 92.0891 57.8164C94.1084 56.4671 96.4824 55.7469 98.911 55.7469C102.168 55.7469 105.291 57.0406 107.594 59.3434C109.897 61.6462 111.19 64.7695 111.19 68.0262Z" fill="#00B4FF"/>
<path opacity="0.31" d="M364.303 32.0098C370.258 32.0098 375.086 27.1819 375.086 21.2265C375.086 15.271 370.258 10.4431 364.303 10.4431C358.347 10.4431 353.52 15.271 353.52 21.2265C353.52 27.1819 358.347 32.0098 364.303 32.0098Z" fill="#00B4FF"/>
<path opacity="0.31" d="M422.222 126.326C422.222 127.777 421.792 129.196 420.985 130.403C420.179 131.61 419.033 132.55 417.692 133.106C416.351 133.661 414.875 133.806 413.452 133.523C412.028 133.24 410.721 132.541 409.694 131.515C408.668 130.489 407.969 129.181 407.686 127.757C407.403 126.334 407.548 124.858 408.104 123.517C408.659 122.176 409.6 121.03 410.807 120.224C412.013 119.418 413.432 118.987 414.884 118.987C416.83 118.987 418.696 119.761 420.073 121.137C421.449 122.513 422.222 124.379 422.222 126.326Z" fill="#00B4FF"/>
<path opacity="0.31" d="M15.4548 220.292C15.4548 221.743 15.0245 223.162 14.2181 224.369C13.4118 225.575 12.2657 226.516 10.9248 227.071C9.58392 227.627 8.10844 227.772 6.68496 227.489C5.26148 227.206 3.95392 226.507 2.92765 225.481C1.90138 224.454 1.20247 223.147 0.919326 221.723C0.636178 220.3 0.7815 218.824 1.33692 217.484C1.89233 216.143 2.83289 214.997 4.03966 214.19C5.24644 213.384 6.66521 212.953 8.11658 212.953C10.0628 212.953 11.9293 213.727 13.3055 215.103C14.6817 216.479 15.4548 218.346 15.4548 220.292Z" fill="#00B4FF"/>
<path opacity="0.4" d="M379.847 219.035C380.773 201.064 376.948 183.167 368.758 167.144C360.568 151.121 348.302 137.539 333.194 127.764C330.505 126.012 328.238 123.684 326.557 120.949C324.877 118.215 323.824 115.141 323.475 111.95C323.436 111.6 323.395 111.25 323.352 110.9C321.999 100.72 318.65 90.9071 313.496 82.0243C308.343 73.1414 301.487 65.3633 293.321 59.1361C285.155 52.9089 275.84 48.355 265.91 45.7357C255.98 43.1164 245.631 42.4832 235.456 43.8724C194.726 49.4148 165.404 70.9371 169.736 112.386C169.756 112.581 169.779 112.865 169.803 113.224C169.974 115.894 169.602 118.571 168.71 121.094C167.817 123.616 166.423 125.931 164.61 127.9C162.798 129.868 160.605 131.448 158.165 132.545C155.724 133.642 153.087 134.233 150.412 134.282C148.046 134.338 145.664 134.491 143.268 134.74C126.315 136.553 110.245 143.221 96.9878 153.941C83.7301 164.662 73.8476 178.981 68.5262 195.179C63.2047 211.377 62.6704 228.766 66.9874 245.261C71.3043 261.755 80.2891 276.653 92.8636 288.167H346.158C365.414 269.742 378.72 244.18 379.847 219.035Z" fill="#00B4FF"/>
<path d="M351.745 258.712H107.426V95.0088C107.426 93.6936 107.948 92.4322 108.878 91.5023C109.808 90.5723 111.07 90.0498 112.385 90.0498H346.785C348.1 90.0498 349.361 90.5723 350.291 91.5023C351.221 92.4323 351.744 93.6936 351.744 95.0088L351.745 258.712Z" fill="#ECF1F7"/>
<path d="M352.377 259.344H106.795V95.0096C106.796 93.5272 107.386 92.106 108.434 91.0577C109.482 90.0093 110.903 89.4195 112.385 89.4176H346.785C348.268 89.4194 349.689 90.0091 350.737 91.0574C351.786 92.1057 352.375 93.527 352.377 95.0096L352.377 259.344ZM108.059 258.08H351.113V95.0096C351.112 93.8621 350.656 92.7619 349.844 91.9505C349.033 91.1391 347.933 90.6827 346.785 90.6816H112.385C111.238 90.683 110.138 91.1395 109.327 91.9508C108.516 92.7622 108.06 93.8623 108.059 95.0096V258.08Z" fill="#243762"/>
<path d="M245.269 249.388H213.903V251.897H245.269V249.388Z" fill="#ECF1F7"/>
<path d="M245.901 252.529H213.272V248.757H245.902L245.901 252.529ZM214.535 251.265H244.637V250.02H214.535V251.265Z" fill="#243762"/>
<path d="M231.493 97.0219C231.512 97.4031 231.417 97.7815 231.22 98.1081C231.022 98.4348 230.731 98.6947 230.385 98.8543C230.038 99.014 229.651 99.066 229.275 99.0036C228.898 98.9413 228.549 98.7675 228.272 98.5047C227.995 98.2418 227.804 97.902 227.722 97.5292C227.64 97.1563 227.672 96.7675 227.814 96.413C227.955 96.0585 228.2 95.7545 228.516 95.5404C228.832 95.3263 229.205 95.2118 229.586 95.2118C230.079 95.1993 230.557 95.383 230.914 95.7224C231.272 96.0618 231.48 96.5292 231.493 97.0219Z" fill="#ECF1F7"/>
<path d="M229.587 99.4646C229.108 99.4461 228.645 99.2871 228.256 99.0074C227.866 98.7278 227.568 98.3398 227.397 97.8918C227.227 97.4438 227.192 96.9555 227.296 96.4878C227.401 96.02 227.641 95.5934 227.987 95.2611C228.332 94.9287 228.768 94.7053 229.239 94.6186C229.711 94.5319 230.197 94.5857 230.638 94.7734C231.079 94.9611 231.456 95.2744 231.72 95.6742C231.984 96.0741 232.125 96.5428 232.125 97.0222C232.112 97.6823 231.837 98.3101 231.361 98.7679C230.885 99.2257 230.247 99.4762 229.587 99.4646ZM229.587 95.8438C229.358 95.862 229.14 95.9465 228.958 96.087C228.776 96.2274 228.64 96.4178 228.565 96.6347C228.489 96.8516 228.479 97.0857 228.535 97.3084C228.591 97.531 228.71 97.7326 228.879 97.8884C229.048 98.0442 229.258 98.1475 229.484 98.1857C229.711 98.2239 229.943 98.1953 230.153 98.1034C230.364 98.0115 230.543 97.8603 230.669 97.6683C230.794 97.4763 230.862 97.2517 230.862 97.0222C230.848 96.697 230.707 96.3904 230.468 96.1695C230.229 95.9486 229.912 95.8314 229.587 95.8438Z" fill="#243762"/>
<path d="M377.627 288.326H81.1898C77.973 288.326 75.3652 286.584 75.3652 284.436V278.305C75.3652 277.7 76.1004 277.209 77.0069 277.209H382.064C382.97 277.209 383.706 277.7 383.706 278.305V284.266C383.706 286.508 380.984 288.326 377.627 288.326Z" fill="#243762"/>
<path d="M377.626 288.958H81.1892C77.5684 288.958 74.7324 286.972 74.7324 284.435V278.306C74.7324 277.336 75.732 276.577 77.0068 276.577H382.064C383.338 276.577 384.337 277.336 384.337 278.306V284.267C384.337 286.897 381.388 288.958 377.626 288.958ZM77.0068 277.841C76.3801 277.841 75.9962 278.142 75.9962 278.306V284.436C75.9962 286.203 78.3742 287.695 81.1892 287.695H377.626C380.579 287.695 383.073 286.125 383.073 284.266V278.306C383.073 278.142 382.69 277.841 382.064 277.841L77.0068 277.841Z" fill="#243762"/>
<path d="M335.519 103.439H123.655C120.657 103.439 118.227 105.869 118.227 108.867V240.619C118.227 243.617 120.657 246.048 123.655 246.048H335.519C338.517 246.048 340.947 243.617 340.947 240.619V108.867C340.947 105.869 338.517 103.439 335.519 103.439Z" fill="white"/>
<path d="M335.519 246.65H123.655C122.056 246.648 120.523 246.012 119.393 244.882C118.262 243.751 117.626 242.218 117.624 240.619V108.867C117.626 107.268 118.262 105.735 119.393 104.605C120.523 103.474 122.056 102.838 123.655 102.836H335.519C337.118 102.838 338.651 103.474 339.781 104.605C340.912 105.735 341.548 107.268 341.55 108.867V240.619C341.548 242.218 340.912 243.751 339.781 244.882C338.651 246.012 337.118 246.648 335.519 246.65ZM123.655 104.041C122.375 104.043 121.149 104.552 120.244 105.456C119.339 106.361 118.83 107.588 118.829 108.867V240.619C118.831 241.899 119.339 243.125 120.244 244.03C121.149 244.935 122.375 245.444 123.655 245.445H335.519C336.798 245.443 338.025 244.934 338.929 244.03C339.834 243.125 340.343 241.899 340.345 240.619V108.867C340.343 107.588 339.834 106.361 338.929 105.457C338.025 104.552 336.798 104.043 335.519 104.042L123.655 104.041Z" fill="#243762"/>
<path d="M339.964 112.989V109.221C339.905 107.85 339.306 106.557 338.296 105.627C337.286 104.696 335.949 104.204 334.577 104.258H124.338C122.966 104.204 121.629 104.696 120.619 105.627C119.609 106.557 119.01 107.85 118.951 109.221V113.002L339.964 112.989Z" fill="#004763"/>
<path d="M321.291 108.869C321.291 109.117 321.218 109.36 321.08 109.567C320.942 109.773 320.746 109.934 320.517 110.03C320.288 110.125 320.036 110.15 319.792 110.102C319.549 110.053 319.325 109.934 319.149 109.758C318.974 109.583 318.854 109.359 318.805 109.116C318.757 108.873 318.782 108.62 318.877 108.391C318.972 108.161 319.132 107.965 319.339 107.827C319.545 107.689 319.788 107.616 320.036 107.616C320.369 107.616 320.688 107.748 320.923 107.983C321.158 108.218 321.291 108.537 321.291 108.869Z" fill="white"/>
<path d="M325.055 110.124C325.748 110.124 326.31 109.562 326.31 108.869C326.31 108.176 325.748 107.615 325.055 107.615C324.362 107.615 323.801 108.176 323.801 108.869C323.801 109.562 324.362 110.124 325.055 110.124Z" fill="white"/>
<path d="M330.074 110.124C330.767 110.124 331.329 109.562 331.329 108.869C331.329 108.176 330.767 107.615 330.074 107.615C329.381 107.615 328.819 108.176 328.819 108.869C328.819 109.562 329.381 110.124 330.074 110.124Z" fill="white"/>
<path opacity="0.1" d="M320.183 128.709H137.18V227.63H320.183V128.709Z" fill="#00B4FF"/>
<path d="M108.37 258.231L76.3125 277.07L382.063 276.937L352.534 258.31L108.37 258.231Z" fill="#ECF1F7"/>
<path d="M76.4834 277.702H76.3118L76.3094 277.065L75.9922 276.526L108.197 257.599H108.369L352.718 257.678L384.248 277.567L76.4834 277.702ZM108.541 258.863L78.6361 276.437L379.879 276.305L352.353 258.942L108.541 258.863Z" fill="#243762"/>
<g opacity="0.26">
<path opacity="0.26" d="M148.864 258.231L127.555 270.755L330.823 270.665L311.191 258.284L148.864 258.231Z" fill="#ECF1F7"/>
<path opacity="0.26" d="M125.229 271.389L148.694 257.599L311.374 257.652L333.006 271.297L125.229 271.389ZM149.038 258.862L129.877 270.122L328.638 270.036L311.009 258.915L149.038 258.862Z" fill="#243762"/>
</g>
<path d="M201.014 169.926C200.512 169.926 200.03 169.726 199.674 169.371C199.319 169.016 199.119 168.534 199.119 168.031C199.119 166.02 198.32 164.091 196.898 162.669C195.476 161.247 193.547 160.448 191.536 160.448C189.525 160.448 187.596 161.247 186.174 162.669C184.752 164.091 183.953 166.02 183.953 168.031C183.953 168.534 183.753 169.016 183.398 169.371C183.043 169.727 182.56 169.926 182.058 169.926C181.555 169.926 181.073 169.727 180.717 169.371C180.362 169.016 180.162 168.534 180.162 168.031C180.155 166.533 180.444 165.048 181.013 163.662C181.581 162.276 182.418 161.016 183.475 159.954C184.532 158.893 185.788 158.05 187.171 157.475C188.555 156.9 190.038 156.604 191.536 156.604C193.034 156.604 194.518 156.9 195.901 157.475C197.284 158.05 198.541 158.893 199.597 159.954C200.654 161.016 201.491 162.276 202.059 163.662C202.628 165.048 202.917 166.533 202.91 168.031C202.91 168.534 202.71 169.016 202.355 169.371C201.999 169.727 201.517 169.926 201.014 169.926Z" fill="#243762"/>
<path d="M276.91 169.926C276.407 169.926 275.925 169.727 275.57 169.371C275.214 169.016 275.015 168.534 275.015 168.031C275.015 166.02 274.216 164.091 272.794 162.669C271.372 161.247 269.443 160.448 267.432 160.448C265.421 160.448 263.492 161.247 262.07 162.669C260.648 164.091 259.849 166.02 259.849 168.031C259.843 168.53 259.641 169.007 259.286 169.358C258.931 169.708 258.452 169.905 257.953 169.905C257.454 169.905 256.975 169.708 256.62 169.358C256.265 169.007 256.063 168.53 256.058 168.031C256.058 165.014 257.256 162.121 259.389 159.988C261.522 157.855 264.415 156.657 267.432 156.657C270.448 156.657 273.341 157.855 275.474 159.988C277.608 162.121 278.806 165.014 278.806 168.031C278.806 168.534 278.606 169.016 278.25 169.371C277.895 169.727 277.413 169.926 276.91 169.926Z" fill="#243762"/>
<path d="M229.451 210.392C221.185 210.348 213.26 207.092 207.351 201.312C201.442 195.533 198.011 187.682 197.784 179.419C197.777 179.081 197.839 178.744 197.964 178.43C198.089 178.115 198.276 177.829 198.513 177.587C198.75 177.345 199.033 177.153 199.345 177.022C199.657 176.891 199.992 176.823 200.331 176.823H261.125V178.718C261.115 187.116 257.775 195.167 251.837 201.105C245.899 207.043 237.848 210.383 229.451 210.392ZM201.631 180.613C202.112 187.664 205.251 194.269 210.416 199.093C215.58 203.917 222.383 206.6 229.45 206.6C236.516 206.6 243.32 203.917 248.484 199.093C253.648 194.269 256.788 187.664 257.268 180.613H201.631Z" fill="#243762"/>
<path d="M340.026 113.664H169.384C169.208 113.664 169.04 113.594 168.916 113.47C168.792 113.346 168.723 113.178 168.723 113.003C168.723 112.827 168.792 112.659 168.916 112.535C169.04 112.411 169.208 112.342 169.384 112.342H340.026C340.201 112.342 340.369 112.411 340.493 112.535C340.617 112.659 340.687 112.827 340.687 113.003C340.687 113.178 340.617 113.346 340.493 113.47C340.369 113.594 340.201 113.664 340.026 113.664Z" fill="#243762"/>
<path d="M306.321 90.5458V68.8234C306.321 57.2504 314.844 47.8342 325.318 47.8342H340.672C351.146 47.8342 359.669 57.2504 359.669 68.8234V90.5458C359.669 102.119 351.146 111.534 340.672 111.534H325.318C314.844 111.534 306.321 102.118 306.321 90.5458ZM325.318 57.7255C322.518 57.8753 319.891 59.126 318.009 61.2049C316.128 63.2839 315.145 66.0224 315.274 68.8234V90.5458C315.145 93.3466 316.128 96.0849 318.01 98.1636C319.891 100.242 322.518 101.493 325.318 101.643H340.672C343.472 101.493 346.099 100.242 347.98 98.1636C349.862 96.0849 350.845 93.3466 350.716 90.5458V68.8234C350.845 66.0224 349.862 63.2839 347.981 61.2049C346.099 59.126 343.472 57.8753 340.672 57.7255H325.318Z" fill="#243762"/>
<path d="M340.672 112.136H325.318C314.511 112.136 305.72 102.45 305.72 90.5456V68.8232C305.72 56.9176 314.511 47.2314 325.318 47.2314H340.672C351.481 47.2314 360.272 56.9176 360.272 68.8232V90.5456C360.272 102.45 351.482 112.136 340.672 112.136ZM325.318 48.4366C315.175 48.4366 306.925 57.5824 306.925 68.8232V90.5456C306.925 101.786 315.175 110.931 325.318 110.931H340.672C350.814 110.931 359.067 101.786 359.067 90.5456V68.8232C359.067 57.5824 350.814 48.4366 340.672 48.4366H325.318ZM340.672 102.245H325.318C322.358 102.096 319.578 100.782 317.583 98.5899C315.589 96.3981 314.542 93.5063 314.671 90.5456V68.8232C314.542 65.8625 315.589 62.9708 317.583 60.7789C319.578 58.587 322.358 57.273 325.318 57.1235H340.672C343.632 57.273 346.412 58.5871 348.406 60.779C350.401 62.9708 351.448 65.8625 351.318 68.8232V90.5456C351.448 93.5063 350.401 96.3981 348.407 98.5899C346.412 100.782 343.632 102.096 340.672 102.245ZM325.318 58.3291C322.678 58.4788 320.204 59.6659 318.436 61.6317C316.667 63.5975 315.747 66.1826 315.877 68.8237V90.5461C315.747 93.1872 316.667 95.7723 318.436 97.7381C320.204 99.7039 322.678 100.891 325.318 101.041H340.672C343.312 100.891 345.786 99.7039 347.554 97.7381C349.323 95.7723 350.242 93.1872 350.113 90.5461V68.8232C350.242 66.1821 349.323 63.597 347.554 61.6312C345.786 59.6654 343.312 58.4783 340.672 58.3286L325.318 58.3291Z" fill="white"/>
<path d="M362.757 83.1617H303.234C298.242 83.1617 294.195 87.2085 294.195 92.2005V138.546C294.195 143.538 298.242 147.585 303.234 147.585H362.757C367.749 147.585 371.796 143.538 371.796 138.546V92.2005C371.796 87.2085 367.749 83.1617 362.757 83.1617Z" fill="#00B4FF"/>
<path d="M364.377 148.188H342.58C342.42 148.188 342.267 148.124 342.154 148.011C342.041 147.898 341.978 147.745 341.978 147.585C341.978 147.425 342.041 147.272 342.154 147.159C342.267 147.046 342.42 146.983 342.58 146.983H364.377C366.184 146.981 367.917 146.262 369.194 144.984C370.472 143.706 371.191 141.974 371.193 140.167V96.9563C371.193 96.7965 371.257 96.6433 371.37 96.5303C371.483 96.4172 371.636 96.3538 371.796 96.3538C371.956 96.3538 372.109 96.4172 372.222 96.5303C372.335 96.6433 372.399 96.7965 372.399 96.9563V140.167C372.396 142.294 371.55 144.332 370.046 145.836C368.542 147.34 366.503 148.185 364.377 148.188Z" fill="#243762"/>
<path opacity="0.25" d="M357.45 91.9745H308.542C303.55 91.9745 299.503 96.0213 299.503 101.013V132.818C299.503 137.81 303.55 141.857 308.542 141.857H357.45C362.442 141.857 366.489 137.81 366.489 132.818V101.013C366.489 96.0213 362.442 91.9745 357.45 91.9745Z" fill="white"/>
<path d="M323.937 109.791C323.929 108.111 324.388 106.461 325.264 105.027C326.14 103.593 327.397 102.431 328.896 101.67C330.394 100.91 332.075 100.581 333.749 100.721C335.424 100.86 337.027 101.463 338.378 102.462C339.73 103.46 340.778 104.815 341.403 106.374C342.029 107.934 342.209 109.636 341.923 111.292C341.637 112.948 340.896 114.492 339.782 115.75C338.669 117.009 337.228 117.934 335.619 118.42V130.138H330.373V118.419C328.516 117.862 326.888 116.723 325.729 115.169C324.569 113.615 323.941 111.73 323.937 109.791Z" fill="#243762"/>
<path d="M405.309 289.179H54.4691C54.335 289.181 54.2019 289.156 54.0774 289.106C53.9529 289.056 53.8396 288.982 53.7441 288.888C53.6485 288.794 53.5726 288.682 53.5209 288.558C53.4691 288.434 53.4424 288.302 53.4424 288.168C53.4424 288.033 53.4691 287.901 53.5209 287.777C53.5726 287.653 53.6485 287.541 53.7441 287.447C53.8396 287.353 53.9529 287.279 54.0774 287.229C54.2019 287.179 54.335 287.154 54.4691 287.156H405.309C405.575 287.161 405.828 287.269 406.014 287.458C406.201 287.647 406.305 287.902 406.305 288.168C406.305 288.433 406.201 288.688 406.014 288.877C405.828 289.066 405.575 289.174 405.309 289.179Z" fill="#243762"/>
<path d="M386.218 90.8648C386.218 93.7514 385.362 96.573 383.759 98.9731C382.155 101.373 379.876 103.244 377.209 104.348C374.542 105.453 371.607 105.742 368.776 105.179C365.945 104.615 363.345 103.225 361.304 101.184C359.263 99.1432 357.873 96.5427 357.31 93.7116C356.747 90.8805 357.036 87.946 358.14 85.2793C359.245 82.6125 361.116 80.3331 363.516 78.7295C365.916 77.1259 368.738 76.27 371.624 76.27C373.541 76.27 375.439 76.6475 377.209 77.381C378.98 78.1145 380.589 79.1895 381.944 80.5448C383.299 81.9 384.374 83.509 385.108 85.2797C385.841 87.0504 386.219 88.9482 386.218 90.8648Z" fill="#004763"/>
<path d="M357.799 104.689C357.681 104.57 357.614 104.409 357.614 104.242C357.614 104.074 357.681 103.913 357.799 103.795C357.918 103.676 358.079 103.609 358.246 103.609C358.414 103.609 358.575 103.676 358.694 103.795C361.287 106.388 364.592 108.155 368.189 108.87C371.787 109.586 375.515 109.219 378.904 107.815C382.293 106.412 385.189 104.035 387.227 100.985C389.265 97.935 390.353 94.3494 390.353 90.6814C390.353 87.0134 389.265 83.4278 387.227 80.378C385.189 77.3283 382.293 74.9513 378.904 73.5476C375.515 72.144 371.787 71.7768 368.189 72.4925C364.592 73.2081 361.287 74.9745 358.694 77.5682C358.635 77.6283 358.565 77.6763 358.488 77.7092C358.411 77.7421 358.328 77.7594 358.244 77.76C358.161 77.7606 358.077 77.7445 358 77.7127C357.922 77.6809 357.852 77.634 357.793 77.5747C357.733 77.5154 357.686 77.4449 357.655 77.3673C357.623 77.2898 357.607 77.2066 357.607 77.1228C357.608 77.039 357.625 76.9561 357.658 76.879C357.691 76.8019 357.739 76.7321 357.799 76.6737C360.57 73.9032 364.1 72.0164 367.942 71.2519C371.785 70.4875 375.768 70.8797 379.388 72.3791C383.008 73.8784 386.102 76.4176 388.279 79.6753C390.456 82.9331 391.617 86.7632 391.617 90.6813C391.617 94.5994 390.456 98.4295 388.279 101.687C386.102 104.945 383.008 107.484 379.388 108.983C375.768 110.483 371.785 110.875 367.942 110.111C364.1 109.346 360.57 107.459 357.799 104.689Z" fill="#243762"/>
<path d="M371.415 98.8028C370.905 98.821 370.408 98.6384 370.031 98.2942C369.857 98.1399 369.719 97.95 369.625 97.7374C369.53 97.5248 369.483 97.2945 369.486 97.0621C369.48 96.8278 369.526 96.5951 369.621 96.3811C369.716 96.167 369.858 95.9769 370.036 95.8248C370.42 95.4975 370.911 95.3255 371.415 95.3428C371.919 95.3226 372.411 95.4972 372.789 95.8304C372.962 95.9845 373.1 96.1745 373.192 96.3873C373.285 96.6001 373.33 96.8304 373.324 97.0623C373.33 97.2962 373.286 97.5286 373.195 97.7439C373.103 97.9593 372.966 98.1524 372.794 98.3101C372.416 98.6478 371.921 98.8246 371.415 98.8028ZM373.078 84.9755L372.78 92.5454C372.765 92.9055 372.612 93.2461 372.353 93.4958C372.093 93.7456 371.746 93.885 371.386 93.885C371.025 93.885 370.678 93.7452 370.418 93.4949C370.159 93.2446 370.006 92.9033 369.992 92.5427L369.709 84.9728C369.702 84.7854 369.733 84.5986 369.8 84.4235C369.867 84.2483 369.968 84.0885 370.098 83.9535C370.228 83.8185 370.384 83.7111 370.557 83.6378C370.729 83.5644 370.915 83.5266 371.103 83.5266H371.685C371.873 83.5266 372.058 83.5645 372.231 83.638C372.404 83.7115 372.56 83.8191 372.69 83.9544C372.82 84.0897 372.922 84.2499 372.988 84.4253C373.055 84.6008 373.086 84.7879 373.078 84.9755Z" fill="white"/>
</g>
<defs>
<clipPath id="clip0">
<rect width="421.444" height="288.294" fill="white" transform="translate(0.77832 0.884155)"/>
</clipPath>
</defs>
</svg>
