<svg width="22" height="14" viewBox="0 0 22 14" fill="none" xmlns="http://www.w3.org/2000/svg">
<g clip-path="url(#clip0)">
<path d="M12.0719 0.974976H2.48213C1.19817 0.976437 0.157704 2.02267 0.15625 3.31374V11.0761C0.157704 12.3672 1.19817 13.4134 2.48213 13.4149H12.0719C13.3558 13.4134 14.3963 12.3672 14.3977 11.0761V3.31374C14.3963 2.02267 13.3558 0.976437 12.0719 0.974976V0.974976ZM13.4674 11.0761C13.4667 11.8506 12.8423 12.4784 12.0719 12.4793H2.48213C1.71168 12.4784 1.08751 11.8506 1.0866 11.0761V3.31374C1.08751 2.53921 1.71168 1.9114 2.48213 1.91048H12.0719C12.8423 1.9114 13.4667 2.53921 13.4674 3.31374V11.0761Z" fill="white"/>
<path d="M21.4131 2.19275C21.2681 2.10943 21.0898 2.11089 20.9459 2.19622L15.8028 5.24977C15.6611 5.33401 15.5742 5.48712 15.5742 5.65266V8.47344C15.5742 8.61797 15.6405 8.75446 15.7541 8.84307L20.8972 12.8581C21.0375 12.9675 21.2276 12.9873 21.3871 12.9087C21.5467 12.8301 21.6477 12.6671 21.6477 12.4886V2.59892C21.6477 2.43101 21.5581 2.27606 21.4131 2.19275ZM20.7173 11.5332L16.5046 8.24449V5.91979L20.7173 3.41841V11.5332Z" fill="white"/>
</g>
<defs>
<clipPath id="clip0">
<rect width="21.4912" height="12.4423" fill="white" transform="translate(0.15625 0.974976)"/>
</clipPath>
</defs>
</svg>
