<svg width="12" height="18" viewBox="0 0 12 18" fill="none" xmlns="http://www.w3.org/2000/svg">
<g clip-path="url(#clip0)">
<path d="M6.20218 0.712646C4.46883 0.712646 3.05859 2.04602 3.05859 3.6849V9.52645C3.05859 11.1651 4.46883 12.4985 6.20218 12.4985C7.93553 12.4985 9.34577 11.1744 9.34577 9.54687V3.6849C9.34577 2.04602 7.93553 0.712646 6.20218 0.712646ZM8.03573 9.5467C8.03573 10.4912 7.21315 11.2599 6.20218 11.2599C5.19121 11.2599 4.36842 10.4823 4.36842 9.52626V3.6849C4.36842 2.72884 5.191 1.95108 6.20218 1.95108C7.21336 1.95108 8.03594 2.72884 8.03573 3.6849V9.5467Z" fill="white"/>
<path d="M6.8567 14.2736H5.54688V17.0601H6.8567V14.2736Z" fill="white"/>
<path d="M7.92642 16.4409H4.47718C4.11544 16.4409 3.82227 16.7181 3.82227 17.0601C3.82227 17.4022 4.11544 17.6794 4.47718 17.6794H7.92642C8.28816 17.6794 8.58134 17.4022 8.58134 17.0601C8.58134 16.7181 8.28816 16.4409 7.92642 16.4409Z" fill="white"/>
<path d="M11.1578 8.49426C10.7961 8.49426 10.5029 8.77146 10.5029 9.11348V9.60886C10.5029 11.8509 8.57352 13.6751 6.20226 13.6751C3.83082 13.6751 1.90162 11.8509 1.90162 9.60886V9.11348C1.90162 8.77146 1.60844 8.49426 1.24671 8.49426C0.884976 8.49426 0.591797 8.77146 0.591797 9.11348V9.60886C0.591797 12.5339 3.10865 14.9135 6.20226 14.9135C9.29587 14.9135 11.8127 12.5339 11.8127 9.60886V9.11348C11.8127 8.7715 11.5195 8.49426 11.1578 8.49426Z" fill="white"/>
</g>
<defs>
<clipPath id="clip0">
<rect width="11.3111" height="16.9667" fill="white" transform="translate(0.546875 0.712646)"/>
</clipPath>
</defs>
</svg>
