<svg width="28" height="28" viewBox="0 0 28 28" fill="none" xmlns="http://www.w3.org/2000/svg">
<g clip-path="url(#clip0)">
<path d="M24.7014 20.2581C24.234 19.9104 23.5734 20.0075 23.2257 20.4748C23.0345 20.7318 22.8299 20.9839 22.6175 21.2241C22.2318 21.6605 22.2728 22.3271 22.7091 22.7129C22.9098 22.8903 23.159 22.9774 23.4073 22.9774C23.699 22.9774 23.9895 22.857 24.1979 22.6212C24.4494 22.3368 24.6917 22.0382 24.9181 21.7338C25.2658 21.2665 25.1688 20.6057 24.7014 20.2581Z" fill="#004763"/>
<path d="M26.4654 15.3119C25.8966 15.1881 25.3344 15.549 25.2105 16.1182C25.1423 16.4312 25.06 16.7449 24.9655 17.0505C24.7935 17.6071 25.1053 18.1976 25.6618 18.3696C25.7655 18.4016 25.8704 18.4168 25.9735 18.4168C26.4239 18.4168 26.8409 18.1261 26.9809 17.6732C27.093 17.3105 27.1907 16.9382 27.2716 16.5668C27.3955 15.9977 27.0345 15.4359 26.4654 15.3119Z" fill="#004763"/>
<path d="M19.6251 23.6358C19.3451 23.7921 19.0552 23.9382 18.7634 24.07C18.2326 24.3097 17.9966 24.9344 18.2363 25.4653C18.4124 25.8553 18.7963 26.0861 19.1981 26.0861C19.3433 26.0861 19.4908 26.056 19.6316 25.9924C19.9777 25.8361 20.3214 25.6629 20.6534 25.4775C21.1621 25.1936 21.3442 24.5511 21.0601 24.0425C20.7763 23.534 20.1337 23.3519 19.6251 23.6358Z" fill="#004763"/>
<path d="M12.973 5.24561V13.2463L9.10552 17.1137C8.69367 17.5256 8.69367 18.1934 9.10552 18.6052C9.3115 18.8112 9.58135 18.9141 9.85135 18.9141C10.1212 18.9141 10.3912 18.8112 10.5972 18.6052L14.7735 14.4289C14.9713 14.2311 15.0824 13.9628 15.0824 13.6831V5.24561C15.0824 4.6631 14.6102 4.19092 14.0277 4.19092C13.4452 4.19092 12.973 4.6631 12.973 5.24561Z" fill="#004763"/>
<path d="M26.4731 2.45068C25.8906 2.45068 25.4185 2.92287 25.4185 3.50537V6.43403C22.9636 2.584 18.6764 0.183105 14.0278 0.183105C10.4219 0.183105 7.03172 1.58737 4.48186 4.13713C1.9321 6.68699 0.527832 10.0771 0.527832 13.6831C0.527832 17.2891 1.9321 20.6792 4.48186 23.2291C7.03172 25.7788 10.4219 27.1831 14.0278 27.1831C14.0367 27.1831 14.0453 27.182 14.0542 27.1818C14.0631 27.182 14.0717 27.1831 14.0806 27.1831C14.4607 27.1831 14.8445 27.1671 15.2216 27.1355C15.802 27.0869 16.2332 26.577 16.1846 25.9965C16.1359 25.4161 15.6267 24.9847 15.0456 25.0335C14.7268 25.0602 14.4022 25.0737 14.0806 25.0737C14.0717 25.0737 14.0631 25.0748 14.0542 25.075C14.0453 25.0748 14.0367 25.0737 14.0278 25.0737C7.74701 25.0737 2.63721 19.9639 2.63721 13.6831C2.63721 7.40228 7.74701 2.29248 14.0278 2.29248C18.0756 2.29248 21.7986 4.45 23.8331 7.88232H20.933C20.3505 7.88232 19.8783 8.35451 19.8783 8.93701C19.8783 9.51952 20.3505 9.9917 20.933 9.9917H24.1528C24.7951 9.9917 25.396 9.81119 25.9077 9.49848C25.9406 9.4797 25.9722 9.4595 26.0024 9.43772C26.9203 8.83386 27.5278 7.79515 27.5278 6.6167V3.50537C27.5278 2.92287 27.0556 2.45068 26.4731 2.45068Z" fill="#004763"/>
</g>
<defs>
<clipPath id="clip0">
<rect width="27" height="27" fill="white" transform="translate(0.527832 0.183105)"/>
</clipPath>
</defs>
</svg>
