<svg width="32" height="33" viewBox="0 0 32 33" fill="none" xmlns="http://www.w3.org/2000/svg">
<path d="M18.7976 24.1274C18.6264 23.8308 18.2472 23.7292 17.9507 23.9005L16.7329 24.6036V23.1974C16.7329 22.855 16.4553 22.5774 16.1129 22.5774C15.7706 22.5774 15.4929 22.855 15.4929 23.1974V24.6036L14.2752 23.9005C13.9785 23.7293 13.5995 23.8308 13.4283 24.1274C13.257 24.4239 13.3587 24.8031 13.6552 24.9743L14.8729 25.6774L13.6552 26.3805C13.3587 26.5517 13.257 26.9309 13.4283 27.2274C13.5432 27.4263 13.7515 27.5375 13.9658 27.5375C14.071 27.5375 14.1776 27.5107 14.2752 27.4543L15.4929 26.7512V28.1574C15.4929 28.4998 15.7706 28.7774 16.1129 28.7774C16.4553 28.7774 16.7329 28.4998 16.7329 28.1574V26.7512L17.9507 27.4543C18.0483 27.5107 18.1549 27.5375 18.2601 27.5375C18.4743 27.5375 18.6827 27.4263 18.7976 27.2274C18.9689 26.9309 18.8672 26.5517 18.5707 26.3805L17.3529 25.6774L18.5707 24.9743C18.8672 24.8031 18.9688 24.4239 18.7976 24.1274Z" fill="#004763"/>
<path d="M10.3036 24.1274C10.1324 23.8308 9.75322 23.7292 9.45667 23.9005L8.23893 24.6036V23.1974C8.23893 22.855 7.96129 22.5774 7.61893 22.5774C7.27656 22.5774 6.99893 22.855 6.99893 23.1974V24.6036L5.78118 23.9005C5.48458 23.7293 5.10557 23.8308 4.93426 24.1274C4.76302 24.4239 4.86464 24.8031 5.16118 24.9743L6.37893 25.6774L5.16118 26.3805C4.86464 26.5517 4.76302 26.9309 4.93426 27.2274C5.04915 27.4263 5.25747 27.5375 5.4718 27.5375C5.57696 27.5375 5.6836 27.5107 5.78118 27.4543L6.99893 26.7512V28.1574C6.99893 28.4998 7.27656 28.7774 7.61893 28.7774C7.96129 28.7774 8.23893 28.4998 8.23893 28.1574V26.7512L9.45667 27.4543C9.55432 27.5107 9.6609 27.5375 9.76605 27.5375C9.98032 27.5375 10.1887 27.4263 10.3036 27.2274C10.4748 26.9309 10.3732 26.5517 10.0767 26.3805L8.85893 25.6774L10.0767 24.9743C10.3732 24.8031 10.4748 24.4239 10.3036 24.1274Z" fill="#004763"/>
<path d="M21.9223 27.2274C22.0372 27.4263 22.2455 27.5375 22.4598 27.5375C22.565 27.5375 22.6716 27.5107 22.7692 27.4543L23.987 26.7512V28.1574C23.987 28.4998 24.2646 28.7774 24.607 28.7774C24.9493 28.7774 25.227 28.4998 25.227 28.1574V26.7512L26.4447 27.4543C26.5424 27.5107 26.6489 27.5375 26.7541 27.5375C26.9684 27.5375 27.1767 27.4263 27.2916 27.2274C27.4629 26.9309 27.3613 26.5517 27.0647 26.3805L25.847 25.6774L27.0647 24.9743C27.3613 24.8031 27.4629 24.4239 27.2916 24.1274C27.1204 23.8308 26.7413 23.7292 26.4447 23.9005L25.227 24.6036V23.1974C25.227 22.855 24.9493 22.5774 24.607 22.5774C24.2646 22.5774 23.987 22.855 23.987 23.1974V24.6036L22.7692 23.9005C22.4726 23.7293 22.0935 23.8308 21.9223 24.1274C21.7511 24.4239 21.8527 24.8031 22.1492 24.9743L23.367 25.6774L22.1492 26.3805C21.8527 26.5517 21.7511 26.9309 21.9223 27.2274Z" fill="#004763"/>
<path d="M28.885 19.1053H18.9069C18.5645 19.1053 18.2869 19.3829 18.2869 19.7253C18.2869 20.0678 18.5645 20.3453 18.9069 20.3453H28.885C29.9106 20.3453 30.745 21.1797 30.745 22.2053V29.1494C30.745 30.175 29.9106 31.0094 28.885 31.0094H3.34097C2.31536 31.0094 1.48097 30.175 1.48097 29.1494V22.2053C1.48097 21.1797 2.31536 20.3453 3.34097 20.3453H13.3269C13.6692 20.3453 13.9469 20.0678 13.9469 19.7253C13.9469 19.3829 13.6692 19.1053 13.3269 19.1053H3.34097C1.63163 19.1053 0.240967 20.496 0.240967 22.2053V29.1494C0.240967 30.8587 1.63163 32.2494 3.34097 32.2494H28.885C30.5943 32.2494 31.985 30.8587 31.985 29.1494V22.2053C31.985 20.496 30.5943 19.1053 28.885 19.1053Z" fill="#004763"/>
<path d="M16.1131 13.7114C16.4554 13.7114 16.7331 13.4338 16.7331 13.0914V10.4424C16.7331 10.1 16.4554 9.82239 16.1131 9.82239C15.7707 9.82239 15.493 10.1 15.493 10.4424V13.0914C15.493 13.4338 15.7706 13.7114 16.1131 13.7114Z" fill="#004763"/>
<path d="M11.6489 17.6174H20.5769C22.0128 17.6174 23.1809 16.4493 23.1809 15.0134V8.52044C23.1809 7.08458 22.0128 5.91643 20.5769 5.91643H20.4529V4.84489C20.4529 2.45181 18.506 0.504883 16.1129 0.504883C13.7198 0.504883 11.7729 2.45181 11.7729 4.84489V5.91643H11.6489C10.2131 5.91643 9.04492 7.08458 9.04492 8.52044V15.0134C9.04492 16.4493 10.2131 17.6174 11.6489 17.6174ZM13.0129 4.84489C13.0129 3.13555 14.4036 1.74488 16.1129 1.74488C17.8223 1.74488 19.2129 3.13555 19.2129 4.84489V5.91643H13.0129V4.84489ZM10.2849 8.52044C10.2849 7.76831 10.8968 7.15643 11.6489 7.15643H20.5769C21.3291 7.15643 21.9409 7.76831 21.9409 8.52044V15.0134C21.9409 15.7655 21.3291 16.3774 20.5769 16.3774H11.6489C10.8968 16.3774 10.2849 15.7655 10.2849 15.0134V8.52044Z" fill="#004763"/>
<path d="M16.1166 20.3495C16.2797 20.3495 16.4396 20.2832 16.5549 20.1679C16.6709 20.0525 16.7366 19.8926 16.7366 19.7295C16.7366 19.5658 16.6709 19.4065 16.5549 19.2912C16.4396 19.1758 16.2797 19.1095 16.1166 19.1095C15.9535 19.1095 15.7936 19.1758 15.6783 19.2912C15.563 19.4065 15.4966 19.5658 15.4966 19.7295C15.4966 19.8926 15.5629 20.0525 15.6783 20.1679C15.7936 20.2832 15.9536 20.3495 16.1166 20.3495Z" fill="#004763"/>
</svg>
