<svg width="15" height="15" viewBox="0 0 15 15" fill="none" xmlns="http://www.w3.org/2000/svg">
<path d="M5.625 1.875H11.4111L12.1875 2.65166V4.6875H14.0625V2.26318C14.0625 2.01463 13.9636 1.77627 13.7878 1.60049L12.4622 0.274805C12.2871 0.098877 12.0469 0 11.8008 0H4.6875C4.16895 0 3.75 0.419824 3.75 0.9375V4.6875H5.625V1.875ZM1.875 3.75H0.9375C0.421289 3.75 0 4.17187 0 4.6875V14.0625C0 14.5787 0.421289 15 0.9375 15H1.875C2.39121 15 2.8125 14.5787 2.8125 14.0625V4.6875C2.8125 4.17187 2.3915 3.75 1.875 3.75ZM14.0625 5.625H3.75V14.0625C3.75 14.5781 4.17187 15 4.6875 15H14.0625C14.5781 15 15 14.5781 15 14.0625V6.5625C15 6.04687 14.5781 5.625 14.0625 5.625ZM8.4375 12.6562C8.4375 12.9163 8.22876 13.125 7.96875 13.125H7.03125C6.77051 13.125 6.5625 12.917 6.5625 12.6562V11.7188C6.5625 11.458 6.77051 11.25 7.03125 11.25H7.96875C8.22876 11.25 8.4375 11.4587 8.4375 11.7188V12.6562ZM8.4375 8.90625C8.4375 9.16626 8.22876 9.375 7.96875 9.375H7.03125C6.77051 9.375 6.5625 9.16699 6.5625 8.90625V7.96875C6.5625 7.70801 6.77051 7.5 7.03125 7.5H7.96875C8.22949 7.5 8.4375 7.70801 8.4375 7.96875V8.90625ZM12.1875 12.6562C12.1875 12.9163 11.9788 13.125 11.7188 13.125H10.7812C10.5212 13.125 10.3125 12.9163 10.3125 12.6562V11.7188C10.3125 11.4587 10.5212 11.25 10.7812 11.25H11.7188C11.9788 11.25 12.1875 11.4587 12.1875 11.7188V12.6562ZM12.1875 8.90625C12.1875 9.16626 11.9788 9.375 11.7188 9.375H10.7812C10.5205 9.375 10.3125 9.16699 10.3125 8.90625V7.96875C10.3125 7.70801 10.5205 7.5 10.7812 7.5H11.7188C11.9795 7.5 12.1875 7.70801 12.1875 7.96875V8.90625Z" fill="#AFAFAF"/>
</svg>
