<svg width="111" height="111" viewBox="0 0 111 111" fill="none" xmlns="http://www.w3.org/2000/svg">
<circle cx="55.5" cy="55.5" r="55.5" fill="#0D63F3"/>
<path d="M60.3333 38V47H69L60.3333 38ZM58.1667 47V38H46.25C44.4551 38 43 39.511 43 41.375V70.625C43 72.4883 44.4551 74 46.25 74H65.75C67.5449 74 69 72.489 69 70.625V49.25H60.3943C59.1349 49.25 58.1667 48.2445 58.1667 47ZM63.0417 61.625C63.0417 62.5573 62.3145 63.2492 61.4167 63.2492H57.625V67.1867C57.5641 68.1852 56.9005 68.9375 56 68.9375C55.1015 68.9375 54.375 68.1823 54.375 67.3133V63.2492H50.5224C49.6848 63.2492 48.9583 62.5602 48.9583 61.625C48.9583 60.6927 49.6855 60.0008 50.5224 60.0008H54.375V55.9367C54.375 55.0648 55.0995 54.3125 56 54.3125C56.9005 54.3125 57.5641 55.0677 57.5641 55.9367V59.9375H61.4167C62.3172 59.9375 63.0417 60.6898 63.0417 61.625Z" fill="white"/>
</svg>
