<svg width="91" height="91" viewBox="0 0 91 91" fill="none" xmlns="http://www.w3.org/2000/svg">
<rect opacity="0.1" width="91" height="91" rx="15" fill="#0D63F3"/>
<path d="M60.9469 41.9501C59.0681 44.5441 58.3153 47.5891 58.0238 50.7579C57.6724 54.6335 57.2002 58.4885 56.3466 62.2704L55.7138 65.0491C55.4625 66.1872 54.4678 66.9972 53.3334 66.9972C52.2084 66.9972 51.2344 66.2181 50.9625 65.1007L48.1903 53.7382C47.8219 52.2438 46.5094 51.1938 45 51.1938C43.4831 51.1938 42.1678 52.2494 41.8059 53.7466L39.0337 65.1091C38.7625 66.2266 37.7784 67.0057 36.6628 67.0057C35.5181 67.0057 34.5337 66.1958 34.2722 65.0576L33.6494 62.2788C32.7958 58.4951 32.3238 54.64 32.0463 50.7663C31.6809 47.5094 30.9281 44.5469 29.0494 41.9501C27.2916 39.5201 26.5078 36.311 27.3216 32.8966C28.2054 29.185 31.1081 26.17 34.7137 25.2063C36.6019 24.7141 38.4206 25.1653 40.0875 26.0573L48.1631 31.3579C48.7859 31.768 49.5797 31.5323 49.9406 30.9581C50.3222 30.3531 50.1516 29.5435 49.5487 29.1431L47.2791 27.6563C47.5603 27.5127 47.8617 27.3999 48.1228 27.205C50.2219 25.6263 52.6931 24.5191 55.2844 25.2054C58.89 26.1691 61.7934 29.1832 62.6766 32.8957C63.4875 36.3157 62.7094 39.5313 60.9469 41.9501Z" fill="#0D63F3"/>
</svg>
