<svg width="111" height="111" viewBox="0 0 111 111" fill="none" xmlns="http://www.w3.org/2000/svg">
<circle cx="55.5" cy="55.5" r="55.5" fill="#0D63F3"/>
<g clip-path="url(#clip0_1:216)">
<path d="M51.5556 71.75C51.5556 72.9889 52.5542 74 53.7778 74H58.2222C59.4444 74 60.3819 72.9875 60.4444 71.75V67.25H51.5556V71.75ZM47.1111 38H42.6667C41.4431 38 40.4444 39.0111 40.4444 40.25V44.75H49.3333V40.25C49.3333 39.0111 48.3333 38 47.1111 38ZM41.4931 62.75H43.6528C44.2664 62.75 44.7639 62.2463 44.7639 61.625L44.8264 58.25H48.0972C48.7108 58.25 49.2083 57.7462 49.2083 57.125V54.875C49.2083 54.2537 48.7108 53.8133 48.0972 53.8133H44.8264L44.8264 50.5016C44.8264 49.8803 44.3289 49.4398 43.7153 49.4398H41.4931C40.8794 49.4398 40.4444 49.9435 40.4444 50.5016L40.3819 53.75H37.1111C36.4975 53.75 36 54.2536 36 54.8117V57.0617C36 57.683 36.4975 58.1867 37.1111 58.1867H40.3819V61.625C40.3819 62.2438 40.9417 62.75 41.4931 62.75ZM40.4444 71.75C40.4444 72.9889 41.4431 74 42.6667 74H47.1111C48.3347 74 49.3333 72.9889 49.3333 71.75L49.3333 67.25H40.4444V71.75ZM67.875 39.6622C67.5578 38.4683 66.3368 37.7567 65.1556 38.0766L60.8653 39.2382C60.6519 39.2959 60.4751 39.4129 60.296 39.5244C60 38.6438 59.1319 38 58.2222 38H53.7778C52.5556 38 51.5556 39.0111 51.5556 40.25V44.75H60.0278L60.4447 46.3229L69.0211 43.9991L67.875 39.6622ZM75.9236 70.0133L74.7792 65.6771L66.1958 68.0009L67.3451 72.3364C67.6617 73.5303 68.8833 74.2433 70.0653 73.9234L74.3604 72.7618C75.5417 72.4391 76.2431 71.2086 75.9236 70.0133ZM51.5556 65H60.4444V47H51.5556V65ZM69.6042 46.1703L61.0208 48.4934L65.6188 65.8395L74.209 63.5164L69.6042 46.1703Z" fill="white"/>
</g>
<defs>
<clipPath id="clip0_1:216">
<rect width="40" height="36" fill="white" transform="translate(36 38)"/>
</clipPath>
</defs>
</svg>
