<svg width="160" height="28" viewBox="0 0 160 28" fill="none" xmlns="http://www.w3.org/2000/svg">
<path d="M13.1523 1.35454C13.5441 0.728532 14.4559 0.728532 14.8477 1.35454L18.4931 7.17957C18.6303 7.39887 18.8472 7.55645 19.0982 7.61921L25.7646 9.28614C26.481 9.46528 26.7628 10.3325 26.2885 10.8985L21.875 16.1655C21.7089 16.3638 21.626 16.6188 21.6439 16.8769L22.1186 23.7321C22.1696 24.4689 21.4319 25.0048 20.747 24.7286L14.374 22.1588C14.134 22.0621 13.866 22.0621 13.626 22.1588L7.25298 24.7286C6.56808 25.0048 5.83038 24.4689 5.88139 23.7321L6.35608 16.8769C6.37395 16.6188 6.29111 16.3638 6.12495 16.1655L1.7115 10.8985C1.23719 10.3325 1.51897 9.46528 2.2354 9.28614L8.90182 7.61921C9.1528 7.55645 9.36969 7.39887 9.50693 7.17957L13.1523 1.35454Z" fill="#0D63F3"/>
<path d="M46.1523 1.35454C46.5441 0.728532 47.4559 0.728532 47.8477 1.35454L51.4931 7.17957C51.6303 7.39887 51.8472 7.55645 52.0982 7.61921L58.7646 9.28614C59.481 9.46528 59.7628 10.3325 59.2885 10.8985L54.875 16.1655C54.7089 16.3638 54.626 16.6188 54.6439 16.8769L55.1186 23.7321C55.1696 24.4689 54.4319 25.0048 53.747 24.7286L47.374 22.1588C47.134 22.0621 46.866 22.0621 46.626 22.1588L40.253 24.7286C39.5681 25.0048 38.8304 24.4689 38.8814 23.7321L39.3561 16.8769C39.374 16.6188 39.2911 16.3638 39.125 16.1655L34.7115 10.8985C34.2372 10.3325 34.519 9.46528 35.2354 9.28614L41.9018 7.61921C42.1528 7.55645 42.3697 7.39887 42.5069 7.17957L46.1523 1.35454Z" fill="#0D63F3"/>
<path d="M79.1523 1.35454C79.5441 0.728532 80.4559 0.728532 80.8477 1.35454L84.4931 7.17957C84.6303 7.39887 84.8472 7.55645 85.0982 7.61921L91.7646 9.28614C92.481 9.46528 92.7628 10.3325 92.2885 10.8985L87.875 16.1655C87.7089 16.3638 87.626 16.6188 87.6439 16.8769L88.1186 23.7321C88.1696 24.4689 87.4319 25.0048 86.747 24.7286L80.374 22.1588C80.134 22.0621 79.866 22.0621 79.626 22.1588L73.253 24.7286C72.5681 25.0048 71.8304 24.4689 71.8814 23.7321L72.3561 16.8769C72.374 16.6188 72.2911 16.3638 72.125 16.1655L67.7115 10.8985C67.2372 10.3325 67.519 9.46528 68.2354 9.28614L74.9018 7.61921C75.1528 7.55645 75.3697 7.39887 75.5069 7.17957L79.1523 1.35454Z" fill="#0D63F3"/>
<path d="M112.152 1.35454C112.544 0.728532 113.456 0.728532 113.848 1.35454L117.493 7.17957C117.63 7.39887 117.847 7.55645 118.098 7.61921L124.765 9.28614C125.481 9.46528 125.763 10.3325 125.288 10.8985L120.875 16.1655C120.709 16.3638 120.626 16.6188 120.644 16.8769L121.119 23.7321C121.17 24.4689 120.432 25.0048 119.747 24.7286L113.374 22.1588C113.134 22.0621 112.866 22.0621 112.626 22.1588L106.253 24.7286C105.568 25.0048 104.83 24.4689 104.881 23.7321L105.356 16.8769C105.374 16.6188 105.291 16.3638 105.125 16.1655L100.712 10.8985C100.237 10.3325 100.519 9.46528 101.235 9.28614L107.902 7.61921C108.153 7.55645 108.37 7.39887 108.507 7.17957L112.152 1.35454Z" fill="#0D63F3"/>
<path d="M145.152 1.35454C145.544 0.728532 146.456 0.728532 146.848 1.35454L150.493 7.17957C150.63 7.39887 150.847 7.55645 151.098 7.61921L157.765 9.28614C158.481 9.46528 158.763 10.3325 158.288 10.8985L153.875 16.1655C153.709 16.3638 153.626 16.6188 153.644 16.8769L154.119 23.7321C154.17 24.4689 153.432 25.0048 152.747 24.7286L146.374 22.1588C146.134 22.0621 145.866 22.0621 145.626 22.1588L139.253 24.7286C138.568 25.0048 137.83 24.4689 137.881 23.7321L138.356 16.8769C138.374 16.6188 138.291 16.3638 138.125 16.1655L133.712 10.8985C133.237 10.3325 133.519 9.46528 134.235 9.28614L140.902 7.61921C141.153 7.55645 141.37 7.39887 141.507 7.17957L145.152 1.35454Z" fill="#0D63F3"/>
</svg>
