<svg width="13" height="18" viewBox="0 0 13 18" fill="none" xmlns="http://www.w3.org/2000/svg">
<g clip-path="url(#clip0_1:61)">
<path d="M6.5 0C2.91044 0 0 3.02238 0 6.75C0 9.47145 0.913047 10.2315 5.83307 17.6379C6.15574 18.122 6.84565 18.122 7.16828 17.6379C12.0859 10.2305 13 9.47109 13 6.75C13 3.02238 10.0885 0 6.5 0ZM6.5 9.53086C5.00602 9.53086 3.79167 8.26945 3.79167 6.71836C3.79167 5.16727 5.00703 3.90586 6.5 3.90586C7.99297 3.90586 9.20833 5.16727 9.20833 6.71836C9.20833 8.26945 7.99297 9.53086 6.5 9.53086Z" fill="#AFAFAF"/>
</g>
<defs>
<clipPath id="clip0_1:61">
<rect width="13" height="18" fill="white"/>
</clipPath>
</defs>
</svg>
