<svg width="15" height="15" viewBox="0 0 15 15" fill="none" xmlns="http://www.w3.org/2000/svg">
<g clip-path="url(#clip0_1:59)">
<path d="M14.9766 11.3374L14.2954 14.2905C14.1997 14.708 13.8328 15.0001 13.403 15.0001C6.01172 14.9995 0 8.98783 0 1.59624C0 1.16675 0.292061 0.799365 0.70957 0.704151L3.6627 0.0229996C4.09277 -0.0766682 4.53223 0.146574 4.71094 0.553858L6.07383 3.73256C6.23314 4.10698 6.12568 4.54321 5.81074 4.80043L4.2334 6.06693C5.22891 8.09486 6.87773 9.74368 8.90625 10.7398L10.1977 9.16361C10.4522 8.84779 10.8917 8.73851 11.2661 8.90067L14.4448 10.2633C14.8271 10.4644 15.0762 10.9097 14.9766 11.3374Z" fill="#AFAFAF"/>
</g>
<defs>
<clipPath id="clip0_1:59">
<rect width="15" height="15" fill="white"/>
</clipPath>
</defs>
</svg>
